%TF.GenerationSoftware,KiCad,Pcbnew,8.0.6*%
%TF.CreationDate,2024-10-30T13:43:03-04:00*%
%TF.ProjectId,Propulsion PCB,50726f70-756c-4736-996f-6e205043422e,3*%
%TF.SameCoordinates,Original*%
%TF.FileFunction,Legend,Top*%
%TF.FilePolarity,Positive*%
%FSLAX46Y46*%
G04 Gerber Fmt 4.6, Leading zero omitted, Abs format (unit mm)*
G04 Created by KiCad (PCBNEW 8.0.6) date 2024-10-30 13:43:03*
%MOMM*%
%LPD*%
G01*
G04 APERTURE LIST*
%ADD10C,0.100000*%
%ADD11C,0.200000*%
%ADD12C,0.150000*%
%ADD13C,0.127000*%
%ADD14C,0.300000*%
%ADD15C,0.120000*%
%ADD16C,0.152400*%
G04 APERTURE END LIST*
D10*
X258491466Y-103196115D02*
X258491466Y-102434211D01*
X258491466Y-108196115D02*
X258491466Y-107434211D01*
X258872419Y-107815163D02*
X258110514Y-107815163D01*
D11*
X209822054Y-122147331D02*
X210060149Y-123147331D01*
X210060149Y-123147331D02*
X210250625Y-122433045D01*
X210250625Y-122433045D02*
X210441101Y-123147331D01*
X210441101Y-123147331D02*
X210679197Y-122147331D01*
X211060149Y-122623521D02*
X211393482Y-122623521D01*
X211536339Y-123147331D02*
X211060149Y-123147331D01*
X211060149Y-123147331D02*
X211060149Y-122147331D01*
X211060149Y-122147331D02*
X211536339Y-122147331D01*
X211917292Y-123099712D02*
X212060149Y-123147331D01*
X212060149Y-123147331D02*
X212298244Y-123147331D01*
X212298244Y-123147331D02*
X212393482Y-123099712D01*
X212393482Y-123099712D02*
X212441101Y-123052092D01*
X212441101Y-123052092D02*
X212488720Y-122956854D01*
X212488720Y-122956854D02*
X212488720Y-122861616D01*
X212488720Y-122861616D02*
X212441101Y-122766378D01*
X212441101Y-122766378D02*
X212393482Y-122718759D01*
X212393482Y-122718759D02*
X212298244Y-122671140D01*
X212298244Y-122671140D02*
X212107768Y-122623521D01*
X212107768Y-122623521D02*
X212012530Y-122575902D01*
X212012530Y-122575902D02*
X211964911Y-122528283D01*
X211964911Y-122528283D02*
X211917292Y-122433045D01*
X211917292Y-122433045D02*
X211917292Y-122337807D01*
X211917292Y-122337807D02*
X211964911Y-122242569D01*
X211964911Y-122242569D02*
X212012530Y-122194950D01*
X212012530Y-122194950D02*
X212107768Y-122147331D01*
X212107768Y-122147331D02*
X212345863Y-122147331D01*
X212345863Y-122147331D02*
X212488720Y-122194950D01*
X212774435Y-122147331D02*
X213345863Y-122147331D01*
X213060149Y-123147331D02*
X213060149Y-122147331D01*
X213679197Y-122623521D02*
X214012530Y-122623521D01*
X214155387Y-123147331D02*
X213679197Y-123147331D01*
X213679197Y-123147331D02*
X213679197Y-122147331D01*
X213679197Y-122147331D02*
X214155387Y-122147331D01*
X215155387Y-123147331D02*
X214822054Y-122671140D01*
X214583959Y-123147331D02*
X214583959Y-122147331D01*
X214583959Y-122147331D02*
X214964911Y-122147331D01*
X214964911Y-122147331D02*
X215060149Y-122194950D01*
X215060149Y-122194950D02*
X215107768Y-122242569D01*
X215107768Y-122242569D02*
X215155387Y-122337807D01*
X215155387Y-122337807D02*
X215155387Y-122480664D01*
X215155387Y-122480664D02*
X215107768Y-122575902D01*
X215107768Y-122575902D02*
X215060149Y-122623521D01*
X215060149Y-122623521D02*
X214964911Y-122671140D01*
X214964911Y-122671140D02*
X214583959Y-122671140D01*
X215583959Y-123147331D02*
X215583959Y-122147331D01*
X215583959Y-122147331D02*
X216155387Y-123147331D01*
X216155387Y-123147331D02*
X216155387Y-122147331D01*
X217393483Y-123147331D02*
X217393483Y-122147331D01*
X217393483Y-122147331D02*
X217726816Y-122861616D01*
X217726816Y-122861616D02*
X218060149Y-122147331D01*
X218060149Y-122147331D02*
X218060149Y-123147331D01*
X218536340Y-123147331D02*
X218536340Y-122147331D01*
X219583958Y-123052092D02*
X219536339Y-123099712D01*
X219536339Y-123099712D02*
X219393482Y-123147331D01*
X219393482Y-123147331D02*
X219298244Y-123147331D01*
X219298244Y-123147331D02*
X219155387Y-123099712D01*
X219155387Y-123099712D02*
X219060149Y-123004473D01*
X219060149Y-123004473D02*
X219012530Y-122909235D01*
X219012530Y-122909235D02*
X218964911Y-122718759D01*
X218964911Y-122718759D02*
X218964911Y-122575902D01*
X218964911Y-122575902D02*
X219012530Y-122385426D01*
X219012530Y-122385426D02*
X219060149Y-122290188D01*
X219060149Y-122290188D02*
X219155387Y-122194950D01*
X219155387Y-122194950D02*
X219298244Y-122147331D01*
X219298244Y-122147331D02*
X219393482Y-122147331D01*
X219393482Y-122147331D02*
X219536339Y-122194950D01*
X219536339Y-122194950D02*
X219583958Y-122242569D01*
X220012530Y-123147331D02*
X220012530Y-122147331D01*
X220012530Y-122623521D02*
X220583958Y-122623521D01*
X220583958Y-123147331D02*
X220583958Y-122147331D01*
X221060149Y-123147331D02*
X221060149Y-122147331D01*
X222060148Y-122194950D02*
X221964910Y-122147331D01*
X221964910Y-122147331D02*
X221822053Y-122147331D01*
X221822053Y-122147331D02*
X221679196Y-122194950D01*
X221679196Y-122194950D02*
X221583958Y-122290188D01*
X221583958Y-122290188D02*
X221536339Y-122385426D01*
X221536339Y-122385426D02*
X221488720Y-122575902D01*
X221488720Y-122575902D02*
X221488720Y-122718759D01*
X221488720Y-122718759D02*
X221536339Y-122909235D01*
X221536339Y-122909235D02*
X221583958Y-123004473D01*
X221583958Y-123004473D02*
X221679196Y-123099712D01*
X221679196Y-123099712D02*
X221822053Y-123147331D01*
X221822053Y-123147331D02*
X221917291Y-123147331D01*
X221917291Y-123147331D02*
X222060148Y-123099712D01*
X222060148Y-123099712D02*
X222107767Y-123052092D01*
X222107767Y-123052092D02*
X222107767Y-122718759D01*
X222107767Y-122718759D02*
X221917291Y-122718759D01*
X222488720Y-122861616D02*
X222964910Y-122861616D01*
X222393482Y-123147331D02*
X222726815Y-122147331D01*
X222726815Y-122147331D02*
X223060148Y-123147331D01*
X223393482Y-123147331D02*
X223393482Y-122147331D01*
X223393482Y-122147331D02*
X223964910Y-123147331D01*
X223964910Y-123147331D02*
X223964910Y-122147331D01*
X225203006Y-122147331D02*
X225203006Y-122956854D01*
X225203006Y-122956854D02*
X225250625Y-123052092D01*
X225250625Y-123052092D02*
X225298244Y-123099712D01*
X225298244Y-123099712D02*
X225393482Y-123147331D01*
X225393482Y-123147331D02*
X225583958Y-123147331D01*
X225583958Y-123147331D02*
X225679196Y-123099712D01*
X225679196Y-123099712D02*
X225726815Y-123052092D01*
X225726815Y-123052092D02*
X225774434Y-122956854D01*
X225774434Y-122956854D02*
X225774434Y-122147331D01*
X226250625Y-123147331D02*
X226250625Y-122147331D01*
X226250625Y-122147331D02*
X226822053Y-123147331D01*
X226822053Y-123147331D02*
X226822053Y-122147331D01*
X227298244Y-123147331D02*
X227298244Y-122147331D01*
X227631577Y-122147331D02*
X227964910Y-123147331D01*
X227964910Y-123147331D02*
X228298243Y-122147331D01*
X228631577Y-122623521D02*
X228964910Y-122623521D01*
X229107767Y-123147331D02*
X228631577Y-123147331D01*
X228631577Y-123147331D02*
X228631577Y-122147331D01*
X228631577Y-122147331D02*
X229107767Y-122147331D01*
X230107767Y-123147331D02*
X229774434Y-122671140D01*
X229536339Y-123147331D02*
X229536339Y-122147331D01*
X229536339Y-122147331D02*
X229917291Y-122147331D01*
X229917291Y-122147331D02*
X230012529Y-122194950D01*
X230012529Y-122194950D02*
X230060148Y-122242569D01*
X230060148Y-122242569D02*
X230107767Y-122337807D01*
X230107767Y-122337807D02*
X230107767Y-122480664D01*
X230107767Y-122480664D02*
X230060148Y-122575902D01*
X230060148Y-122575902D02*
X230012529Y-122623521D01*
X230012529Y-122623521D02*
X229917291Y-122671140D01*
X229917291Y-122671140D02*
X229536339Y-122671140D01*
X230488720Y-123099712D02*
X230631577Y-123147331D01*
X230631577Y-123147331D02*
X230869672Y-123147331D01*
X230869672Y-123147331D02*
X230964910Y-123099712D01*
X230964910Y-123099712D02*
X231012529Y-123052092D01*
X231012529Y-123052092D02*
X231060148Y-122956854D01*
X231060148Y-122956854D02*
X231060148Y-122861616D01*
X231060148Y-122861616D02*
X231012529Y-122766378D01*
X231012529Y-122766378D02*
X230964910Y-122718759D01*
X230964910Y-122718759D02*
X230869672Y-122671140D01*
X230869672Y-122671140D02*
X230679196Y-122623521D01*
X230679196Y-122623521D02*
X230583958Y-122575902D01*
X230583958Y-122575902D02*
X230536339Y-122528283D01*
X230536339Y-122528283D02*
X230488720Y-122433045D01*
X230488720Y-122433045D02*
X230488720Y-122337807D01*
X230488720Y-122337807D02*
X230536339Y-122242569D01*
X230536339Y-122242569D02*
X230583958Y-122194950D01*
X230583958Y-122194950D02*
X230679196Y-122147331D01*
X230679196Y-122147331D02*
X230917291Y-122147331D01*
X230917291Y-122147331D02*
X231060148Y-122194950D01*
X231488720Y-123147331D02*
X231488720Y-122147331D01*
X231822053Y-122147331D02*
X232393481Y-122147331D01*
X232107767Y-123147331D02*
X232107767Y-122147331D01*
X232917291Y-122671140D02*
X232917291Y-123147331D01*
X232583958Y-122147331D02*
X232917291Y-122671140D01*
X232917291Y-122671140D02*
X233250624Y-122147331D01*
X209488722Y-123757275D02*
X209488722Y-124471560D01*
X209488722Y-124471560D02*
X209441103Y-124614417D01*
X209441103Y-124614417D02*
X209345865Y-124709656D01*
X209345865Y-124709656D02*
X209203008Y-124757275D01*
X209203008Y-124757275D02*
X209107770Y-124757275D01*
X210107770Y-124757275D02*
X210012532Y-124709656D01*
X210012532Y-124709656D02*
X209964913Y-124662036D01*
X209964913Y-124662036D02*
X209917294Y-124566798D01*
X209917294Y-124566798D02*
X209917294Y-124281084D01*
X209917294Y-124281084D02*
X209964913Y-124185846D01*
X209964913Y-124185846D02*
X210012532Y-124138227D01*
X210012532Y-124138227D02*
X210107770Y-124090608D01*
X210107770Y-124090608D02*
X210250627Y-124090608D01*
X210250627Y-124090608D02*
X210345865Y-124138227D01*
X210345865Y-124138227D02*
X210393484Y-124185846D01*
X210393484Y-124185846D02*
X210441103Y-124281084D01*
X210441103Y-124281084D02*
X210441103Y-124566798D01*
X210441103Y-124566798D02*
X210393484Y-124662036D01*
X210393484Y-124662036D02*
X210345865Y-124709656D01*
X210345865Y-124709656D02*
X210250627Y-124757275D01*
X210250627Y-124757275D02*
X210107770Y-124757275D01*
X210822056Y-124709656D02*
X210917294Y-124757275D01*
X210917294Y-124757275D02*
X211107770Y-124757275D01*
X211107770Y-124757275D02*
X211203008Y-124709656D01*
X211203008Y-124709656D02*
X211250627Y-124614417D01*
X211250627Y-124614417D02*
X211250627Y-124566798D01*
X211250627Y-124566798D02*
X211203008Y-124471560D01*
X211203008Y-124471560D02*
X211107770Y-124423941D01*
X211107770Y-124423941D02*
X210964913Y-124423941D01*
X210964913Y-124423941D02*
X210869675Y-124376322D01*
X210869675Y-124376322D02*
X210822056Y-124281084D01*
X210822056Y-124281084D02*
X210822056Y-124233465D01*
X210822056Y-124233465D02*
X210869675Y-124138227D01*
X210869675Y-124138227D02*
X210964913Y-124090608D01*
X210964913Y-124090608D02*
X211107770Y-124090608D01*
X211107770Y-124090608D02*
X211203008Y-124138227D01*
X211679199Y-124757275D02*
X211679199Y-123757275D01*
X212107770Y-124757275D02*
X212107770Y-124233465D01*
X212107770Y-124233465D02*
X212060151Y-124138227D01*
X212060151Y-124138227D02*
X211964913Y-124090608D01*
X211964913Y-124090608D02*
X211822056Y-124090608D01*
X211822056Y-124090608D02*
X211726818Y-124138227D01*
X211726818Y-124138227D02*
X211679199Y-124185846D01*
X213012532Y-124090608D02*
X213012532Y-124757275D01*
X212583961Y-124090608D02*
X212583961Y-124614417D01*
X212583961Y-124614417D02*
X212631580Y-124709656D01*
X212631580Y-124709656D02*
X212726818Y-124757275D01*
X212726818Y-124757275D02*
X212869675Y-124757275D01*
X212869675Y-124757275D02*
X212964913Y-124709656D01*
X212964913Y-124709656D02*
X213012532Y-124662036D01*
X213917294Y-124757275D02*
X213917294Y-124233465D01*
X213917294Y-124233465D02*
X213869675Y-124138227D01*
X213869675Y-124138227D02*
X213774437Y-124090608D01*
X213774437Y-124090608D02*
X213583961Y-124090608D01*
X213583961Y-124090608D02*
X213488723Y-124138227D01*
X213917294Y-124709656D02*
X213822056Y-124757275D01*
X213822056Y-124757275D02*
X213583961Y-124757275D01*
X213583961Y-124757275D02*
X213488723Y-124709656D01*
X213488723Y-124709656D02*
X213441104Y-124614417D01*
X213441104Y-124614417D02*
X213441104Y-124519179D01*
X213441104Y-124519179D02*
X213488723Y-124423941D01*
X213488723Y-124423941D02*
X213583961Y-124376322D01*
X213583961Y-124376322D02*
X213822056Y-124376322D01*
X213822056Y-124376322D02*
X213917294Y-124328703D01*
X215155390Y-124757275D02*
X215155390Y-123757275D01*
X215726818Y-124757275D02*
X215298247Y-124185846D01*
X215726818Y-123757275D02*
X215155390Y-124328703D01*
X216155390Y-124757275D02*
X216155390Y-124090608D01*
X216155390Y-124281084D02*
X216203009Y-124185846D01*
X216203009Y-124185846D02*
X216250628Y-124138227D01*
X216250628Y-124138227D02*
X216345866Y-124090608D01*
X216345866Y-124090608D02*
X216441104Y-124090608D01*
X217203009Y-124757275D02*
X217203009Y-124233465D01*
X217203009Y-124233465D02*
X217155390Y-124138227D01*
X217155390Y-124138227D02*
X217060152Y-124090608D01*
X217060152Y-124090608D02*
X216869676Y-124090608D01*
X216869676Y-124090608D02*
X216774438Y-124138227D01*
X217203009Y-124709656D02*
X217107771Y-124757275D01*
X217107771Y-124757275D02*
X216869676Y-124757275D01*
X216869676Y-124757275D02*
X216774438Y-124709656D01*
X216774438Y-124709656D02*
X216726819Y-124614417D01*
X216726819Y-124614417D02*
X216726819Y-124519179D01*
X216726819Y-124519179D02*
X216774438Y-124423941D01*
X216774438Y-124423941D02*
X216869676Y-124376322D01*
X216869676Y-124376322D02*
X217107771Y-124376322D01*
X217107771Y-124376322D02*
X217203009Y-124328703D01*
X218060152Y-124709656D02*
X217964914Y-124757275D01*
X217964914Y-124757275D02*
X217774438Y-124757275D01*
X217774438Y-124757275D02*
X217679200Y-124709656D01*
X217679200Y-124709656D02*
X217631581Y-124614417D01*
X217631581Y-124614417D02*
X217631581Y-124233465D01*
X217631581Y-124233465D02*
X217679200Y-124138227D01*
X217679200Y-124138227D02*
X217774438Y-124090608D01*
X217774438Y-124090608D02*
X217964914Y-124090608D01*
X217964914Y-124090608D02*
X218060152Y-124138227D01*
X218060152Y-124138227D02*
X218107771Y-124233465D01*
X218107771Y-124233465D02*
X218107771Y-124328703D01*
X218107771Y-124328703D02*
X217631581Y-124423941D01*
X218964914Y-124090608D02*
X218964914Y-124757275D01*
X218536343Y-124090608D02*
X218536343Y-124614417D01*
X218536343Y-124614417D02*
X218583962Y-124709656D01*
X218583962Y-124709656D02*
X218679200Y-124757275D01*
X218679200Y-124757275D02*
X218822057Y-124757275D01*
X218822057Y-124757275D02*
X218917295Y-124709656D01*
X218917295Y-124709656D02*
X218964914Y-124662036D01*
X219298248Y-124090608D02*
X219679200Y-124090608D01*
X219441105Y-123757275D02*
X219441105Y-124614417D01*
X219441105Y-124614417D02*
X219488724Y-124709656D01*
X219488724Y-124709656D02*
X219583962Y-124757275D01*
X219583962Y-124757275D02*
X219679200Y-124757275D01*
X220393486Y-124709656D02*
X220298248Y-124757275D01*
X220298248Y-124757275D02*
X220107772Y-124757275D01*
X220107772Y-124757275D02*
X220012534Y-124709656D01*
X220012534Y-124709656D02*
X219964915Y-124614417D01*
X219964915Y-124614417D02*
X219964915Y-124233465D01*
X219964915Y-124233465D02*
X220012534Y-124138227D01*
X220012534Y-124138227D02*
X220107772Y-124090608D01*
X220107772Y-124090608D02*
X220298248Y-124090608D01*
X220298248Y-124090608D02*
X220393486Y-124138227D01*
X220393486Y-124138227D02*
X220441105Y-124233465D01*
X220441105Y-124233465D02*
X220441105Y-124328703D01*
X220441105Y-124328703D02*
X219964915Y-124423941D01*
X220869677Y-124757275D02*
X220869677Y-124090608D01*
X220869677Y-124281084D02*
X220917296Y-124185846D01*
X220917296Y-124185846D02*
X220964915Y-124138227D01*
X220964915Y-124138227D02*
X221060153Y-124090608D01*
X221060153Y-124090608D02*
X221155391Y-124090608D01*
X223060154Y-124757275D02*
X223012535Y-124757275D01*
X223012535Y-124757275D02*
X222917296Y-124709656D01*
X222917296Y-124709656D02*
X222774439Y-124566798D01*
X222774439Y-124566798D02*
X222536344Y-124281084D01*
X222536344Y-124281084D02*
X222441106Y-124138227D01*
X222441106Y-124138227D02*
X222393487Y-123995370D01*
X222393487Y-123995370D02*
X222393487Y-123900132D01*
X222393487Y-123900132D02*
X222441106Y-123804894D01*
X222441106Y-123804894D02*
X222536344Y-123757275D01*
X222536344Y-123757275D02*
X222583963Y-123757275D01*
X222583963Y-123757275D02*
X222679201Y-123804894D01*
X222679201Y-123804894D02*
X222726820Y-123900132D01*
X222726820Y-123900132D02*
X222726820Y-123947751D01*
X222726820Y-123947751D02*
X222679201Y-124042989D01*
X222679201Y-124042989D02*
X222631582Y-124090608D01*
X222631582Y-124090608D02*
X222345868Y-124281084D01*
X222345868Y-124281084D02*
X222298249Y-124328703D01*
X222298249Y-124328703D02*
X222250630Y-124423941D01*
X222250630Y-124423941D02*
X222250630Y-124566798D01*
X222250630Y-124566798D02*
X222298249Y-124662036D01*
X222298249Y-124662036D02*
X222345868Y-124709656D01*
X222345868Y-124709656D02*
X222441106Y-124757275D01*
X222441106Y-124757275D02*
X222583963Y-124757275D01*
X222583963Y-124757275D02*
X222679201Y-124709656D01*
X222679201Y-124709656D02*
X222726820Y-124662036D01*
X222726820Y-124662036D02*
X222869677Y-124471560D01*
X222869677Y-124471560D02*
X222917296Y-124328703D01*
X222917296Y-124328703D02*
X222917296Y-124233465D01*
X224250630Y-124233465D02*
X224583963Y-124233465D01*
X224726820Y-124757275D02*
X224250630Y-124757275D01*
X224250630Y-124757275D02*
X224250630Y-123757275D01*
X224250630Y-123757275D02*
X224726820Y-123757275D01*
X225060154Y-124090608D02*
X225298249Y-124757275D01*
X225298249Y-124757275D02*
X225536344Y-124090608D01*
X226345868Y-124757275D02*
X226345868Y-124233465D01*
X226345868Y-124233465D02*
X226298249Y-124138227D01*
X226298249Y-124138227D02*
X226203011Y-124090608D01*
X226203011Y-124090608D02*
X226012535Y-124090608D01*
X226012535Y-124090608D02*
X225917297Y-124138227D01*
X226345868Y-124709656D02*
X226250630Y-124757275D01*
X226250630Y-124757275D02*
X226012535Y-124757275D01*
X226012535Y-124757275D02*
X225917297Y-124709656D01*
X225917297Y-124709656D02*
X225869678Y-124614417D01*
X225869678Y-124614417D02*
X225869678Y-124519179D01*
X225869678Y-124519179D02*
X225917297Y-124423941D01*
X225917297Y-124423941D02*
X226012535Y-124376322D01*
X226012535Y-124376322D02*
X226250630Y-124376322D01*
X226250630Y-124376322D02*
X226345868Y-124328703D01*
X226822059Y-124090608D02*
X226822059Y-124757275D01*
X226822059Y-124185846D02*
X226869678Y-124138227D01*
X226869678Y-124138227D02*
X226964916Y-124090608D01*
X226964916Y-124090608D02*
X227107773Y-124090608D01*
X227107773Y-124090608D02*
X227203011Y-124138227D01*
X227203011Y-124138227D02*
X227250630Y-124233465D01*
X227250630Y-124233465D02*
X227250630Y-124757275D01*
X228441107Y-124709656D02*
X228583964Y-124757275D01*
X228583964Y-124757275D02*
X228822059Y-124757275D01*
X228822059Y-124757275D02*
X228917297Y-124709656D01*
X228917297Y-124709656D02*
X228964916Y-124662036D01*
X228964916Y-124662036D02*
X229012535Y-124566798D01*
X229012535Y-124566798D02*
X229012535Y-124471560D01*
X229012535Y-124471560D02*
X228964916Y-124376322D01*
X228964916Y-124376322D02*
X228917297Y-124328703D01*
X228917297Y-124328703D02*
X228822059Y-124281084D01*
X228822059Y-124281084D02*
X228631583Y-124233465D01*
X228631583Y-124233465D02*
X228536345Y-124185846D01*
X228536345Y-124185846D02*
X228488726Y-124138227D01*
X228488726Y-124138227D02*
X228441107Y-124042989D01*
X228441107Y-124042989D02*
X228441107Y-123947751D01*
X228441107Y-123947751D02*
X228488726Y-123852513D01*
X228488726Y-123852513D02*
X228536345Y-123804894D01*
X228536345Y-123804894D02*
X228631583Y-123757275D01*
X228631583Y-123757275D02*
X228869678Y-123757275D01*
X228869678Y-123757275D02*
X229012535Y-123804894D01*
X229869678Y-124709656D02*
X229774440Y-124757275D01*
X229774440Y-124757275D02*
X229583964Y-124757275D01*
X229583964Y-124757275D02*
X229488726Y-124709656D01*
X229488726Y-124709656D02*
X229441107Y-124662036D01*
X229441107Y-124662036D02*
X229393488Y-124566798D01*
X229393488Y-124566798D02*
X229393488Y-124281084D01*
X229393488Y-124281084D02*
X229441107Y-124185846D01*
X229441107Y-124185846D02*
X229488726Y-124138227D01*
X229488726Y-124138227D02*
X229583964Y-124090608D01*
X229583964Y-124090608D02*
X229774440Y-124090608D01*
X229774440Y-124090608D02*
X229869678Y-124138227D01*
X230298250Y-124757275D02*
X230298250Y-123757275D01*
X230726821Y-124757275D02*
X230726821Y-124233465D01*
X230726821Y-124233465D02*
X230679202Y-124138227D01*
X230679202Y-124138227D02*
X230583964Y-124090608D01*
X230583964Y-124090608D02*
X230441107Y-124090608D01*
X230441107Y-124090608D02*
X230345869Y-124138227D01*
X230345869Y-124138227D02*
X230298250Y-124185846D01*
X231345869Y-124757275D02*
X231250631Y-124709656D01*
X231250631Y-124709656D02*
X231203012Y-124662036D01*
X231203012Y-124662036D02*
X231155393Y-124566798D01*
X231155393Y-124566798D02*
X231155393Y-124281084D01*
X231155393Y-124281084D02*
X231203012Y-124185846D01*
X231203012Y-124185846D02*
X231250631Y-124138227D01*
X231250631Y-124138227D02*
X231345869Y-124090608D01*
X231345869Y-124090608D02*
X231488726Y-124090608D01*
X231488726Y-124090608D02*
X231583964Y-124138227D01*
X231583964Y-124138227D02*
X231631583Y-124185846D01*
X231631583Y-124185846D02*
X231679202Y-124281084D01*
X231679202Y-124281084D02*
X231679202Y-124566798D01*
X231679202Y-124566798D02*
X231631583Y-124662036D01*
X231631583Y-124662036D02*
X231583964Y-124709656D01*
X231583964Y-124709656D02*
X231488726Y-124757275D01*
X231488726Y-124757275D02*
X231345869Y-124757275D01*
X232107774Y-124757275D02*
X232107774Y-123757275D01*
X232107774Y-124138227D02*
X232203012Y-124090608D01*
X232203012Y-124090608D02*
X232393488Y-124090608D01*
X232393488Y-124090608D02*
X232488726Y-124138227D01*
X232488726Y-124138227D02*
X232536345Y-124185846D01*
X232536345Y-124185846D02*
X232583964Y-124281084D01*
X232583964Y-124281084D02*
X232583964Y-124566798D01*
X232583964Y-124566798D02*
X232536345Y-124662036D01*
X232536345Y-124662036D02*
X232488726Y-124709656D01*
X232488726Y-124709656D02*
X232393488Y-124757275D01*
X232393488Y-124757275D02*
X232203012Y-124757275D01*
X232203012Y-124757275D02*
X232107774Y-124709656D01*
X233393488Y-124709656D02*
X233298250Y-124757275D01*
X233298250Y-124757275D02*
X233107774Y-124757275D01*
X233107774Y-124757275D02*
X233012536Y-124709656D01*
X233012536Y-124709656D02*
X232964917Y-124614417D01*
X232964917Y-124614417D02*
X232964917Y-124233465D01*
X232964917Y-124233465D02*
X233012536Y-124138227D01*
X233012536Y-124138227D02*
X233107774Y-124090608D01*
X233107774Y-124090608D02*
X233298250Y-124090608D01*
X233298250Y-124090608D02*
X233393488Y-124138227D01*
X233393488Y-124138227D02*
X233441107Y-124233465D01*
X233441107Y-124233465D02*
X233441107Y-124328703D01*
X233441107Y-124328703D02*
X232964917Y-124423941D01*
X233869679Y-124757275D02*
X233869679Y-124090608D01*
X233869679Y-124281084D02*
X233917298Y-124185846D01*
X233917298Y-124185846D02*
X233964917Y-124138227D01*
X233964917Y-124138227D02*
X234060155Y-124090608D01*
X234060155Y-124090608D02*
X234155393Y-124090608D01*
X216060153Y-125843409D02*
X216393486Y-125843409D01*
X216536343Y-126367219D02*
X216060153Y-126367219D01*
X216060153Y-126367219D02*
X216060153Y-125367219D01*
X216060153Y-125367219D02*
X216536343Y-125367219D01*
X217536343Y-126271980D02*
X217488724Y-126319600D01*
X217488724Y-126319600D02*
X217345867Y-126367219D01*
X217345867Y-126367219D02*
X217250629Y-126367219D01*
X217250629Y-126367219D02*
X217107772Y-126319600D01*
X217107772Y-126319600D02*
X217012534Y-126224361D01*
X217012534Y-126224361D02*
X216964915Y-126129123D01*
X216964915Y-126129123D02*
X216917296Y-125938647D01*
X216917296Y-125938647D02*
X216917296Y-125795790D01*
X216917296Y-125795790D02*
X216964915Y-125605314D01*
X216964915Y-125605314D02*
X217012534Y-125510076D01*
X217012534Y-125510076D02*
X217107772Y-125414838D01*
X217107772Y-125414838D02*
X217250629Y-125367219D01*
X217250629Y-125367219D02*
X217345867Y-125367219D01*
X217345867Y-125367219D02*
X217488724Y-125414838D01*
X217488724Y-125414838D02*
X217536343Y-125462457D01*
X217964915Y-125843409D02*
X218298248Y-125843409D01*
X218441105Y-126367219D02*
X217964915Y-126367219D01*
X217964915Y-126367219D02*
X217964915Y-125367219D01*
X217964915Y-125367219D02*
X218441105Y-125367219D01*
X220060153Y-125700552D02*
X220060153Y-126367219D01*
X219822058Y-125319600D02*
X219583963Y-126033885D01*
X219583963Y-126033885D02*
X220203010Y-126033885D01*
X220726820Y-125795790D02*
X220631582Y-125748171D01*
X220631582Y-125748171D02*
X220583963Y-125700552D01*
X220583963Y-125700552D02*
X220536344Y-125605314D01*
X220536344Y-125605314D02*
X220536344Y-125557695D01*
X220536344Y-125557695D02*
X220583963Y-125462457D01*
X220583963Y-125462457D02*
X220631582Y-125414838D01*
X220631582Y-125414838D02*
X220726820Y-125367219D01*
X220726820Y-125367219D02*
X220917296Y-125367219D01*
X220917296Y-125367219D02*
X221012534Y-125414838D01*
X221012534Y-125414838D02*
X221060153Y-125462457D01*
X221060153Y-125462457D02*
X221107772Y-125557695D01*
X221107772Y-125557695D02*
X221107772Y-125605314D01*
X221107772Y-125605314D02*
X221060153Y-125700552D01*
X221060153Y-125700552D02*
X221012534Y-125748171D01*
X221012534Y-125748171D02*
X220917296Y-125795790D01*
X220917296Y-125795790D02*
X220726820Y-125795790D01*
X220726820Y-125795790D02*
X220631582Y-125843409D01*
X220631582Y-125843409D02*
X220583963Y-125891028D01*
X220583963Y-125891028D02*
X220536344Y-125986266D01*
X220536344Y-125986266D02*
X220536344Y-126176742D01*
X220536344Y-126176742D02*
X220583963Y-126271980D01*
X220583963Y-126271980D02*
X220631582Y-126319600D01*
X220631582Y-126319600D02*
X220726820Y-126367219D01*
X220726820Y-126367219D02*
X220917296Y-126367219D01*
X220917296Y-126367219D02*
X221012534Y-126319600D01*
X221012534Y-126319600D02*
X221060153Y-126271980D01*
X221060153Y-126271980D02*
X221107772Y-126176742D01*
X221107772Y-126176742D02*
X221107772Y-125986266D01*
X221107772Y-125986266D02*
X221060153Y-125891028D01*
X221060153Y-125891028D02*
X221012534Y-125843409D01*
X221012534Y-125843409D02*
X220917296Y-125795790D01*
X221488725Y-125462457D02*
X221536344Y-125414838D01*
X221536344Y-125414838D02*
X221631582Y-125367219D01*
X221631582Y-125367219D02*
X221869677Y-125367219D01*
X221869677Y-125367219D02*
X221964915Y-125414838D01*
X221964915Y-125414838D02*
X222012534Y-125462457D01*
X222012534Y-125462457D02*
X222060153Y-125557695D01*
X222060153Y-125557695D02*
X222060153Y-125652933D01*
X222060153Y-125652933D02*
X222012534Y-125795790D01*
X222012534Y-125795790D02*
X221441106Y-126367219D01*
X221441106Y-126367219D02*
X222060153Y-126367219D01*
X222679201Y-125367219D02*
X222774439Y-125367219D01*
X222774439Y-125367219D02*
X222869677Y-125414838D01*
X222869677Y-125414838D02*
X222917296Y-125462457D01*
X222917296Y-125462457D02*
X222964915Y-125557695D01*
X222964915Y-125557695D02*
X223012534Y-125748171D01*
X223012534Y-125748171D02*
X223012534Y-125986266D01*
X223012534Y-125986266D02*
X222964915Y-126176742D01*
X222964915Y-126176742D02*
X222917296Y-126271980D01*
X222917296Y-126271980D02*
X222869677Y-126319600D01*
X222869677Y-126319600D02*
X222774439Y-126367219D01*
X222774439Y-126367219D02*
X222679201Y-126367219D01*
X222679201Y-126367219D02*
X222583963Y-126319600D01*
X222583963Y-126319600D02*
X222536344Y-126271980D01*
X222536344Y-126271980D02*
X222488725Y-126176742D01*
X222488725Y-126176742D02*
X222441106Y-125986266D01*
X222441106Y-125986266D02*
X222441106Y-125748171D01*
X222441106Y-125748171D02*
X222488725Y-125557695D01*
X222488725Y-125557695D02*
X222536344Y-125462457D01*
X222536344Y-125462457D02*
X222583963Y-125414838D01*
X222583963Y-125414838D02*
X222679201Y-125367219D01*
X224536344Y-125843409D02*
X224203011Y-125843409D01*
X224203011Y-126367219D02*
X224203011Y-125367219D01*
X224203011Y-125367219D02*
X224679201Y-125367219D01*
X225107773Y-125367219D02*
X225012535Y-125557695D01*
X225488725Y-125462457D02*
X225536344Y-125414838D01*
X225536344Y-125414838D02*
X225631582Y-125367219D01*
X225631582Y-125367219D02*
X225869677Y-125367219D01*
X225869677Y-125367219D02*
X225964915Y-125414838D01*
X225964915Y-125414838D02*
X226012534Y-125462457D01*
X226012534Y-125462457D02*
X226060153Y-125557695D01*
X226060153Y-125557695D02*
X226060153Y-125652933D01*
X226060153Y-125652933D02*
X226012534Y-125795790D01*
X226012534Y-125795790D02*
X225441106Y-126367219D01*
X225441106Y-126367219D02*
X226060153Y-126367219D01*
X226917296Y-125700552D02*
X226917296Y-126367219D01*
X226679201Y-125319600D02*
X226441106Y-126033885D01*
X226441106Y-126033885D02*
X227060153Y-126033885D01*
D12*
X210669116Y-148238172D02*
X210669116Y-147761952D01*
X210954849Y-148333416D02*
X209954786Y-148000062D01*
X209954786Y-148000062D02*
X210954849Y-147666708D01*
X210954849Y-147333353D02*
X209954786Y-147333353D01*
X209954786Y-147333353D02*
X209954786Y-147095243D01*
X209954786Y-147095243D02*
X210002408Y-146952377D01*
X210002408Y-146952377D02*
X210097652Y-146857133D01*
X210097652Y-146857133D02*
X210192896Y-146809511D01*
X210192896Y-146809511D02*
X210383384Y-146761889D01*
X210383384Y-146761889D02*
X210526250Y-146761889D01*
X210526250Y-146761889D02*
X210716738Y-146809511D01*
X210716738Y-146809511D02*
X210811982Y-146857133D01*
X210811982Y-146857133D02*
X210907227Y-146952377D01*
X210907227Y-146952377D02*
X210954849Y-147095243D01*
X210954849Y-147095243D02*
X210954849Y-147333353D01*
X210859604Y-145761826D02*
X210907227Y-145809448D01*
X210907227Y-145809448D02*
X210954849Y-145952314D01*
X210954849Y-145952314D02*
X210954849Y-146047558D01*
X210954849Y-146047558D02*
X210907227Y-146190424D01*
X210907227Y-146190424D02*
X210811982Y-146285668D01*
X210811982Y-146285668D02*
X210716738Y-146333290D01*
X210716738Y-146333290D02*
X210526250Y-146380912D01*
X210526250Y-146380912D02*
X210383384Y-146380912D01*
X210383384Y-146380912D02*
X210192896Y-146333290D01*
X210192896Y-146333290D02*
X210097652Y-146285668D01*
X210097652Y-146285668D02*
X210002408Y-146190424D01*
X210002408Y-146190424D02*
X209954786Y-146047558D01*
X209954786Y-146047558D02*
X209954786Y-145952314D01*
X209954786Y-145952314D02*
X210002408Y-145809448D01*
X210002408Y-145809448D02*
X210050030Y-145761826D01*
X237577619Y-153534819D02*
X238149047Y-153534819D01*
X237863333Y-154534819D02*
X237863333Y-153534819D01*
X238863333Y-154487200D02*
X238768095Y-154534819D01*
X238768095Y-154534819D02*
X238577619Y-154534819D01*
X238577619Y-154534819D02*
X238482381Y-154487200D01*
X238482381Y-154487200D02*
X238434762Y-154391961D01*
X238434762Y-154391961D02*
X238434762Y-154011009D01*
X238434762Y-154011009D02*
X238482381Y-153915771D01*
X238482381Y-153915771D02*
X238577619Y-153868152D01*
X238577619Y-153868152D02*
X238768095Y-153868152D01*
X238768095Y-153868152D02*
X238863333Y-153915771D01*
X238863333Y-153915771D02*
X238910952Y-154011009D01*
X238910952Y-154011009D02*
X238910952Y-154106247D01*
X238910952Y-154106247D02*
X238434762Y-154201485D01*
X239720476Y-154487200D02*
X239625238Y-154534819D01*
X239625238Y-154534819D02*
X239434762Y-154534819D01*
X239434762Y-154534819D02*
X239339524Y-154487200D01*
X239339524Y-154487200D02*
X239291905Y-154391961D01*
X239291905Y-154391961D02*
X239291905Y-154011009D01*
X239291905Y-154011009D02*
X239339524Y-153915771D01*
X239339524Y-153915771D02*
X239434762Y-153868152D01*
X239434762Y-153868152D02*
X239625238Y-153868152D01*
X239625238Y-153868152D02*
X239720476Y-153915771D01*
X239720476Y-153915771D02*
X239768095Y-154011009D01*
X239768095Y-154011009D02*
X239768095Y-154106247D01*
X239768095Y-154106247D02*
X239291905Y-154201485D01*
X240196667Y-153868152D02*
X240196667Y-154534819D01*
X240196667Y-153963390D02*
X240244286Y-153915771D01*
X240244286Y-153915771D02*
X240339524Y-153868152D01*
X240339524Y-153868152D02*
X240482381Y-153868152D01*
X240482381Y-153868152D02*
X240577619Y-153915771D01*
X240577619Y-153915771D02*
X240625238Y-154011009D01*
X240625238Y-154011009D02*
X240625238Y-154534819D01*
X241053810Y-154487200D02*
X241149048Y-154534819D01*
X241149048Y-154534819D02*
X241339524Y-154534819D01*
X241339524Y-154534819D02*
X241434762Y-154487200D01*
X241434762Y-154487200D02*
X241482381Y-154391961D01*
X241482381Y-154391961D02*
X241482381Y-154344342D01*
X241482381Y-154344342D02*
X241434762Y-154249104D01*
X241434762Y-154249104D02*
X241339524Y-154201485D01*
X241339524Y-154201485D02*
X241196667Y-154201485D01*
X241196667Y-154201485D02*
X241101429Y-154153866D01*
X241101429Y-154153866D02*
X241053810Y-154058628D01*
X241053810Y-154058628D02*
X241053810Y-154011009D01*
X241053810Y-154011009D02*
X241101429Y-153915771D01*
X241101429Y-153915771D02*
X241196667Y-153868152D01*
X241196667Y-153868152D02*
X241339524Y-153868152D01*
X241339524Y-153868152D02*
X241434762Y-153915771D01*
X241815715Y-153868152D02*
X242053810Y-154534819D01*
X242291905Y-153868152D02*
X242053810Y-154534819D01*
X242053810Y-154534819D02*
X241958572Y-154772914D01*
X241958572Y-154772914D02*
X241910953Y-154820533D01*
X241910953Y-154820533D02*
X241815715Y-154868152D01*
X243863334Y-153868152D02*
X243863334Y-154534819D01*
X243625239Y-153487200D02*
X243387144Y-154201485D01*
X243387144Y-154201485D02*
X244006191Y-154201485D01*
X244387144Y-154439580D02*
X244434763Y-154487200D01*
X244434763Y-154487200D02*
X244387144Y-154534819D01*
X244387144Y-154534819D02*
X244339525Y-154487200D01*
X244339525Y-154487200D02*
X244387144Y-154439580D01*
X244387144Y-154439580D02*
X244387144Y-154534819D01*
X245053810Y-153534819D02*
X245149048Y-153534819D01*
X245149048Y-153534819D02*
X245244286Y-153582438D01*
X245244286Y-153582438D02*
X245291905Y-153630057D01*
X245291905Y-153630057D02*
X245339524Y-153725295D01*
X245339524Y-153725295D02*
X245387143Y-153915771D01*
X245387143Y-153915771D02*
X245387143Y-154153866D01*
X245387143Y-154153866D02*
X245339524Y-154344342D01*
X245339524Y-154344342D02*
X245291905Y-154439580D01*
X245291905Y-154439580D02*
X245244286Y-154487200D01*
X245244286Y-154487200D02*
X245149048Y-154534819D01*
X245149048Y-154534819D02*
X245053810Y-154534819D01*
X245053810Y-154534819D02*
X244958572Y-154487200D01*
X244958572Y-154487200D02*
X244910953Y-154439580D01*
X244910953Y-154439580D02*
X244863334Y-154344342D01*
X244863334Y-154344342D02*
X244815715Y-154153866D01*
X244815715Y-154153866D02*
X244815715Y-153915771D01*
X244815715Y-153915771D02*
X244863334Y-153725295D01*
X244863334Y-153725295D02*
X244910953Y-153630057D01*
X244910953Y-153630057D02*
X244958572Y-153582438D01*
X244958572Y-153582438D02*
X245053810Y-153534819D01*
X241592033Y-147003333D02*
X240892033Y-147003333D01*
X240892033Y-147003333D02*
X241392033Y-146770000D01*
X241392033Y-146770000D02*
X240892033Y-146536666D01*
X240892033Y-146536666D02*
X241592033Y-146536666D01*
X241592033Y-146203333D02*
X240892033Y-146203333D01*
X241592033Y-145870000D02*
X240892033Y-145870000D01*
X240892033Y-145870000D02*
X241392033Y-145636667D01*
X241392033Y-145636667D02*
X240892033Y-145403333D01*
X240892033Y-145403333D02*
X241592033Y-145403333D01*
X240892033Y-145136667D02*
X241592033Y-144670000D01*
X240892033Y-144670000D02*
X241592033Y-145136667D01*
X241592033Y-144003333D02*
X241258700Y-144236666D01*
X241592033Y-144403333D02*
X240892033Y-144403333D01*
X240892033Y-144403333D02*
X240892033Y-144136666D01*
X240892033Y-144136666D02*
X240925366Y-144070000D01*
X240925366Y-144070000D02*
X240958700Y-144036666D01*
X240958700Y-144036666D02*
X241025366Y-144003333D01*
X241025366Y-144003333D02*
X241125366Y-144003333D01*
X241125366Y-144003333D02*
X241192033Y-144036666D01*
X241192033Y-144036666D02*
X241225366Y-144070000D01*
X241225366Y-144070000D02*
X241258700Y-144136666D01*
X241258700Y-144136666D02*
X241258700Y-144403333D01*
X240892033Y-143803333D02*
X240892033Y-143403333D01*
X241592033Y-143603333D02*
X240892033Y-143603333D01*
X241592033Y-142803333D02*
X241592033Y-143203333D01*
X241592033Y-143003333D02*
X240892033Y-143003333D01*
X240892033Y-143003333D02*
X240992033Y-143070000D01*
X240992033Y-143070000D02*
X241058700Y-143136667D01*
X241058700Y-143136667D02*
X241092033Y-143203333D01*
X240892033Y-142370000D02*
X240892033Y-142303333D01*
X240892033Y-142303333D02*
X240925366Y-142236666D01*
X240925366Y-142236666D02*
X240958700Y-142203333D01*
X240958700Y-142203333D02*
X241025366Y-142170000D01*
X241025366Y-142170000D02*
X241158700Y-142136666D01*
X241158700Y-142136666D02*
X241325366Y-142136666D01*
X241325366Y-142136666D02*
X241458700Y-142170000D01*
X241458700Y-142170000D02*
X241525366Y-142203333D01*
X241525366Y-142203333D02*
X241558700Y-142236666D01*
X241558700Y-142236666D02*
X241592033Y-142303333D01*
X241592033Y-142303333D02*
X241592033Y-142370000D01*
X241592033Y-142370000D02*
X241558700Y-142436666D01*
X241558700Y-142436666D02*
X241525366Y-142470000D01*
X241525366Y-142470000D02*
X241458700Y-142503333D01*
X241458700Y-142503333D02*
X241325366Y-142536666D01*
X241325366Y-142536666D02*
X241158700Y-142536666D01*
X241158700Y-142536666D02*
X241025366Y-142503333D01*
X241025366Y-142503333D02*
X240958700Y-142470000D01*
X240958700Y-142470000D02*
X240925366Y-142436666D01*
X240925366Y-142436666D02*
X240892033Y-142370000D01*
X240892033Y-141536666D02*
X240892033Y-141669999D01*
X240892033Y-141669999D02*
X240925366Y-141736666D01*
X240925366Y-141736666D02*
X240958700Y-141769999D01*
X240958700Y-141769999D02*
X241058700Y-141836666D01*
X241058700Y-141836666D02*
X241192033Y-141869999D01*
X241192033Y-141869999D02*
X241458700Y-141869999D01*
X241458700Y-141869999D02*
X241525366Y-141836666D01*
X241525366Y-141836666D02*
X241558700Y-141803333D01*
X241558700Y-141803333D02*
X241592033Y-141736666D01*
X241592033Y-141736666D02*
X241592033Y-141603333D01*
X241592033Y-141603333D02*
X241558700Y-141536666D01*
X241558700Y-141536666D02*
X241525366Y-141503333D01*
X241525366Y-141503333D02*
X241458700Y-141469999D01*
X241458700Y-141469999D02*
X241292033Y-141469999D01*
X241292033Y-141469999D02*
X241225366Y-141503333D01*
X241225366Y-141503333D02*
X241192033Y-141536666D01*
X241192033Y-141536666D02*
X241158700Y-141603333D01*
X241158700Y-141603333D02*
X241158700Y-141736666D01*
X241158700Y-141736666D02*
X241192033Y-141803333D01*
X241192033Y-141803333D02*
X241225366Y-141836666D01*
X241225366Y-141836666D02*
X241292033Y-141869999D01*
X240958700Y-141203332D02*
X240925366Y-141169999D01*
X240925366Y-141169999D02*
X240892033Y-141103332D01*
X240892033Y-141103332D02*
X240892033Y-140936666D01*
X240892033Y-140936666D02*
X240925366Y-140869999D01*
X240925366Y-140869999D02*
X240958700Y-140836666D01*
X240958700Y-140836666D02*
X241025366Y-140803332D01*
X241025366Y-140803332D02*
X241092033Y-140803332D01*
X241092033Y-140803332D02*
X241192033Y-140836666D01*
X241192033Y-140836666D02*
X241592033Y-141236666D01*
X241592033Y-141236666D02*
X241592033Y-140803332D01*
X240068033Y-145320000D02*
X239368033Y-145320000D01*
X239368033Y-145320000D02*
X239368033Y-145153333D01*
X239368033Y-145153333D02*
X239401366Y-145053333D01*
X239401366Y-145053333D02*
X239468033Y-144986667D01*
X239468033Y-144986667D02*
X239534700Y-144953333D01*
X239534700Y-144953333D02*
X239668033Y-144920000D01*
X239668033Y-144920000D02*
X239768033Y-144920000D01*
X239768033Y-144920000D02*
X239901366Y-144953333D01*
X239901366Y-144953333D02*
X239968033Y-144986667D01*
X239968033Y-144986667D02*
X240034700Y-145053333D01*
X240034700Y-145053333D02*
X240068033Y-145153333D01*
X240068033Y-145153333D02*
X240068033Y-145320000D01*
X239368033Y-144720000D02*
X240068033Y-144486667D01*
X240068033Y-144486667D02*
X239368033Y-144253333D01*
X240068033Y-143686667D02*
X240068033Y-144020000D01*
X240068033Y-144020000D02*
X239368033Y-144020000D01*
X239368033Y-143153333D02*
X239368033Y-143286666D01*
X239368033Y-143286666D02*
X239401366Y-143353333D01*
X239401366Y-143353333D02*
X239434700Y-143386666D01*
X239434700Y-143386666D02*
X239534700Y-143453333D01*
X239534700Y-143453333D02*
X239668033Y-143486666D01*
X239668033Y-143486666D02*
X239934700Y-143486666D01*
X239934700Y-143486666D02*
X240001366Y-143453333D01*
X240001366Y-143453333D02*
X240034700Y-143420000D01*
X240034700Y-143420000D02*
X240068033Y-143353333D01*
X240068033Y-143353333D02*
X240068033Y-143220000D01*
X240068033Y-143220000D02*
X240034700Y-143153333D01*
X240034700Y-143153333D02*
X240001366Y-143120000D01*
X240001366Y-143120000D02*
X239934700Y-143086666D01*
X239934700Y-143086666D02*
X239768033Y-143086666D01*
X239768033Y-143086666D02*
X239701366Y-143120000D01*
X239701366Y-143120000D02*
X239668033Y-143153333D01*
X239668033Y-143153333D02*
X239634700Y-143220000D01*
X239634700Y-143220000D02*
X239634700Y-143353333D01*
X239634700Y-143353333D02*
X239668033Y-143420000D01*
X239668033Y-143420000D02*
X239701366Y-143453333D01*
X239701366Y-143453333D02*
X239768033Y-143486666D01*
X239868033Y-142819999D02*
X239868033Y-142486666D01*
X240068033Y-142886666D02*
X239368033Y-142653333D01*
X239368033Y-142653333D02*
X240068033Y-142419999D01*
X221595714Y-95454819D02*
X221119524Y-95454819D01*
X221119524Y-95454819D02*
X221071905Y-95931009D01*
X221071905Y-95931009D02*
X221119524Y-95883390D01*
X221119524Y-95883390D02*
X221214762Y-95835771D01*
X221214762Y-95835771D02*
X221452857Y-95835771D01*
X221452857Y-95835771D02*
X221548095Y-95883390D01*
X221548095Y-95883390D02*
X221595714Y-95931009D01*
X221595714Y-95931009D02*
X221643333Y-96026247D01*
X221643333Y-96026247D02*
X221643333Y-96264342D01*
X221643333Y-96264342D02*
X221595714Y-96359580D01*
X221595714Y-96359580D02*
X221548095Y-96407200D01*
X221548095Y-96407200D02*
X221452857Y-96454819D01*
X221452857Y-96454819D02*
X221214762Y-96454819D01*
X221214762Y-96454819D02*
X221119524Y-96407200D01*
X221119524Y-96407200D02*
X221071905Y-96359580D01*
X222262381Y-95454819D02*
X222357619Y-95454819D01*
X222357619Y-95454819D02*
X222452857Y-95502438D01*
X222452857Y-95502438D02*
X222500476Y-95550057D01*
X222500476Y-95550057D02*
X222548095Y-95645295D01*
X222548095Y-95645295D02*
X222595714Y-95835771D01*
X222595714Y-95835771D02*
X222595714Y-96073866D01*
X222595714Y-96073866D02*
X222548095Y-96264342D01*
X222548095Y-96264342D02*
X222500476Y-96359580D01*
X222500476Y-96359580D02*
X222452857Y-96407200D01*
X222452857Y-96407200D02*
X222357619Y-96454819D01*
X222357619Y-96454819D02*
X222262381Y-96454819D01*
X222262381Y-96454819D02*
X222167143Y-96407200D01*
X222167143Y-96407200D02*
X222119524Y-96359580D01*
X222119524Y-96359580D02*
X222071905Y-96264342D01*
X222071905Y-96264342D02*
X222024286Y-96073866D01*
X222024286Y-96073866D02*
X222024286Y-95835771D01*
X222024286Y-95835771D02*
X222071905Y-95645295D01*
X222071905Y-95645295D02*
X222119524Y-95550057D01*
X222119524Y-95550057D02*
X222167143Y-95502438D01*
X222167143Y-95502438D02*
X222262381Y-95454819D01*
X223214762Y-95454819D02*
X223310000Y-95454819D01*
X223310000Y-95454819D02*
X223405238Y-95502438D01*
X223405238Y-95502438D02*
X223452857Y-95550057D01*
X223452857Y-95550057D02*
X223500476Y-95645295D01*
X223500476Y-95645295D02*
X223548095Y-95835771D01*
X223548095Y-95835771D02*
X223548095Y-96073866D01*
X223548095Y-96073866D02*
X223500476Y-96264342D01*
X223500476Y-96264342D02*
X223452857Y-96359580D01*
X223452857Y-96359580D02*
X223405238Y-96407200D01*
X223405238Y-96407200D02*
X223310000Y-96454819D01*
X223310000Y-96454819D02*
X223214762Y-96454819D01*
X223214762Y-96454819D02*
X223119524Y-96407200D01*
X223119524Y-96407200D02*
X223071905Y-96359580D01*
X223071905Y-96359580D02*
X223024286Y-96264342D01*
X223024286Y-96264342D02*
X222976667Y-96073866D01*
X222976667Y-96073866D02*
X222976667Y-95835771D01*
X222976667Y-95835771D02*
X223024286Y-95645295D01*
X223024286Y-95645295D02*
X223071905Y-95550057D01*
X223071905Y-95550057D02*
X223119524Y-95502438D01*
X223119524Y-95502438D02*
X223214762Y-95454819D01*
X223976667Y-96454819D02*
X223976667Y-95454819D01*
X224548095Y-96454819D02*
X224119524Y-95883390D01*
X224548095Y-95454819D02*
X223976667Y-96026247D01*
X241249580Y-127186666D02*
X241297200Y-127234285D01*
X241297200Y-127234285D02*
X241344819Y-127377142D01*
X241344819Y-127377142D02*
X241344819Y-127472380D01*
X241344819Y-127472380D02*
X241297200Y-127615237D01*
X241297200Y-127615237D02*
X241201961Y-127710475D01*
X241201961Y-127710475D02*
X241106723Y-127758094D01*
X241106723Y-127758094D02*
X240916247Y-127805713D01*
X240916247Y-127805713D02*
X240773390Y-127805713D01*
X240773390Y-127805713D02*
X240582914Y-127758094D01*
X240582914Y-127758094D02*
X240487676Y-127710475D01*
X240487676Y-127710475D02*
X240392438Y-127615237D01*
X240392438Y-127615237D02*
X240344819Y-127472380D01*
X240344819Y-127472380D02*
X240344819Y-127377142D01*
X240344819Y-127377142D02*
X240392438Y-127234285D01*
X240392438Y-127234285D02*
X240440057Y-127186666D01*
X240440057Y-126805713D02*
X240392438Y-126758094D01*
X240392438Y-126758094D02*
X240344819Y-126662856D01*
X240344819Y-126662856D02*
X240344819Y-126424761D01*
X240344819Y-126424761D02*
X240392438Y-126329523D01*
X240392438Y-126329523D02*
X240440057Y-126281904D01*
X240440057Y-126281904D02*
X240535295Y-126234285D01*
X240535295Y-126234285D02*
X240630533Y-126234285D01*
X240630533Y-126234285D02*
X240773390Y-126281904D01*
X240773390Y-126281904D02*
X241344819Y-126853332D01*
X241344819Y-126853332D02*
X241344819Y-126234285D01*
X228952381Y-94431009D02*
X229285714Y-94431009D01*
X229428571Y-94954819D02*
X228952381Y-94954819D01*
X228952381Y-94954819D02*
X228952381Y-93954819D01*
X228952381Y-93954819D02*
X229428571Y-93954819D01*
X229809524Y-94907200D02*
X229952381Y-94954819D01*
X229952381Y-94954819D02*
X230190476Y-94954819D01*
X230190476Y-94954819D02*
X230285714Y-94907200D01*
X230285714Y-94907200D02*
X230333333Y-94859580D01*
X230333333Y-94859580D02*
X230380952Y-94764342D01*
X230380952Y-94764342D02*
X230380952Y-94669104D01*
X230380952Y-94669104D02*
X230333333Y-94573866D01*
X230333333Y-94573866D02*
X230285714Y-94526247D01*
X230285714Y-94526247D02*
X230190476Y-94478628D01*
X230190476Y-94478628D02*
X230000000Y-94431009D01*
X230000000Y-94431009D02*
X229904762Y-94383390D01*
X229904762Y-94383390D02*
X229857143Y-94335771D01*
X229857143Y-94335771D02*
X229809524Y-94240533D01*
X229809524Y-94240533D02*
X229809524Y-94145295D01*
X229809524Y-94145295D02*
X229857143Y-94050057D01*
X229857143Y-94050057D02*
X229904762Y-94002438D01*
X229904762Y-94002438D02*
X230000000Y-93954819D01*
X230000000Y-93954819D02*
X230238095Y-93954819D01*
X230238095Y-93954819D02*
X230380952Y-94002438D01*
X231380952Y-94859580D02*
X231333333Y-94907200D01*
X231333333Y-94907200D02*
X231190476Y-94954819D01*
X231190476Y-94954819D02*
X231095238Y-94954819D01*
X231095238Y-94954819D02*
X230952381Y-94907200D01*
X230952381Y-94907200D02*
X230857143Y-94811961D01*
X230857143Y-94811961D02*
X230809524Y-94716723D01*
X230809524Y-94716723D02*
X230761905Y-94526247D01*
X230761905Y-94526247D02*
X230761905Y-94383390D01*
X230761905Y-94383390D02*
X230809524Y-94192914D01*
X230809524Y-94192914D02*
X230857143Y-94097676D01*
X230857143Y-94097676D02*
X230952381Y-94002438D01*
X230952381Y-94002438D02*
X231095238Y-93954819D01*
X231095238Y-93954819D02*
X231190476Y-93954819D01*
X231190476Y-93954819D02*
X231333333Y-94002438D01*
X231333333Y-94002438D02*
X231380952Y-94050057D01*
X233047619Y-93954819D02*
X232571429Y-93954819D01*
X232571429Y-93954819D02*
X232523810Y-94431009D01*
X232523810Y-94431009D02*
X232571429Y-94383390D01*
X232571429Y-94383390D02*
X232666667Y-94335771D01*
X232666667Y-94335771D02*
X232904762Y-94335771D01*
X232904762Y-94335771D02*
X233000000Y-94383390D01*
X233000000Y-94383390D02*
X233047619Y-94431009D01*
X233047619Y-94431009D02*
X233095238Y-94526247D01*
X233095238Y-94526247D02*
X233095238Y-94764342D01*
X233095238Y-94764342D02*
X233047619Y-94859580D01*
X233047619Y-94859580D02*
X233000000Y-94907200D01*
X233000000Y-94907200D02*
X232904762Y-94954819D01*
X232904762Y-94954819D02*
X232666667Y-94954819D01*
X232666667Y-94954819D02*
X232571429Y-94907200D01*
X232571429Y-94907200D02*
X232523810Y-94859580D01*
X233380953Y-93954819D02*
X233714286Y-94954819D01*
X233714286Y-94954819D02*
X234047619Y-93954819D01*
X235142858Y-94954819D02*
X235142858Y-93954819D01*
X235619048Y-94288152D02*
X235619048Y-94954819D01*
X235619048Y-94383390D02*
X235666667Y-94335771D01*
X235666667Y-94335771D02*
X235761905Y-94288152D01*
X235761905Y-94288152D02*
X235904762Y-94288152D01*
X235904762Y-94288152D02*
X236000000Y-94335771D01*
X236000000Y-94335771D02*
X236047619Y-94431009D01*
X236047619Y-94431009D02*
X236047619Y-94954819D01*
X241249580Y-115989366D02*
X241297200Y-116036985D01*
X241297200Y-116036985D02*
X241344819Y-116179842D01*
X241344819Y-116179842D02*
X241344819Y-116275080D01*
X241344819Y-116275080D02*
X241297200Y-116417937D01*
X241297200Y-116417937D02*
X241201961Y-116513175D01*
X241201961Y-116513175D02*
X241106723Y-116560794D01*
X241106723Y-116560794D02*
X240916247Y-116608413D01*
X240916247Y-116608413D02*
X240773390Y-116608413D01*
X240773390Y-116608413D02*
X240582914Y-116560794D01*
X240582914Y-116560794D02*
X240487676Y-116513175D01*
X240487676Y-116513175D02*
X240392438Y-116417937D01*
X240392438Y-116417937D02*
X240344819Y-116275080D01*
X240344819Y-116275080D02*
X240344819Y-116179842D01*
X240344819Y-116179842D02*
X240392438Y-116036985D01*
X240392438Y-116036985D02*
X240440057Y-115989366D01*
X241344819Y-115036985D02*
X241344819Y-115608413D01*
X241344819Y-115322699D02*
X240344819Y-115322699D01*
X240344819Y-115322699D02*
X240487676Y-115417937D01*
X240487676Y-115417937D02*
X240582914Y-115513175D01*
X240582914Y-115513175D02*
X240630533Y-115608413D01*
D10*
X222261904Y-93433609D02*
X222404761Y-93481228D01*
X222404761Y-93481228D02*
X222452380Y-93528847D01*
X222452380Y-93528847D02*
X222499999Y-93624085D01*
X222499999Y-93624085D02*
X222499999Y-93766942D01*
X222499999Y-93766942D02*
X222452380Y-93862180D01*
X222452380Y-93862180D02*
X222404761Y-93909800D01*
X222404761Y-93909800D02*
X222309523Y-93957419D01*
X222309523Y-93957419D02*
X221928571Y-93957419D01*
X221928571Y-93957419D02*
X221928571Y-92957419D01*
X221928571Y-92957419D02*
X222261904Y-92957419D01*
X222261904Y-92957419D02*
X222357142Y-93005038D01*
X222357142Y-93005038D02*
X222404761Y-93052657D01*
X222404761Y-93052657D02*
X222452380Y-93147895D01*
X222452380Y-93147895D02*
X222452380Y-93243133D01*
X222452380Y-93243133D02*
X222404761Y-93338371D01*
X222404761Y-93338371D02*
X222357142Y-93385990D01*
X222357142Y-93385990D02*
X222261904Y-93433609D01*
X222261904Y-93433609D02*
X221928571Y-93433609D01*
X222880952Y-93671704D02*
X223357142Y-93671704D01*
X222785714Y-93957419D02*
X223119047Y-92957419D01*
X223119047Y-92957419D02*
X223452380Y-93957419D01*
X223642857Y-92957419D02*
X224214285Y-92957419D01*
X223928571Y-93957419D02*
X223928571Y-92957419D01*
X224404762Y-92957419D02*
X224976190Y-92957419D01*
X224690476Y-93957419D02*
X224690476Y-92957419D01*
X225309524Y-93576466D02*
X226071429Y-93576466D01*
D12*
X251454819Y-122452381D02*
X251454819Y-121833334D01*
X251454819Y-121833334D02*
X251835771Y-122166667D01*
X251835771Y-122166667D02*
X251835771Y-122023810D01*
X251835771Y-122023810D02*
X251883390Y-121928572D01*
X251883390Y-121928572D02*
X251931009Y-121880953D01*
X251931009Y-121880953D02*
X252026247Y-121833334D01*
X252026247Y-121833334D02*
X252264342Y-121833334D01*
X252264342Y-121833334D02*
X252359580Y-121880953D01*
X252359580Y-121880953D02*
X252407200Y-121928572D01*
X252407200Y-121928572D02*
X252454819Y-122023810D01*
X252454819Y-122023810D02*
X252454819Y-122309524D01*
X252454819Y-122309524D02*
X252407200Y-122404762D01*
X252407200Y-122404762D02*
X252359580Y-122452381D01*
X252359580Y-121404762D02*
X252407200Y-121357143D01*
X252407200Y-121357143D02*
X252454819Y-121404762D01*
X252454819Y-121404762D02*
X252407200Y-121452381D01*
X252407200Y-121452381D02*
X252359580Y-121404762D01*
X252359580Y-121404762D02*
X252454819Y-121404762D01*
X251454819Y-121023810D02*
X251454819Y-120404763D01*
X251454819Y-120404763D02*
X251835771Y-120738096D01*
X251835771Y-120738096D02*
X251835771Y-120595239D01*
X251835771Y-120595239D02*
X251883390Y-120500001D01*
X251883390Y-120500001D02*
X251931009Y-120452382D01*
X251931009Y-120452382D02*
X252026247Y-120404763D01*
X252026247Y-120404763D02*
X252264342Y-120404763D01*
X252264342Y-120404763D02*
X252359580Y-120452382D01*
X252359580Y-120452382D02*
X252407200Y-120500001D01*
X252407200Y-120500001D02*
X252454819Y-120595239D01*
X252454819Y-120595239D02*
X252454819Y-120880953D01*
X252454819Y-120880953D02*
X252407200Y-120976191D01*
X252407200Y-120976191D02*
X252359580Y-121023810D01*
X251454819Y-120119048D02*
X252454819Y-119785715D01*
X252454819Y-119785715D02*
X251454819Y-119452382D01*
X252454819Y-117785715D02*
X251978628Y-118119048D01*
X252454819Y-118357143D02*
X251454819Y-118357143D01*
X251454819Y-118357143D02*
X251454819Y-117976191D01*
X251454819Y-117976191D02*
X251502438Y-117880953D01*
X251502438Y-117880953D02*
X251550057Y-117833334D01*
X251550057Y-117833334D02*
X251645295Y-117785715D01*
X251645295Y-117785715D02*
X251788152Y-117785715D01*
X251788152Y-117785715D02*
X251883390Y-117833334D01*
X251883390Y-117833334D02*
X251931009Y-117880953D01*
X251931009Y-117880953D02*
X251978628Y-117976191D01*
X251978628Y-117976191D02*
X251978628Y-118357143D01*
X252407200Y-116976191D02*
X252454819Y-117071429D01*
X252454819Y-117071429D02*
X252454819Y-117261905D01*
X252454819Y-117261905D02*
X252407200Y-117357143D01*
X252407200Y-117357143D02*
X252311961Y-117404762D01*
X252311961Y-117404762D02*
X251931009Y-117404762D01*
X251931009Y-117404762D02*
X251835771Y-117357143D01*
X251835771Y-117357143D02*
X251788152Y-117261905D01*
X251788152Y-117261905D02*
X251788152Y-117071429D01*
X251788152Y-117071429D02*
X251835771Y-116976191D01*
X251835771Y-116976191D02*
X251931009Y-116928572D01*
X251931009Y-116928572D02*
X252026247Y-116928572D01*
X252026247Y-116928572D02*
X252121485Y-117404762D01*
X251788152Y-116071429D02*
X252597676Y-116071429D01*
X252597676Y-116071429D02*
X252692914Y-116119048D01*
X252692914Y-116119048D02*
X252740533Y-116166667D01*
X252740533Y-116166667D02*
X252788152Y-116261905D01*
X252788152Y-116261905D02*
X252788152Y-116404762D01*
X252788152Y-116404762D02*
X252740533Y-116500000D01*
X252407200Y-116071429D02*
X252454819Y-116166667D01*
X252454819Y-116166667D02*
X252454819Y-116357143D01*
X252454819Y-116357143D02*
X252407200Y-116452381D01*
X252407200Y-116452381D02*
X252359580Y-116500000D01*
X252359580Y-116500000D02*
X252264342Y-116547619D01*
X252264342Y-116547619D02*
X251978628Y-116547619D01*
X251978628Y-116547619D02*
X251883390Y-116500000D01*
X251883390Y-116500000D02*
X251835771Y-116452381D01*
X251835771Y-116452381D02*
X251788152Y-116357143D01*
X251788152Y-116357143D02*
X251788152Y-116166667D01*
X251788152Y-116166667D02*
X251835771Y-116071429D01*
X251788152Y-115166667D02*
X252454819Y-115166667D01*
X251788152Y-115595238D02*
X252311961Y-115595238D01*
X252311961Y-115595238D02*
X252407200Y-115547619D01*
X252407200Y-115547619D02*
X252454819Y-115452381D01*
X252454819Y-115452381D02*
X252454819Y-115309524D01*
X252454819Y-115309524D02*
X252407200Y-115214286D01*
X252407200Y-115214286D02*
X252359580Y-115166667D01*
X252454819Y-114547619D02*
X252407200Y-114642857D01*
X252407200Y-114642857D02*
X252311961Y-114690476D01*
X252311961Y-114690476D02*
X251454819Y-114690476D01*
X252454819Y-113738095D02*
X251931009Y-113738095D01*
X251931009Y-113738095D02*
X251835771Y-113785714D01*
X251835771Y-113785714D02*
X251788152Y-113880952D01*
X251788152Y-113880952D02*
X251788152Y-114071428D01*
X251788152Y-114071428D02*
X251835771Y-114166666D01*
X252407200Y-113738095D02*
X252454819Y-113833333D01*
X252454819Y-113833333D02*
X252454819Y-114071428D01*
X252454819Y-114071428D02*
X252407200Y-114166666D01*
X252407200Y-114166666D02*
X252311961Y-114214285D01*
X252311961Y-114214285D02*
X252216723Y-114214285D01*
X252216723Y-114214285D02*
X252121485Y-114166666D01*
X252121485Y-114166666D02*
X252073866Y-114071428D01*
X252073866Y-114071428D02*
X252073866Y-113833333D01*
X252073866Y-113833333D02*
X252026247Y-113738095D01*
X251788152Y-113404761D02*
X251788152Y-113023809D01*
X251454819Y-113261904D02*
X252311961Y-113261904D01*
X252311961Y-113261904D02*
X252407200Y-113214285D01*
X252407200Y-113214285D02*
X252454819Y-113119047D01*
X252454819Y-113119047D02*
X252454819Y-113023809D01*
X252454819Y-112547618D02*
X252407200Y-112642856D01*
X252407200Y-112642856D02*
X252359580Y-112690475D01*
X252359580Y-112690475D02*
X252264342Y-112738094D01*
X252264342Y-112738094D02*
X251978628Y-112738094D01*
X251978628Y-112738094D02*
X251883390Y-112690475D01*
X251883390Y-112690475D02*
X251835771Y-112642856D01*
X251835771Y-112642856D02*
X251788152Y-112547618D01*
X251788152Y-112547618D02*
X251788152Y-112404761D01*
X251788152Y-112404761D02*
X251835771Y-112309523D01*
X251835771Y-112309523D02*
X251883390Y-112261904D01*
X251883390Y-112261904D02*
X251978628Y-112214285D01*
X251978628Y-112214285D02*
X252264342Y-112214285D01*
X252264342Y-112214285D02*
X252359580Y-112261904D01*
X252359580Y-112261904D02*
X252407200Y-112309523D01*
X252407200Y-112309523D02*
X252454819Y-112404761D01*
X252454819Y-112404761D02*
X252454819Y-112547618D01*
X252454819Y-111785713D02*
X251788152Y-111785713D01*
X251978628Y-111785713D02*
X251883390Y-111738094D01*
X251883390Y-111738094D02*
X251835771Y-111690475D01*
X251835771Y-111690475D02*
X251788152Y-111595237D01*
X251788152Y-111595237D02*
X251788152Y-111499999D01*
X225238095Y-114456819D02*
X225809523Y-114456819D01*
X225523809Y-115456819D02*
X225523809Y-114456819D01*
X226142857Y-115456819D02*
X226142857Y-114456819D01*
X226142857Y-114456819D02*
X226523809Y-114456819D01*
X226523809Y-114456819D02*
X226619047Y-114504438D01*
X226619047Y-114504438D02*
X226666666Y-114552057D01*
X226666666Y-114552057D02*
X226714285Y-114647295D01*
X226714285Y-114647295D02*
X226714285Y-114790152D01*
X226714285Y-114790152D02*
X226666666Y-114885390D01*
X226666666Y-114885390D02*
X226619047Y-114933009D01*
X226619047Y-114933009D02*
X226523809Y-114980628D01*
X226523809Y-114980628D02*
X226142857Y-114980628D01*
X227047619Y-114456819D02*
X227666666Y-114456819D01*
X227666666Y-114456819D02*
X227333333Y-114837771D01*
X227333333Y-114837771D02*
X227476190Y-114837771D01*
X227476190Y-114837771D02*
X227571428Y-114885390D01*
X227571428Y-114885390D02*
X227619047Y-114933009D01*
X227619047Y-114933009D02*
X227666666Y-115028247D01*
X227666666Y-115028247D02*
X227666666Y-115266342D01*
X227666666Y-115266342D02*
X227619047Y-115361580D01*
X227619047Y-115361580D02*
X227571428Y-115409200D01*
X227571428Y-115409200D02*
X227476190Y-115456819D01*
X227476190Y-115456819D02*
X227190476Y-115456819D01*
X227190476Y-115456819D02*
X227095238Y-115409200D01*
X227095238Y-115409200D02*
X227047619Y-115361580D01*
X240476190Y-94431009D02*
X240809523Y-94431009D01*
X240952380Y-94954819D02*
X240476190Y-94954819D01*
X240476190Y-94954819D02*
X240476190Y-93954819D01*
X240476190Y-93954819D02*
X240952380Y-93954819D01*
X241333333Y-94907200D02*
X241476190Y-94954819D01*
X241476190Y-94954819D02*
X241714285Y-94954819D01*
X241714285Y-94954819D02*
X241809523Y-94907200D01*
X241809523Y-94907200D02*
X241857142Y-94859580D01*
X241857142Y-94859580D02*
X241904761Y-94764342D01*
X241904761Y-94764342D02*
X241904761Y-94669104D01*
X241904761Y-94669104D02*
X241857142Y-94573866D01*
X241857142Y-94573866D02*
X241809523Y-94526247D01*
X241809523Y-94526247D02*
X241714285Y-94478628D01*
X241714285Y-94478628D02*
X241523809Y-94431009D01*
X241523809Y-94431009D02*
X241428571Y-94383390D01*
X241428571Y-94383390D02*
X241380952Y-94335771D01*
X241380952Y-94335771D02*
X241333333Y-94240533D01*
X241333333Y-94240533D02*
X241333333Y-94145295D01*
X241333333Y-94145295D02*
X241380952Y-94050057D01*
X241380952Y-94050057D02*
X241428571Y-94002438D01*
X241428571Y-94002438D02*
X241523809Y-93954819D01*
X241523809Y-93954819D02*
X241761904Y-93954819D01*
X241761904Y-93954819D02*
X241904761Y-94002438D01*
X242904761Y-94859580D02*
X242857142Y-94907200D01*
X242857142Y-94907200D02*
X242714285Y-94954819D01*
X242714285Y-94954819D02*
X242619047Y-94954819D01*
X242619047Y-94954819D02*
X242476190Y-94907200D01*
X242476190Y-94907200D02*
X242380952Y-94811961D01*
X242380952Y-94811961D02*
X242333333Y-94716723D01*
X242333333Y-94716723D02*
X242285714Y-94526247D01*
X242285714Y-94526247D02*
X242285714Y-94383390D01*
X242285714Y-94383390D02*
X242333333Y-94192914D01*
X242333333Y-94192914D02*
X242380952Y-94097676D01*
X242380952Y-94097676D02*
X242476190Y-94002438D01*
X242476190Y-94002438D02*
X242619047Y-93954819D01*
X242619047Y-93954819D02*
X242714285Y-93954819D01*
X242714285Y-93954819D02*
X242857142Y-94002438D01*
X242857142Y-94002438D02*
X242904761Y-94050057D01*
X244285714Y-93954819D02*
X244476190Y-93954819D01*
X244476190Y-93954819D02*
X244571428Y-94002438D01*
X244571428Y-94002438D02*
X244666666Y-94097676D01*
X244666666Y-94097676D02*
X244714285Y-94288152D01*
X244714285Y-94288152D02*
X244714285Y-94621485D01*
X244714285Y-94621485D02*
X244666666Y-94811961D01*
X244666666Y-94811961D02*
X244571428Y-94907200D01*
X244571428Y-94907200D02*
X244476190Y-94954819D01*
X244476190Y-94954819D02*
X244285714Y-94954819D01*
X244285714Y-94954819D02*
X244190476Y-94907200D01*
X244190476Y-94907200D02*
X244095238Y-94811961D01*
X244095238Y-94811961D02*
X244047619Y-94621485D01*
X244047619Y-94621485D02*
X244047619Y-94288152D01*
X244047619Y-94288152D02*
X244095238Y-94097676D01*
X244095238Y-94097676D02*
X244190476Y-94002438D01*
X244190476Y-94002438D02*
X244285714Y-93954819D01*
X245571428Y-94288152D02*
X245571428Y-94954819D01*
X245142857Y-94288152D02*
X245142857Y-94811961D01*
X245142857Y-94811961D02*
X245190476Y-94907200D01*
X245190476Y-94907200D02*
X245285714Y-94954819D01*
X245285714Y-94954819D02*
X245428571Y-94954819D01*
X245428571Y-94954819D02*
X245523809Y-94907200D01*
X245523809Y-94907200D02*
X245571428Y-94859580D01*
X245904762Y-94288152D02*
X246285714Y-94288152D01*
X246047619Y-93954819D02*
X246047619Y-94811961D01*
X246047619Y-94811961D02*
X246095238Y-94907200D01*
X246095238Y-94907200D02*
X246190476Y-94954819D01*
X246190476Y-94954819D02*
X246285714Y-94954819D01*
X246619048Y-94288152D02*
X246619048Y-95288152D01*
X246619048Y-94335771D02*
X246714286Y-94288152D01*
X246714286Y-94288152D02*
X246904762Y-94288152D01*
X246904762Y-94288152D02*
X247000000Y-94335771D01*
X247000000Y-94335771D02*
X247047619Y-94383390D01*
X247047619Y-94383390D02*
X247095238Y-94478628D01*
X247095238Y-94478628D02*
X247095238Y-94764342D01*
X247095238Y-94764342D02*
X247047619Y-94859580D01*
X247047619Y-94859580D02*
X247000000Y-94907200D01*
X247000000Y-94907200D02*
X246904762Y-94954819D01*
X246904762Y-94954819D02*
X246714286Y-94954819D01*
X246714286Y-94954819D02*
X246619048Y-94907200D01*
X247952381Y-94288152D02*
X247952381Y-94954819D01*
X247523810Y-94288152D02*
X247523810Y-94811961D01*
X247523810Y-94811961D02*
X247571429Y-94907200D01*
X247571429Y-94907200D02*
X247666667Y-94954819D01*
X247666667Y-94954819D02*
X247809524Y-94954819D01*
X247809524Y-94954819D02*
X247904762Y-94907200D01*
X247904762Y-94907200D02*
X247952381Y-94859580D01*
X248285715Y-94288152D02*
X248666667Y-94288152D01*
X248428572Y-93954819D02*
X248428572Y-94811961D01*
X248428572Y-94811961D02*
X248476191Y-94907200D01*
X248476191Y-94907200D02*
X248571429Y-94954819D01*
X248571429Y-94954819D02*
X248666667Y-94954819D01*
X251454819Y-132666667D02*
X251454819Y-133142857D01*
X251454819Y-133142857D02*
X251931009Y-133190476D01*
X251931009Y-133190476D02*
X251883390Y-133142857D01*
X251883390Y-133142857D02*
X251835771Y-133047619D01*
X251835771Y-133047619D02*
X251835771Y-132809524D01*
X251835771Y-132809524D02*
X251883390Y-132714286D01*
X251883390Y-132714286D02*
X251931009Y-132666667D01*
X251931009Y-132666667D02*
X252026247Y-132619048D01*
X252026247Y-132619048D02*
X252264342Y-132619048D01*
X252264342Y-132619048D02*
X252359580Y-132666667D01*
X252359580Y-132666667D02*
X252407200Y-132714286D01*
X252407200Y-132714286D02*
X252454819Y-132809524D01*
X252454819Y-132809524D02*
X252454819Y-133047619D01*
X252454819Y-133047619D02*
X252407200Y-133142857D01*
X252407200Y-133142857D02*
X252359580Y-133190476D01*
X251454819Y-132333333D02*
X252454819Y-132000000D01*
X252454819Y-132000000D02*
X251454819Y-131666667D01*
X252454819Y-130000000D02*
X251978628Y-130333333D01*
X252454819Y-130571428D02*
X251454819Y-130571428D01*
X251454819Y-130571428D02*
X251454819Y-130190476D01*
X251454819Y-130190476D02*
X251502438Y-130095238D01*
X251502438Y-130095238D02*
X251550057Y-130047619D01*
X251550057Y-130047619D02*
X251645295Y-130000000D01*
X251645295Y-130000000D02*
X251788152Y-130000000D01*
X251788152Y-130000000D02*
X251883390Y-130047619D01*
X251883390Y-130047619D02*
X251931009Y-130095238D01*
X251931009Y-130095238D02*
X251978628Y-130190476D01*
X251978628Y-130190476D02*
X251978628Y-130571428D01*
X252407200Y-129190476D02*
X252454819Y-129285714D01*
X252454819Y-129285714D02*
X252454819Y-129476190D01*
X252454819Y-129476190D02*
X252407200Y-129571428D01*
X252407200Y-129571428D02*
X252311961Y-129619047D01*
X252311961Y-129619047D02*
X251931009Y-129619047D01*
X251931009Y-129619047D02*
X251835771Y-129571428D01*
X251835771Y-129571428D02*
X251788152Y-129476190D01*
X251788152Y-129476190D02*
X251788152Y-129285714D01*
X251788152Y-129285714D02*
X251835771Y-129190476D01*
X251835771Y-129190476D02*
X251931009Y-129142857D01*
X251931009Y-129142857D02*
X252026247Y-129142857D01*
X252026247Y-129142857D02*
X252121485Y-129619047D01*
X251788152Y-128285714D02*
X252597676Y-128285714D01*
X252597676Y-128285714D02*
X252692914Y-128333333D01*
X252692914Y-128333333D02*
X252740533Y-128380952D01*
X252740533Y-128380952D02*
X252788152Y-128476190D01*
X252788152Y-128476190D02*
X252788152Y-128619047D01*
X252788152Y-128619047D02*
X252740533Y-128714285D01*
X252407200Y-128285714D02*
X252454819Y-128380952D01*
X252454819Y-128380952D02*
X252454819Y-128571428D01*
X252454819Y-128571428D02*
X252407200Y-128666666D01*
X252407200Y-128666666D02*
X252359580Y-128714285D01*
X252359580Y-128714285D02*
X252264342Y-128761904D01*
X252264342Y-128761904D02*
X251978628Y-128761904D01*
X251978628Y-128761904D02*
X251883390Y-128714285D01*
X251883390Y-128714285D02*
X251835771Y-128666666D01*
X251835771Y-128666666D02*
X251788152Y-128571428D01*
X251788152Y-128571428D02*
X251788152Y-128380952D01*
X251788152Y-128380952D02*
X251835771Y-128285714D01*
X251788152Y-127380952D02*
X252454819Y-127380952D01*
X251788152Y-127809523D02*
X252311961Y-127809523D01*
X252311961Y-127809523D02*
X252407200Y-127761904D01*
X252407200Y-127761904D02*
X252454819Y-127666666D01*
X252454819Y-127666666D02*
X252454819Y-127523809D01*
X252454819Y-127523809D02*
X252407200Y-127428571D01*
X252407200Y-127428571D02*
X252359580Y-127380952D01*
X252454819Y-126761904D02*
X252407200Y-126857142D01*
X252407200Y-126857142D02*
X252311961Y-126904761D01*
X252311961Y-126904761D02*
X251454819Y-126904761D01*
X252454819Y-125952380D02*
X251931009Y-125952380D01*
X251931009Y-125952380D02*
X251835771Y-125999999D01*
X251835771Y-125999999D02*
X251788152Y-126095237D01*
X251788152Y-126095237D02*
X251788152Y-126285713D01*
X251788152Y-126285713D02*
X251835771Y-126380951D01*
X252407200Y-125952380D02*
X252454819Y-126047618D01*
X252454819Y-126047618D02*
X252454819Y-126285713D01*
X252454819Y-126285713D02*
X252407200Y-126380951D01*
X252407200Y-126380951D02*
X252311961Y-126428570D01*
X252311961Y-126428570D02*
X252216723Y-126428570D01*
X252216723Y-126428570D02*
X252121485Y-126380951D01*
X252121485Y-126380951D02*
X252073866Y-126285713D01*
X252073866Y-126285713D02*
X252073866Y-126047618D01*
X252073866Y-126047618D02*
X252026247Y-125952380D01*
X251788152Y-125619046D02*
X251788152Y-125238094D01*
X251454819Y-125476189D02*
X252311961Y-125476189D01*
X252311961Y-125476189D02*
X252407200Y-125428570D01*
X252407200Y-125428570D02*
X252454819Y-125333332D01*
X252454819Y-125333332D02*
X252454819Y-125238094D01*
X252454819Y-124761903D02*
X252407200Y-124857141D01*
X252407200Y-124857141D02*
X252359580Y-124904760D01*
X252359580Y-124904760D02*
X252264342Y-124952379D01*
X252264342Y-124952379D02*
X251978628Y-124952379D01*
X251978628Y-124952379D02*
X251883390Y-124904760D01*
X251883390Y-124904760D02*
X251835771Y-124857141D01*
X251835771Y-124857141D02*
X251788152Y-124761903D01*
X251788152Y-124761903D02*
X251788152Y-124619046D01*
X251788152Y-124619046D02*
X251835771Y-124523808D01*
X251835771Y-124523808D02*
X251883390Y-124476189D01*
X251883390Y-124476189D02*
X251978628Y-124428570D01*
X251978628Y-124428570D02*
X252264342Y-124428570D01*
X252264342Y-124428570D02*
X252359580Y-124476189D01*
X252359580Y-124476189D02*
X252407200Y-124523808D01*
X252407200Y-124523808D02*
X252454819Y-124619046D01*
X252454819Y-124619046D02*
X252454819Y-124761903D01*
X252454819Y-123999998D02*
X251788152Y-123999998D01*
X251978628Y-123999998D02*
X251883390Y-123952379D01*
X251883390Y-123952379D02*
X251835771Y-123904760D01*
X251835771Y-123904760D02*
X251788152Y-123809522D01*
X251788152Y-123809522D02*
X251788152Y-123714284D01*
X207748095Y-98954819D02*
X207748095Y-99764342D01*
X207748095Y-99764342D02*
X207795714Y-99859580D01*
X207795714Y-99859580D02*
X207843333Y-99907200D01*
X207843333Y-99907200D02*
X207938571Y-99954819D01*
X207938571Y-99954819D02*
X208129047Y-99954819D01*
X208129047Y-99954819D02*
X208224285Y-99907200D01*
X208224285Y-99907200D02*
X208271904Y-99859580D01*
X208271904Y-99859580D02*
X208319523Y-99764342D01*
X208319523Y-99764342D02*
X208319523Y-98954819D01*
X209271904Y-98954819D02*
X208795714Y-98954819D01*
X208795714Y-98954819D02*
X208748095Y-99431009D01*
X208748095Y-99431009D02*
X208795714Y-99383390D01*
X208795714Y-99383390D02*
X208890952Y-99335771D01*
X208890952Y-99335771D02*
X209129047Y-99335771D01*
X209129047Y-99335771D02*
X209224285Y-99383390D01*
X209224285Y-99383390D02*
X209271904Y-99431009D01*
X209271904Y-99431009D02*
X209319523Y-99526247D01*
X209319523Y-99526247D02*
X209319523Y-99764342D01*
X209319523Y-99764342D02*
X209271904Y-99859580D01*
X209271904Y-99859580D02*
X209224285Y-99907200D01*
X209224285Y-99907200D02*
X209129047Y-99954819D01*
X209129047Y-99954819D02*
X208890952Y-99954819D01*
X208890952Y-99954819D02*
X208795714Y-99907200D01*
X208795714Y-99907200D02*
X208748095Y-99859580D01*
X190256819Y-108761904D02*
X191066342Y-108761904D01*
X191066342Y-108761904D02*
X191161580Y-108714285D01*
X191161580Y-108714285D02*
X191209200Y-108666666D01*
X191209200Y-108666666D02*
X191256819Y-108571428D01*
X191256819Y-108571428D02*
X191256819Y-108380952D01*
X191256819Y-108380952D02*
X191209200Y-108285714D01*
X191209200Y-108285714D02*
X191161580Y-108238095D01*
X191161580Y-108238095D02*
X191066342Y-108190476D01*
X191066342Y-108190476D02*
X190256819Y-108190476D01*
X191256819Y-107190476D02*
X191256819Y-107761904D01*
X191256819Y-107476190D02*
X190256819Y-107476190D01*
X190256819Y-107476190D02*
X190399676Y-107571428D01*
X190399676Y-107571428D02*
X190494914Y-107666666D01*
X190494914Y-107666666D02*
X190542533Y-107761904D01*
X184186219Y-116381999D02*
X184424314Y-116381999D01*
X184329076Y-116620094D02*
X184424314Y-116381999D01*
X184424314Y-116381999D02*
X184329076Y-116143904D01*
X184614790Y-116524856D02*
X184424314Y-116381999D01*
X184424314Y-116381999D02*
X184614790Y-116239142D01*
X184186219Y-116381999D02*
X184424314Y-116381999D01*
X184329076Y-116620094D02*
X184424314Y-116381999D01*
X184424314Y-116381999D02*
X184329076Y-116143904D01*
X184614790Y-116524856D02*
X184424314Y-116381999D01*
X184424314Y-116381999D02*
X184614790Y-116239142D01*
X221095714Y-102454819D02*
X220619524Y-102454819D01*
X220619524Y-102454819D02*
X220571905Y-102931009D01*
X220571905Y-102931009D02*
X220619524Y-102883390D01*
X220619524Y-102883390D02*
X220714762Y-102835771D01*
X220714762Y-102835771D02*
X220952857Y-102835771D01*
X220952857Y-102835771D02*
X221048095Y-102883390D01*
X221048095Y-102883390D02*
X221095714Y-102931009D01*
X221095714Y-102931009D02*
X221143333Y-103026247D01*
X221143333Y-103026247D02*
X221143333Y-103264342D01*
X221143333Y-103264342D02*
X221095714Y-103359580D01*
X221095714Y-103359580D02*
X221048095Y-103407200D01*
X221048095Y-103407200D02*
X220952857Y-103454819D01*
X220952857Y-103454819D02*
X220714762Y-103454819D01*
X220714762Y-103454819D02*
X220619524Y-103407200D01*
X220619524Y-103407200D02*
X220571905Y-103359580D01*
X221762381Y-102454819D02*
X221857619Y-102454819D01*
X221857619Y-102454819D02*
X221952857Y-102502438D01*
X221952857Y-102502438D02*
X222000476Y-102550057D01*
X222000476Y-102550057D02*
X222048095Y-102645295D01*
X222048095Y-102645295D02*
X222095714Y-102835771D01*
X222095714Y-102835771D02*
X222095714Y-103073866D01*
X222095714Y-103073866D02*
X222048095Y-103264342D01*
X222048095Y-103264342D02*
X222000476Y-103359580D01*
X222000476Y-103359580D02*
X221952857Y-103407200D01*
X221952857Y-103407200D02*
X221857619Y-103454819D01*
X221857619Y-103454819D02*
X221762381Y-103454819D01*
X221762381Y-103454819D02*
X221667143Y-103407200D01*
X221667143Y-103407200D02*
X221619524Y-103359580D01*
X221619524Y-103359580D02*
X221571905Y-103264342D01*
X221571905Y-103264342D02*
X221524286Y-103073866D01*
X221524286Y-103073866D02*
X221524286Y-102835771D01*
X221524286Y-102835771D02*
X221571905Y-102645295D01*
X221571905Y-102645295D02*
X221619524Y-102550057D01*
X221619524Y-102550057D02*
X221667143Y-102502438D01*
X221667143Y-102502438D02*
X221762381Y-102454819D01*
X222714762Y-102454819D02*
X222810000Y-102454819D01*
X222810000Y-102454819D02*
X222905238Y-102502438D01*
X222905238Y-102502438D02*
X222952857Y-102550057D01*
X222952857Y-102550057D02*
X223000476Y-102645295D01*
X223000476Y-102645295D02*
X223048095Y-102835771D01*
X223048095Y-102835771D02*
X223048095Y-103073866D01*
X223048095Y-103073866D02*
X223000476Y-103264342D01*
X223000476Y-103264342D02*
X222952857Y-103359580D01*
X222952857Y-103359580D02*
X222905238Y-103407200D01*
X222905238Y-103407200D02*
X222810000Y-103454819D01*
X222810000Y-103454819D02*
X222714762Y-103454819D01*
X222714762Y-103454819D02*
X222619524Y-103407200D01*
X222619524Y-103407200D02*
X222571905Y-103359580D01*
X222571905Y-103359580D02*
X222524286Y-103264342D01*
X222524286Y-103264342D02*
X222476667Y-103073866D01*
X222476667Y-103073866D02*
X222476667Y-102835771D01*
X222476667Y-102835771D02*
X222524286Y-102645295D01*
X222524286Y-102645295D02*
X222571905Y-102550057D01*
X222571905Y-102550057D02*
X222619524Y-102502438D01*
X222619524Y-102502438D02*
X222714762Y-102454819D01*
X223476667Y-103454819D02*
X223476667Y-102454819D01*
X224048095Y-103454819D02*
X223619524Y-102883390D01*
X224048095Y-102454819D02*
X223476667Y-103026247D01*
X190374819Y-146516513D02*
X189374819Y-146516513D01*
X190374819Y-145468895D02*
X189898628Y-145802228D01*
X190374819Y-146040323D02*
X189374819Y-146040323D01*
X189374819Y-146040323D02*
X189374819Y-145659371D01*
X189374819Y-145659371D02*
X189422438Y-145564133D01*
X189422438Y-145564133D02*
X189470057Y-145516514D01*
X189470057Y-145516514D02*
X189565295Y-145468895D01*
X189565295Y-145468895D02*
X189708152Y-145468895D01*
X189708152Y-145468895D02*
X189803390Y-145516514D01*
X189803390Y-145516514D02*
X189851009Y-145564133D01*
X189851009Y-145564133D02*
X189898628Y-145659371D01*
X189898628Y-145659371D02*
X189898628Y-146040323D01*
X190470057Y-145278419D02*
X190470057Y-144516514D01*
X190374819Y-143706990D02*
X189898628Y-144040323D01*
X190374819Y-144278418D02*
X189374819Y-144278418D01*
X189374819Y-144278418D02*
X189374819Y-143897466D01*
X189374819Y-143897466D02*
X189422438Y-143802228D01*
X189422438Y-143802228D02*
X189470057Y-143754609D01*
X189470057Y-143754609D02*
X189565295Y-143706990D01*
X189565295Y-143706990D02*
X189708152Y-143706990D01*
X189708152Y-143706990D02*
X189803390Y-143754609D01*
X189803390Y-143754609D02*
X189851009Y-143802228D01*
X189851009Y-143802228D02*
X189898628Y-143897466D01*
X189898628Y-143897466D02*
X189898628Y-144278418D01*
X190374819Y-143373656D02*
X189708152Y-142849847D01*
X189708152Y-143373656D02*
X190374819Y-142849847D01*
X243984819Y-110068333D02*
X244699104Y-110068333D01*
X244699104Y-110068333D02*
X244841961Y-110115952D01*
X244841961Y-110115952D02*
X244937200Y-110211190D01*
X244937200Y-110211190D02*
X244984819Y-110354047D01*
X244984819Y-110354047D02*
X244984819Y-110449285D01*
X244080057Y-109639761D02*
X244032438Y-109592142D01*
X244032438Y-109592142D02*
X243984819Y-109496904D01*
X243984819Y-109496904D02*
X243984819Y-109258809D01*
X243984819Y-109258809D02*
X244032438Y-109163571D01*
X244032438Y-109163571D02*
X244080057Y-109115952D01*
X244080057Y-109115952D02*
X244175295Y-109068333D01*
X244175295Y-109068333D02*
X244270533Y-109068333D01*
X244270533Y-109068333D02*
X244413390Y-109115952D01*
X244413390Y-109115952D02*
X244984819Y-109687380D01*
X244984819Y-109687380D02*
X244984819Y-109068333D01*
X217523809Y-105294819D02*
X217523809Y-104294819D01*
X217523809Y-104294819D02*
X217904761Y-104294819D01*
X217904761Y-104294819D02*
X217999999Y-104342438D01*
X217999999Y-104342438D02*
X218047618Y-104390057D01*
X218047618Y-104390057D02*
X218095237Y-104485295D01*
X218095237Y-104485295D02*
X218095237Y-104628152D01*
X218095237Y-104628152D02*
X218047618Y-104723390D01*
X218047618Y-104723390D02*
X217999999Y-104771009D01*
X217999999Y-104771009D02*
X217904761Y-104818628D01*
X217904761Y-104818628D02*
X217523809Y-104818628D01*
X218666666Y-105294819D02*
X218571428Y-105247200D01*
X218571428Y-105247200D02*
X218523809Y-105199580D01*
X218523809Y-105199580D02*
X218476190Y-105104342D01*
X218476190Y-105104342D02*
X218476190Y-104818628D01*
X218476190Y-104818628D02*
X218523809Y-104723390D01*
X218523809Y-104723390D02*
X218571428Y-104675771D01*
X218571428Y-104675771D02*
X218666666Y-104628152D01*
X218666666Y-104628152D02*
X218809523Y-104628152D01*
X218809523Y-104628152D02*
X218904761Y-104675771D01*
X218904761Y-104675771D02*
X218952380Y-104723390D01*
X218952380Y-104723390D02*
X218999999Y-104818628D01*
X218999999Y-104818628D02*
X218999999Y-105104342D01*
X218999999Y-105104342D02*
X218952380Y-105199580D01*
X218952380Y-105199580D02*
X218904761Y-105247200D01*
X218904761Y-105247200D02*
X218809523Y-105294819D01*
X218809523Y-105294819D02*
X218666666Y-105294819D01*
X219285714Y-104628152D02*
X219666666Y-104628152D01*
X219428571Y-104294819D02*
X219428571Y-105151961D01*
X219428571Y-105151961D02*
X219476190Y-105247200D01*
X219476190Y-105247200D02*
X219571428Y-105294819D01*
X219571428Y-105294819D02*
X219666666Y-105294819D01*
X220380952Y-105247200D02*
X220285714Y-105294819D01*
X220285714Y-105294819D02*
X220095238Y-105294819D01*
X220095238Y-105294819D02*
X220000000Y-105247200D01*
X220000000Y-105247200D02*
X219952381Y-105151961D01*
X219952381Y-105151961D02*
X219952381Y-104771009D01*
X219952381Y-104771009D02*
X220000000Y-104675771D01*
X220000000Y-104675771D02*
X220095238Y-104628152D01*
X220095238Y-104628152D02*
X220285714Y-104628152D01*
X220285714Y-104628152D02*
X220380952Y-104675771D01*
X220380952Y-104675771D02*
X220428571Y-104771009D01*
X220428571Y-104771009D02*
X220428571Y-104866247D01*
X220428571Y-104866247D02*
X219952381Y-104961485D01*
X220857143Y-104628152D02*
X220857143Y-105294819D01*
X220857143Y-104723390D02*
X220904762Y-104675771D01*
X220904762Y-104675771D02*
X221000000Y-104628152D01*
X221000000Y-104628152D02*
X221142857Y-104628152D01*
X221142857Y-104628152D02*
X221238095Y-104675771D01*
X221238095Y-104675771D02*
X221285714Y-104771009D01*
X221285714Y-104771009D02*
X221285714Y-105294819D01*
X221619048Y-104628152D02*
X222000000Y-104628152D01*
X221761905Y-104294819D02*
X221761905Y-105151961D01*
X221761905Y-105151961D02*
X221809524Y-105247200D01*
X221809524Y-105247200D02*
X221904762Y-105294819D01*
X221904762Y-105294819D02*
X222000000Y-105294819D01*
X222333334Y-105294819D02*
X222333334Y-104628152D01*
X222333334Y-104294819D02*
X222285715Y-104342438D01*
X222285715Y-104342438D02*
X222333334Y-104390057D01*
X222333334Y-104390057D02*
X222380953Y-104342438D01*
X222380953Y-104342438D02*
X222333334Y-104294819D01*
X222333334Y-104294819D02*
X222333334Y-104390057D01*
X222952381Y-105294819D02*
X222857143Y-105247200D01*
X222857143Y-105247200D02*
X222809524Y-105199580D01*
X222809524Y-105199580D02*
X222761905Y-105104342D01*
X222761905Y-105104342D02*
X222761905Y-104818628D01*
X222761905Y-104818628D02*
X222809524Y-104723390D01*
X222809524Y-104723390D02*
X222857143Y-104675771D01*
X222857143Y-104675771D02*
X222952381Y-104628152D01*
X222952381Y-104628152D02*
X223095238Y-104628152D01*
X223095238Y-104628152D02*
X223190476Y-104675771D01*
X223190476Y-104675771D02*
X223238095Y-104723390D01*
X223238095Y-104723390D02*
X223285714Y-104818628D01*
X223285714Y-104818628D02*
X223285714Y-105104342D01*
X223285714Y-105104342D02*
X223238095Y-105199580D01*
X223238095Y-105199580D02*
X223190476Y-105247200D01*
X223190476Y-105247200D02*
X223095238Y-105294819D01*
X223095238Y-105294819D02*
X222952381Y-105294819D01*
X223714286Y-105294819D02*
X223714286Y-104628152D01*
X223714286Y-104723390D02*
X223761905Y-104675771D01*
X223761905Y-104675771D02*
X223857143Y-104628152D01*
X223857143Y-104628152D02*
X224000000Y-104628152D01*
X224000000Y-104628152D02*
X224095238Y-104675771D01*
X224095238Y-104675771D02*
X224142857Y-104771009D01*
X224142857Y-104771009D02*
X224142857Y-105294819D01*
X224142857Y-104771009D02*
X224190476Y-104675771D01*
X224190476Y-104675771D02*
X224285714Y-104628152D01*
X224285714Y-104628152D02*
X224428571Y-104628152D01*
X224428571Y-104628152D02*
X224523810Y-104675771D01*
X224523810Y-104675771D02*
X224571429Y-104771009D01*
X224571429Y-104771009D02*
X224571429Y-105294819D01*
X225428571Y-105247200D02*
X225333333Y-105294819D01*
X225333333Y-105294819D02*
X225142857Y-105294819D01*
X225142857Y-105294819D02*
X225047619Y-105247200D01*
X225047619Y-105247200D02*
X225000000Y-105151961D01*
X225000000Y-105151961D02*
X225000000Y-104771009D01*
X225000000Y-104771009D02*
X225047619Y-104675771D01*
X225047619Y-104675771D02*
X225142857Y-104628152D01*
X225142857Y-104628152D02*
X225333333Y-104628152D01*
X225333333Y-104628152D02*
X225428571Y-104675771D01*
X225428571Y-104675771D02*
X225476190Y-104771009D01*
X225476190Y-104771009D02*
X225476190Y-104866247D01*
X225476190Y-104866247D02*
X225000000Y-104961485D01*
X225761905Y-104628152D02*
X226142857Y-104628152D01*
X225904762Y-104294819D02*
X225904762Y-105151961D01*
X225904762Y-105151961D02*
X225952381Y-105247200D01*
X225952381Y-105247200D02*
X226047619Y-105294819D01*
X226047619Y-105294819D02*
X226142857Y-105294819D01*
X226857143Y-105247200D02*
X226761905Y-105294819D01*
X226761905Y-105294819D02*
X226571429Y-105294819D01*
X226571429Y-105294819D02*
X226476191Y-105247200D01*
X226476191Y-105247200D02*
X226428572Y-105151961D01*
X226428572Y-105151961D02*
X226428572Y-104771009D01*
X226428572Y-104771009D02*
X226476191Y-104675771D01*
X226476191Y-104675771D02*
X226571429Y-104628152D01*
X226571429Y-104628152D02*
X226761905Y-104628152D01*
X226761905Y-104628152D02*
X226857143Y-104675771D01*
X226857143Y-104675771D02*
X226904762Y-104771009D01*
X226904762Y-104771009D02*
X226904762Y-104866247D01*
X226904762Y-104866247D02*
X226428572Y-104961485D01*
X227333334Y-105294819D02*
X227333334Y-104628152D01*
X227333334Y-104818628D02*
X227380953Y-104723390D01*
X227380953Y-104723390D02*
X227428572Y-104675771D01*
X227428572Y-104675771D02*
X227523810Y-104628152D01*
X227523810Y-104628152D02*
X227619048Y-104628152D01*
X190256819Y-128761904D02*
X191066342Y-128761904D01*
X191066342Y-128761904D02*
X191161580Y-128714285D01*
X191161580Y-128714285D02*
X191209200Y-128666666D01*
X191209200Y-128666666D02*
X191256819Y-128571428D01*
X191256819Y-128571428D02*
X191256819Y-128380952D01*
X191256819Y-128380952D02*
X191209200Y-128285714D01*
X191209200Y-128285714D02*
X191161580Y-128238095D01*
X191161580Y-128238095D02*
X191066342Y-128190476D01*
X191066342Y-128190476D02*
X190256819Y-128190476D01*
X190256819Y-127809523D02*
X190256819Y-127190476D01*
X190256819Y-127190476D02*
X190637771Y-127523809D01*
X190637771Y-127523809D02*
X190637771Y-127380952D01*
X190637771Y-127380952D02*
X190685390Y-127285714D01*
X190685390Y-127285714D02*
X190733009Y-127238095D01*
X190733009Y-127238095D02*
X190828247Y-127190476D01*
X190828247Y-127190476D02*
X191066342Y-127190476D01*
X191066342Y-127190476D02*
X191161580Y-127238095D01*
X191161580Y-127238095D02*
X191209200Y-127285714D01*
X191209200Y-127285714D02*
X191256819Y-127380952D01*
X191256819Y-127380952D02*
X191256819Y-127666666D01*
X191256819Y-127666666D02*
X191209200Y-127761904D01*
X191209200Y-127761904D02*
X191161580Y-127809523D01*
X184186219Y-136381999D02*
X184424314Y-136381999D01*
X184329076Y-136620094D02*
X184424314Y-136381999D01*
X184424314Y-136381999D02*
X184329076Y-136143904D01*
X184614790Y-136524856D02*
X184424314Y-136381999D01*
X184424314Y-136381999D02*
X184614790Y-136239142D01*
X184186219Y-136381999D02*
X184424314Y-136381999D01*
X184329076Y-136620094D02*
X184424314Y-136381999D01*
X184424314Y-136381999D02*
X184329076Y-136143904D01*
X184614790Y-136524856D02*
X184424314Y-136381999D01*
X184424314Y-136381999D02*
X184614790Y-136239142D01*
X190374819Y-153397466D02*
X189374819Y-153397466D01*
X190374819Y-152349848D02*
X189898628Y-152683181D01*
X190374819Y-152921276D02*
X189374819Y-152921276D01*
X189374819Y-152921276D02*
X189374819Y-152540324D01*
X189374819Y-152540324D02*
X189422438Y-152445086D01*
X189422438Y-152445086D02*
X189470057Y-152397467D01*
X189470057Y-152397467D02*
X189565295Y-152349848D01*
X189565295Y-152349848D02*
X189708152Y-152349848D01*
X189708152Y-152349848D02*
X189803390Y-152397467D01*
X189803390Y-152397467D02*
X189851009Y-152445086D01*
X189851009Y-152445086D02*
X189898628Y-152540324D01*
X189898628Y-152540324D02*
X189898628Y-152921276D01*
X190470057Y-152159372D02*
X190470057Y-151397467D01*
X189374819Y-151302228D02*
X189374819Y-150730800D01*
X190374819Y-151016514D02*
X189374819Y-151016514D01*
X190374819Y-150492704D02*
X189708152Y-149968895D01*
X189708152Y-150492704D02*
X190374819Y-149968895D01*
D13*
%TO.C,ADC*%
X199070000Y-131730000D02*
X221930000Y-131730000D01*
X199070000Y-162210000D02*
X199070000Y-131730000D01*
X221930000Y-131730000D02*
X221930000Y-162210000D01*
X221930000Y-162210000D02*
X199070000Y-162210000D01*
D14*
X205316000Y-163226000D02*
G75*
G02*
X205016000Y-163226000I-150000J0D01*
G01*
X205016000Y-163226000D02*
G75*
G02*
X205316000Y-163226000I150000J0D01*
G01*
D12*
%TO.C,Teensy 4.0*%
X223750000Y-135030000D02*
X259310000Y-135030000D01*
X223750000Y-152810000D02*
X223750000Y-135030000D01*
X233910000Y-145825000D02*
X236450000Y-145825000D01*
X233910000Y-149000000D02*
X233910000Y-145825000D01*
X236450000Y-145825000D02*
X236450000Y-149000000D01*
X236450000Y-149000000D02*
X233910000Y-149000000D01*
X237085000Y-138840000D02*
X237085000Y-149000000D01*
X237085000Y-138840000D02*
X247245000Y-138840000D01*
X237085000Y-149000000D02*
X247245000Y-149000000D01*
X247245000Y-149000000D02*
X247245000Y-138840000D01*
X254230000Y-140110000D02*
X254230000Y-147730000D01*
X254230000Y-140110000D02*
X259310000Y-140110000D01*
X254230000Y-147730000D02*
X259310000Y-147730000D01*
X259310000Y-135030000D02*
X259310000Y-152810000D01*
X259310000Y-140110000D02*
X260580000Y-140110000D01*
X259310000Y-152810000D02*
X223750000Y-152810000D01*
X260580000Y-140110000D02*
X260580000Y-147730000D01*
X260580000Y-147730000D02*
X259310000Y-147730000D01*
D10*
X243181000Y-143412000D02*
X242927000Y-143666000D01*
X242673000Y-143285000D01*
X242927000Y-143031000D01*
X243181000Y-143412000D01*
G36*
X243181000Y-143412000D02*
G01*
X242927000Y-143666000D01*
X242673000Y-143285000D01*
X242927000Y-143031000D01*
X243181000Y-143412000D01*
G37*
X243562000Y-143920000D02*
X243308000Y-144174000D01*
X243054000Y-143793000D01*
X243308000Y-143539000D01*
X243562000Y-143920000D01*
G36*
X243562000Y-143920000D02*
G01*
X243308000Y-144174000D01*
X243054000Y-143793000D01*
X243308000Y-143539000D01*
X243562000Y-143920000D01*
G37*
X243943000Y-143539000D02*
X243689000Y-143793000D01*
X243435000Y-143412000D01*
X243689000Y-143158000D01*
X243943000Y-143539000D01*
G36*
X243943000Y-143539000D02*
G01*
X243689000Y-143793000D01*
X243435000Y-143412000D01*
X243689000Y-143158000D01*
X243943000Y-143539000D01*
G37*
X243943000Y-144428000D02*
X243689000Y-144682000D01*
X243435000Y-144301000D01*
X243689000Y-144047000D01*
X243943000Y-144428000D01*
G36*
X243943000Y-144428000D02*
G01*
X243689000Y-144682000D01*
X243435000Y-144301000D01*
X243689000Y-144047000D01*
X243943000Y-144428000D01*
G37*
X244324000Y-144047000D02*
X244070000Y-144301000D01*
X243816000Y-143920000D01*
X244070000Y-143666000D01*
X244324000Y-144047000D01*
G36*
X244324000Y-144047000D02*
G01*
X244070000Y-144301000D01*
X243816000Y-143920000D01*
X244070000Y-143666000D01*
X244324000Y-144047000D01*
G37*
X244705000Y-144555000D02*
X244451000Y-144809000D01*
X244197000Y-144428000D01*
X244451000Y-144174000D01*
X244705000Y-144555000D01*
G36*
X244705000Y-144555000D02*
G01*
X244451000Y-144809000D01*
X244197000Y-144428000D01*
X244451000Y-144174000D01*
X244705000Y-144555000D01*
G37*
X245086000Y-144174000D02*
X244832000Y-144428000D01*
X244578000Y-144047000D01*
X244832000Y-143793000D01*
X245086000Y-144174000D01*
G36*
X245086000Y-144174000D02*
G01*
X244832000Y-144428000D01*
X244578000Y-144047000D01*
X244832000Y-143793000D01*
X245086000Y-144174000D01*
G37*
X245467000Y-143793000D02*
X245213000Y-144047000D01*
X244959000Y-143666000D01*
X245213000Y-143412000D01*
X245467000Y-143793000D01*
G36*
X245467000Y-143793000D02*
G01*
X245213000Y-144047000D01*
X244959000Y-143666000D01*
X245213000Y-143412000D01*
X245467000Y-143793000D01*
G37*
D15*
%TO.C,500K*%
X219630000Y-98000000D02*
X220580000Y-98000000D01*
X220580000Y-97080000D02*
X220580000Y-98920000D01*
X220580000Y-98920000D02*
X224420000Y-98920000D01*
X224420000Y-97080000D02*
X220580000Y-97080000D01*
X224420000Y-98920000D02*
X224420000Y-97080000D01*
X225370000Y-98000000D02*
X224420000Y-98000000D01*
%TO.C,C2*%
X242060000Y-126940000D02*
X250220000Y-126940000D01*
X242060000Y-126980000D02*
X250220000Y-126980000D01*
X242060000Y-127020000D02*
X250220000Y-127020000D01*
X242061000Y-126900000D02*
X250219000Y-126900000D01*
X242063000Y-126860000D02*
X250217000Y-126860000D01*
X242064000Y-126820000D02*
X250216000Y-126820000D01*
X242066000Y-126780000D02*
X250214000Y-126780000D01*
X242069000Y-126740000D02*
X250211000Y-126740000D01*
X242072000Y-126700000D02*
X250208000Y-126700000D01*
X242075000Y-126660000D02*
X250205000Y-126660000D01*
X242079000Y-126620000D02*
X250201000Y-126620000D01*
X242083000Y-126580000D02*
X250197000Y-126580000D01*
X242088000Y-126540000D02*
X250192000Y-126540000D01*
X242092000Y-126500000D02*
X250188000Y-126500000D01*
X242098000Y-126460000D02*
X250182000Y-126460000D01*
X242103000Y-126420000D02*
X250177000Y-126420000D01*
X242110000Y-126380000D02*
X250170000Y-126380000D01*
X242116000Y-126340000D02*
X250164000Y-126340000D01*
X242123000Y-126299000D02*
X250157000Y-126299000D01*
X242130000Y-126259000D02*
X250150000Y-126259000D01*
X242138000Y-126219000D02*
X250142000Y-126219000D01*
X242146000Y-126179000D02*
X250134000Y-126179000D01*
X242155000Y-126139000D02*
X245100000Y-126139000D01*
X242164000Y-126099000D02*
X245100000Y-126099000D01*
X242173000Y-126059000D02*
X245100000Y-126059000D01*
X242183000Y-126019000D02*
X245100000Y-126019000D01*
X242193000Y-125979000D02*
X245100000Y-125979000D01*
X242204000Y-125939000D02*
X245100000Y-125939000D01*
X242215000Y-125899000D02*
X245100000Y-125899000D01*
X242226000Y-125859000D02*
X245100000Y-125859000D01*
X242238000Y-125819000D02*
X245100000Y-125819000D01*
X242251000Y-125779000D02*
X245100000Y-125779000D01*
X242263000Y-125739000D02*
X245100000Y-125739000D01*
X242277000Y-125699000D02*
X245100000Y-125699000D01*
X242290000Y-125659000D02*
X245100000Y-125659000D01*
X242305000Y-125619000D02*
X245100000Y-125619000D01*
X242319000Y-125579000D02*
X245100000Y-125579000D01*
X242335000Y-125539000D02*
X245100000Y-125539000D01*
X242350000Y-125499000D02*
X245100000Y-125499000D01*
X242366000Y-125459000D02*
X245100000Y-125459000D01*
X242383000Y-125419000D02*
X245100000Y-125419000D01*
X242400000Y-125379000D02*
X245100000Y-125379000D01*
X242418000Y-125339000D02*
X245100000Y-125339000D01*
X242436000Y-125299000D02*
X245100000Y-125299000D01*
X242454000Y-125259000D02*
X245100000Y-125259000D01*
X242474000Y-125219000D02*
X245100000Y-125219000D01*
X242493000Y-125179000D02*
X245100000Y-125179000D01*
X242513000Y-125139000D02*
X245100000Y-125139000D01*
X242534000Y-125099000D02*
X245100000Y-125099000D01*
X242556000Y-125059000D02*
X245100000Y-125059000D01*
X242578000Y-125019000D02*
X245100000Y-125019000D01*
X242600000Y-124979000D02*
X245100000Y-124979000D01*
X242623000Y-124939000D02*
X245100000Y-124939000D01*
X242647000Y-124899000D02*
X245100000Y-124899000D01*
X242671000Y-124859000D02*
X245100000Y-124859000D01*
X242696000Y-124819000D02*
X245100000Y-124819000D01*
X242722000Y-124779000D02*
X245100000Y-124779000D01*
X242748000Y-124739000D02*
X245100000Y-124739000D01*
X242775000Y-124699000D02*
X245100000Y-124699000D01*
X242802000Y-124659000D02*
X245100000Y-124659000D01*
X242831000Y-124619000D02*
X245100000Y-124619000D01*
X242860000Y-124579000D02*
X245100000Y-124579000D01*
X242890000Y-124539000D02*
X245100000Y-124539000D01*
X242920000Y-124499000D02*
X245100000Y-124499000D01*
X242951000Y-124459000D02*
X245100000Y-124459000D01*
X242984000Y-124419000D02*
X245100000Y-124419000D01*
X243016000Y-124379000D02*
X245100000Y-124379000D01*
X243050000Y-124339000D02*
X245100000Y-124339000D01*
X243085000Y-124299000D02*
X245100000Y-124299000D01*
X243121000Y-124259000D02*
X245100000Y-124259000D01*
X243157000Y-124219000D02*
X245100000Y-124219000D01*
X243195000Y-124179000D02*
X245100000Y-124179000D01*
X243233000Y-124139000D02*
X245100000Y-124139000D01*
X243273000Y-124099000D02*
X245100000Y-124099000D01*
X243314000Y-124059000D02*
X248966000Y-124059000D01*
X243356000Y-124019000D02*
X248924000Y-124019000D01*
X243399000Y-123979000D02*
X248881000Y-123979000D01*
X243425000Y-131029698D02*
X244225000Y-131029698D01*
X243443000Y-123939000D02*
X248837000Y-123939000D01*
X243489000Y-123899000D02*
X248791000Y-123899000D01*
X243536000Y-123859000D02*
X248744000Y-123859000D01*
X243584000Y-123819000D02*
X248696000Y-123819000D01*
X243635000Y-123779000D02*
X248645000Y-123779000D01*
X243686000Y-123739000D02*
X248594000Y-123739000D01*
X243740000Y-123699000D02*
X248540000Y-123699000D01*
X243795000Y-123659000D02*
X248485000Y-123659000D01*
X243825000Y-131429698D02*
X243825000Y-130629698D01*
X243853000Y-123619000D02*
X248427000Y-123619000D01*
X243912000Y-123579000D02*
X248368000Y-123579000D01*
X243974000Y-123539000D02*
X248306000Y-123539000D01*
X244038000Y-123499000D02*
X248242000Y-123499000D01*
X244106000Y-123459000D02*
X248174000Y-123459000D01*
X244176000Y-123419000D02*
X248104000Y-123419000D01*
X244250000Y-123379000D02*
X248030000Y-123379000D01*
X244327000Y-123339000D02*
X247953000Y-123339000D01*
X244409000Y-123299000D02*
X247871000Y-123299000D01*
X244495000Y-123259000D02*
X247785000Y-123259000D01*
X244588000Y-123219000D02*
X247692000Y-123219000D01*
X244687000Y-123179000D02*
X247593000Y-123179000D01*
X244794000Y-123139000D02*
X247486000Y-123139000D01*
X244911000Y-123099000D02*
X247369000Y-123099000D01*
X245042000Y-123059000D02*
X247238000Y-123059000D01*
X245192000Y-123019000D02*
X247088000Y-123019000D01*
X245372000Y-122979000D02*
X246908000Y-122979000D01*
X245607000Y-122939000D02*
X246673000Y-122939000D01*
X247180000Y-124099000D02*
X249007000Y-124099000D01*
X247180000Y-124139000D02*
X249047000Y-124139000D01*
X247180000Y-124179000D02*
X249085000Y-124179000D01*
X247180000Y-124219000D02*
X249123000Y-124219000D01*
X247180000Y-124259000D02*
X249159000Y-124259000D01*
X247180000Y-124299000D02*
X249195000Y-124299000D01*
X247180000Y-124339000D02*
X249230000Y-124339000D01*
X247180000Y-124379000D02*
X249264000Y-124379000D01*
X247180000Y-124419000D02*
X249296000Y-124419000D01*
X247180000Y-124459000D02*
X249329000Y-124459000D01*
X247180000Y-124499000D02*
X249360000Y-124499000D01*
X247180000Y-124539000D02*
X249390000Y-124539000D01*
X247180000Y-124579000D02*
X249420000Y-124579000D01*
X247180000Y-124619000D02*
X249449000Y-124619000D01*
X247180000Y-124659000D02*
X249478000Y-124659000D01*
X247180000Y-124699000D02*
X249505000Y-124699000D01*
X247180000Y-124739000D02*
X249532000Y-124739000D01*
X247180000Y-124779000D02*
X249558000Y-124779000D01*
X247180000Y-124819000D02*
X249584000Y-124819000D01*
X247180000Y-124859000D02*
X249609000Y-124859000D01*
X247180000Y-124899000D02*
X249633000Y-124899000D01*
X247180000Y-124939000D02*
X249657000Y-124939000D01*
X247180000Y-124979000D02*
X249680000Y-124979000D01*
X247180000Y-125019000D02*
X249702000Y-125019000D01*
X247180000Y-125059000D02*
X249724000Y-125059000D01*
X247180000Y-125099000D02*
X249746000Y-125099000D01*
X247180000Y-125139000D02*
X249767000Y-125139000D01*
X247180000Y-125179000D02*
X249787000Y-125179000D01*
X247180000Y-125219000D02*
X249806000Y-125219000D01*
X247180000Y-125259000D02*
X249826000Y-125259000D01*
X247180000Y-125299000D02*
X249844000Y-125299000D01*
X247180000Y-125339000D02*
X249862000Y-125339000D01*
X247180000Y-125379000D02*
X249880000Y-125379000D01*
X247180000Y-125419000D02*
X249897000Y-125419000D01*
X247180000Y-125459000D02*
X249914000Y-125459000D01*
X247180000Y-125499000D02*
X249930000Y-125499000D01*
X247180000Y-125539000D02*
X249945000Y-125539000D01*
X247180000Y-125579000D02*
X249961000Y-125579000D01*
X247180000Y-125619000D02*
X249975000Y-125619000D01*
X247180000Y-125659000D02*
X249990000Y-125659000D01*
X247180000Y-125699000D02*
X250003000Y-125699000D01*
X247180000Y-125739000D02*
X250017000Y-125739000D01*
X247180000Y-125779000D02*
X250029000Y-125779000D01*
X247180000Y-125819000D02*
X250042000Y-125819000D01*
X247180000Y-125859000D02*
X250054000Y-125859000D01*
X247180000Y-125899000D02*
X250065000Y-125899000D01*
X247180000Y-125939000D02*
X250076000Y-125939000D01*
X247180000Y-125979000D02*
X250087000Y-125979000D01*
X247180000Y-126019000D02*
X250097000Y-126019000D01*
X247180000Y-126059000D02*
X250107000Y-126059000D01*
X247180000Y-126099000D02*
X250116000Y-126099000D01*
X247180000Y-126139000D02*
X250125000Y-126139000D01*
X250260000Y-127020000D02*
G75*
G02*
X242020000Y-127020000I-4120000J0D01*
G01*
X242020000Y-127020000D02*
G75*
G02*
X250260000Y-127020000I4120000J0D01*
G01*
%TO.C,ESC 5V In*%
X228615000Y-92981700D02*
X228615000Y-91651700D01*
X229945000Y-92981700D02*
X228615000Y-92981700D01*
X231215000Y-90321700D02*
X236355000Y-90321700D01*
X231215000Y-92981700D02*
X231215000Y-90321700D01*
X231215000Y-92981700D02*
X236355000Y-92981700D01*
X236355000Y-92981700D02*
X236355000Y-90321700D01*
%TO.C,C1*%
X242060000Y-115742700D02*
X250220000Y-115742700D01*
X242060000Y-115782700D02*
X250220000Y-115782700D01*
X242060000Y-115822700D02*
X250220000Y-115822700D01*
X242061000Y-115702700D02*
X250219000Y-115702700D01*
X242063000Y-115662700D02*
X250217000Y-115662700D01*
X242064000Y-115622700D02*
X250216000Y-115622700D01*
X242066000Y-115582700D02*
X250214000Y-115582700D01*
X242069000Y-115542700D02*
X250211000Y-115542700D01*
X242072000Y-115502700D02*
X250208000Y-115502700D01*
X242075000Y-115462700D02*
X250205000Y-115462700D01*
X242079000Y-115422700D02*
X250201000Y-115422700D01*
X242083000Y-115382700D02*
X250197000Y-115382700D01*
X242088000Y-115342700D02*
X250192000Y-115342700D01*
X242092000Y-115302700D02*
X250188000Y-115302700D01*
X242098000Y-115262700D02*
X250182000Y-115262700D01*
X242103000Y-115222700D02*
X250177000Y-115222700D01*
X242110000Y-115182700D02*
X250170000Y-115182700D01*
X242116000Y-115142700D02*
X250164000Y-115142700D01*
X242123000Y-115101700D02*
X250157000Y-115101700D01*
X242130000Y-115061700D02*
X250150000Y-115061700D01*
X242138000Y-115021700D02*
X250142000Y-115021700D01*
X242146000Y-114981700D02*
X250134000Y-114981700D01*
X242155000Y-114941700D02*
X245100000Y-114941700D01*
X242164000Y-114901700D02*
X245100000Y-114901700D01*
X242173000Y-114861700D02*
X245100000Y-114861700D01*
X242183000Y-114821700D02*
X245100000Y-114821700D01*
X242193000Y-114781700D02*
X245100000Y-114781700D01*
X242204000Y-114741700D02*
X245100000Y-114741700D01*
X242215000Y-114701700D02*
X245100000Y-114701700D01*
X242226000Y-114661700D02*
X245100000Y-114661700D01*
X242238000Y-114621700D02*
X245100000Y-114621700D01*
X242251000Y-114581700D02*
X245100000Y-114581700D01*
X242263000Y-114541700D02*
X245100000Y-114541700D01*
X242277000Y-114501700D02*
X245100000Y-114501700D01*
X242290000Y-114461700D02*
X245100000Y-114461700D01*
X242305000Y-114421700D02*
X245100000Y-114421700D01*
X242319000Y-114381700D02*
X245100000Y-114381700D01*
X242335000Y-114341700D02*
X245100000Y-114341700D01*
X242350000Y-114301700D02*
X245100000Y-114301700D01*
X242366000Y-114261700D02*
X245100000Y-114261700D01*
X242383000Y-114221700D02*
X245100000Y-114221700D01*
X242400000Y-114181700D02*
X245100000Y-114181700D01*
X242418000Y-114141700D02*
X245100000Y-114141700D01*
X242436000Y-114101700D02*
X245100000Y-114101700D01*
X242454000Y-114061700D02*
X245100000Y-114061700D01*
X242474000Y-114021700D02*
X245100000Y-114021700D01*
X242493000Y-113981700D02*
X245100000Y-113981700D01*
X242513000Y-113941700D02*
X245100000Y-113941700D01*
X242534000Y-113901700D02*
X245100000Y-113901700D01*
X242556000Y-113861700D02*
X245100000Y-113861700D01*
X242578000Y-113821700D02*
X245100000Y-113821700D01*
X242600000Y-113781700D02*
X245100000Y-113781700D01*
X242623000Y-113741700D02*
X245100000Y-113741700D01*
X242647000Y-113701700D02*
X245100000Y-113701700D01*
X242671000Y-113661700D02*
X245100000Y-113661700D01*
X242696000Y-113621700D02*
X245100000Y-113621700D01*
X242722000Y-113581700D02*
X245100000Y-113581700D01*
X242748000Y-113541700D02*
X245100000Y-113541700D01*
X242775000Y-113501700D02*
X245100000Y-113501700D01*
X242802000Y-113461700D02*
X245100000Y-113461700D01*
X242831000Y-113421700D02*
X245100000Y-113421700D01*
X242860000Y-113381700D02*
X245100000Y-113381700D01*
X242890000Y-113341700D02*
X245100000Y-113341700D01*
X242920000Y-113301700D02*
X245100000Y-113301700D01*
X242951000Y-113261700D02*
X245100000Y-113261700D01*
X242984000Y-113221700D02*
X245100000Y-113221700D01*
X243016000Y-113181700D02*
X245100000Y-113181700D01*
X243050000Y-113141700D02*
X245100000Y-113141700D01*
X243085000Y-113101700D02*
X245100000Y-113101700D01*
X243121000Y-113061700D02*
X245100000Y-113061700D01*
X243157000Y-113021700D02*
X245100000Y-113021700D01*
X243195000Y-112981700D02*
X245100000Y-112981700D01*
X243233000Y-112941700D02*
X245100000Y-112941700D01*
X243273000Y-112901700D02*
X245100000Y-112901700D01*
X243314000Y-112861700D02*
X248966000Y-112861700D01*
X243356000Y-112821700D02*
X248924000Y-112821700D01*
X243399000Y-112781700D02*
X248881000Y-112781700D01*
X243425000Y-119832398D02*
X244225000Y-119832398D01*
X243443000Y-112741700D02*
X248837000Y-112741700D01*
X243489000Y-112701700D02*
X248791000Y-112701700D01*
X243536000Y-112661700D02*
X248744000Y-112661700D01*
X243584000Y-112621700D02*
X248696000Y-112621700D01*
X243635000Y-112581700D02*
X248645000Y-112581700D01*
X243686000Y-112541700D02*
X248594000Y-112541700D01*
X243740000Y-112501700D02*
X248540000Y-112501700D01*
X243795000Y-112461700D02*
X248485000Y-112461700D01*
X243825000Y-120232398D02*
X243825000Y-119432398D01*
X243853000Y-112421700D02*
X248427000Y-112421700D01*
X243912000Y-112381700D02*
X248368000Y-112381700D01*
X243974000Y-112341700D02*
X248306000Y-112341700D01*
X244038000Y-112301700D02*
X248242000Y-112301700D01*
X244106000Y-112261700D02*
X248174000Y-112261700D01*
X244176000Y-112221700D02*
X248104000Y-112221700D01*
X244250000Y-112181700D02*
X248030000Y-112181700D01*
X244327000Y-112141700D02*
X247953000Y-112141700D01*
X244409000Y-112101700D02*
X247871000Y-112101700D01*
X244495000Y-112061700D02*
X247785000Y-112061700D01*
X244588000Y-112021700D02*
X247692000Y-112021700D01*
X244687000Y-111981700D02*
X247593000Y-111981700D01*
X244794000Y-111941700D02*
X247486000Y-111941700D01*
X244911000Y-111901700D02*
X247369000Y-111901700D01*
X245042000Y-111861700D02*
X247238000Y-111861700D01*
X245192000Y-111821700D02*
X247088000Y-111821700D01*
X245372000Y-111781700D02*
X246908000Y-111781700D01*
X245607000Y-111741700D02*
X246673000Y-111741700D01*
X247180000Y-112901700D02*
X249007000Y-112901700D01*
X247180000Y-112941700D02*
X249047000Y-112941700D01*
X247180000Y-112981700D02*
X249085000Y-112981700D01*
X247180000Y-113021700D02*
X249123000Y-113021700D01*
X247180000Y-113061700D02*
X249159000Y-113061700D01*
X247180000Y-113101700D02*
X249195000Y-113101700D01*
X247180000Y-113141700D02*
X249230000Y-113141700D01*
X247180000Y-113181700D02*
X249264000Y-113181700D01*
X247180000Y-113221700D02*
X249296000Y-113221700D01*
X247180000Y-113261700D02*
X249329000Y-113261700D01*
X247180000Y-113301700D02*
X249360000Y-113301700D01*
X247180000Y-113341700D02*
X249390000Y-113341700D01*
X247180000Y-113381700D02*
X249420000Y-113381700D01*
X247180000Y-113421700D02*
X249449000Y-113421700D01*
X247180000Y-113461700D02*
X249478000Y-113461700D01*
X247180000Y-113501700D02*
X249505000Y-113501700D01*
X247180000Y-113541700D02*
X249532000Y-113541700D01*
X247180000Y-113581700D02*
X249558000Y-113581700D01*
X247180000Y-113621700D02*
X249584000Y-113621700D01*
X247180000Y-113661700D02*
X249609000Y-113661700D01*
X247180000Y-113701700D02*
X249633000Y-113701700D01*
X247180000Y-113741700D02*
X249657000Y-113741700D01*
X247180000Y-113781700D02*
X249680000Y-113781700D01*
X247180000Y-113821700D02*
X249702000Y-113821700D01*
X247180000Y-113861700D02*
X249724000Y-113861700D01*
X247180000Y-113901700D02*
X249746000Y-113901700D01*
X247180000Y-113941700D02*
X249767000Y-113941700D01*
X247180000Y-113981700D02*
X249787000Y-113981700D01*
X247180000Y-114021700D02*
X249806000Y-114021700D01*
X247180000Y-114061700D02*
X249826000Y-114061700D01*
X247180000Y-114101700D02*
X249844000Y-114101700D01*
X247180000Y-114141700D02*
X249862000Y-114141700D01*
X247180000Y-114181700D02*
X249880000Y-114181700D01*
X247180000Y-114221700D02*
X249897000Y-114221700D01*
X247180000Y-114261700D02*
X249914000Y-114261700D01*
X247180000Y-114301700D02*
X249930000Y-114301700D01*
X247180000Y-114341700D02*
X249945000Y-114341700D01*
X247180000Y-114381700D02*
X249961000Y-114381700D01*
X247180000Y-114421700D02*
X249975000Y-114421700D01*
X247180000Y-114461700D02*
X249990000Y-114461700D01*
X247180000Y-114501700D02*
X250003000Y-114501700D01*
X247180000Y-114541700D02*
X250017000Y-114541700D01*
X247180000Y-114581700D02*
X250029000Y-114581700D01*
X247180000Y-114621700D02*
X250042000Y-114621700D01*
X247180000Y-114661700D02*
X250054000Y-114661700D01*
X247180000Y-114701700D02*
X250065000Y-114701700D01*
X247180000Y-114741700D02*
X250076000Y-114741700D01*
X247180000Y-114781700D02*
X250087000Y-114781700D01*
X247180000Y-114821700D02*
X250097000Y-114821700D01*
X247180000Y-114861700D02*
X250107000Y-114861700D01*
X247180000Y-114901700D02*
X250116000Y-114901700D01*
X247180000Y-114941700D02*
X250125000Y-114941700D01*
X250260000Y-115822700D02*
G75*
G02*
X242020000Y-115822700I-4120000J0D01*
G01*
X242020000Y-115822700D02*
G75*
G02*
X250260000Y-115822700I4120000J0D01*
G01*
%TO.C,3.3V Regulator*%
X253052000Y-111670000D02*
X253052000Y-122170000D01*
X255233000Y-111670000D02*
X255233000Y-113277000D01*
X255233000Y-115483000D02*
X255233000Y-115818000D01*
X255233000Y-118023000D02*
X255233000Y-118358000D01*
X255233000Y-120563000D02*
X255233000Y-122170000D01*
X257993000Y-111670000D02*
X253052000Y-111670000D01*
X257993000Y-111670000D02*
X257993000Y-122170000D01*
X257993000Y-115070000D02*
X255975000Y-115070000D01*
X257993000Y-118771000D02*
X255975000Y-118771000D01*
X257993000Y-122170000D02*
X253052000Y-122170000D01*
%TO.C,TP3*%
X226133300Y-116633300D02*
X227533300Y-116633300D01*
X226133300Y-118033300D02*
X226133300Y-116633300D01*
X227533300Y-116633300D02*
X227533300Y-118033300D01*
X227533300Y-118033300D02*
X226133300Y-118033300D01*
%TO.C,ESC Output*%
X240645000Y-92830000D02*
X240645000Y-91500000D01*
X241975000Y-92830000D02*
X240645000Y-92830000D01*
X243245000Y-90170000D02*
X248385000Y-90170000D01*
X243245000Y-92830000D02*
X243245000Y-90170000D01*
X243245000Y-92830000D02*
X248385000Y-92830000D01*
X248385000Y-92830000D02*
X248385000Y-90170000D01*
%TO.C,5V Regulator*%
X253149000Y-123760000D02*
X253149000Y-134000000D01*
X256280000Y-123760000D02*
X256280000Y-134000000D01*
X257790000Y-123760000D02*
X253149000Y-123760000D01*
X257790000Y-123760000D02*
X257790000Y-134000000D01*
X257790000Y-127030000D02*
X256280000Y-127030000D01*
X257790000Y-130731000D02*
X256280000Y-130731000D01*
X257790000Y-134000000D02*
X253149000Y-134000000D01*
%TO.C,U5*%
X201390000Y-102145000D02*
X201390000Y-91225000D01*
X203390000Y-102145000D02*
X201390000Y-102145000D01*
X203390000Y-106545000D02*
X203390000Y-102145000D01*
X205630000Y-93305000D02*
X205630000Y-91225000D01*
X205630000Y-93305000D02*
X211390000Y-93305000D01*
X206345000Y-106545000D02*
X206345000Y-108425000D01*
X206855000Y-106545000D02*
X206855000Y-108425000D01*
X208255000Y-106545000D02*
X208255000Y-108425000D01*
X208765000Y-106545000D02*
X208765000Y-108425000D01*
X210165000Y-106545000D02*
X210165000Y-108425000D01*
X210675000Y-106545000D02*
X210675000Y-108425000D01*
X211390000Y-93305000D02*
X211390000Y-91225000D01*
X213630000Y-102145000D02*
X215630000Y-102145000D01*
X213630000Y-106545000D02*
X203390000Y-106545000D01*
X213630000Y-106545000D02*
X213630000Y-102145000D01*
X215630000Y-102145000D02*
X215630000Y-91225000D01*
D16*
%TO.C,U1*%
X177911500Y-104063000D02*
X177911500Y-107619000D01*
X177911500Y-107619000D02*
X184515500Y-107619000D01*
X177911500Y-108381000D02*
X177911500Y-111937000D01*
X177911500Y-111937000D02*
X184515500Y-111937000D01*
X184515500Y-101713500D02*
X184515500Y-104063000D01*
X184515500Y-104063000D02*
X177911500Y-104063000D01*
X184515500Y-107619000D02*
X184515500Y-108381000D01*
X184515500Y-108381000D02*
X177911500Y-108381000D01*
X184515500Y-111937000D02*
X184515500Y-114286500D01*
X184515500Y-114286500D02*
X197088500Y-114286500D01*
X197088500Y-101713500D02*
X184515500Y-101713500D01*
X197088500Y-114286500D02*
X197088500Y-101713500D01*
D15*
%TO.C,500K*%
X219630000Y-101000000D02*
X220580000Y-101000000D01*
X220580000Y-100080000D02*
X220580000Y-101920000D01*
X220580000Y-101920000D02*
X224420000Y-101920000D01*
X224420000Y-100080000D02*
X220580000Y-100080000D01*
X224420000Y-101920000D02*
X224420000Y-100080000D01*
X225370000Y-101000000D02*
X224420000Y-101000000D01*
%TO.C,IR_Rx*%
X191670000Y-140630000D02*
X193000000Y-140630000D01*
X191670000Y-141960000D02*
X191670000Y-140630000D01*
X191670000Y-143230000D02*
X191670000Y-148370000D01*
X191670000Y-143230000D02*
X194330000Y-143230000D01*
X191670000Y-148370000D02*
X194330000Y-148370000D01*
X194330000Y-143230000D02*
X194330000Y-148370000D01*
%TO.C,J2*%
X245220000Y-99615000D02*
X245220000Y-110465000D01*
X245220000Y-110465000D02*
X257820000Y-110465000D01*
X250020000Y-100115000D02*
X250320000Y-99615000D01*
X250320000Y-99615000D02*
X245220000Y-99615000D01*
X255170000Y-99615000D02*
X255420000Y-100115000D01*
X255220000Y-99615000D02*
X255170000Y-99615000D01*
X255420000Y-100115000D02*
X250020000Y-100115000D01*
X256870000Y-100115000D02*
X257120000Y-99615000D01*
X257120000Y-99615000D02*
X255220000Y-99615000D01*
X257820000Y-100115000D02*
X256870000Y-100115000D01*
X257820000Y-110465000D02*
X257820000Y-100115000D01*
%TO.C,Potentiometer*%
X217615000Y-105970000D02*
X217615000Y-111040000D01*
X217615000Y-105970000D02*
X227385000Y-105970000D01*
X217615000Y-111040000D02*
X227385000Y-111040000D01*
X227385000Y-105970000D02*
X227385000Y-111040000D01*
D16*
%TO.C,U3*%
X177911500Y-124063000D02*
X177911500Y-127619000D01*
X177911500Y-127619000D02*
X184515500Y-127619000D01*
X177911500Y-128381000D02*
X177911500Y-131937000D01*
X177911500Y-131937000D02*
X184515500Y-131937000D01*
X184515500Y-121713500D02*
X184515500Y-124063000D01*
X184515500Y-124063000D02*
X177911500Y-124063000D01*
X184515500Y-127619000D02*
X184515500Y-128381000D01*
X184515500Y-128381000D02*
X177911500Y-128381000D01*
X184515500Y-131937000D02*
X184515500Y-134286500D01*
X184515500Y-134286500D02*
X197088500Y-134286500D01*
X197088500Y-121713500D02*
X184515500Y-121713500D01*
X197088500Y-134286500D02*
X197088500Y-121713500D01*
D15*
%TO.C,IR_Tx*%
X191670000Y-150395000D02*
X193000000Y-150395000D01*
X191670000Y-151725000D02*
X191670000Y-150395000D01*
X191670000Y-152995000D02*
X191670000Y-155595000D01*
X191670000Y-152995000D02*
X194330000Y-152995000D01*
X191670000Y-155595000D02*
X194330000Y-155595000D01*
X194330000Y-152995000D02*
X194330000Y-155595000D01*
%TD*%
M02*
