%TF.GenerationSoftware,KiCad,Pcbnew,8.0.6*%
%TF.CreationDate,2024-10-30T13:43:03-04:00*%
%TF.ProjectId,Propulsion PCB,50726f70-756c-4736-996f-6e205043422e,3*%
%TF.SameCoordinates,Original*%
%TF.FileFunction,Copper,L2,Bot*%
%TF.FilePolarity,Positive*%
%FSLAX46Y46*%
G04 Gerber Fmt 4.6, Leading zero omitted, Abs format (unit mm)*
G04 Created by KiCad (PCBNEW 8.0.6) date 2024-10-30 13:43:03*
%MOMM*%
%LPD*%
G01*
G04 APERTURE LIST*
G04 Aperture macros list*
%AMHorizOval*
0 Thick line with rounded ends*
0 $1 width*
0 $2 $3 position (X,Y) of the first rounded end (center of the circle)*
0 $4 $5 position (X,Y) of the second rounded end (center of the circle)*
0 Add line between two ends*
20,1,$1,$2,$3,$4,$5,0*
0 Add two circle primitives to create the rounded ends*
1,1,$1,$2,$3*
1,1,$1,$4,$5*%
G04 Aperture macros list end*
%TA.AperFunction,ComponentPad*%
%ADD10C,1.879600*%
%TD*%
%TA.AperFunction,ComponentPad*%
%ADD11C,1.600000*%
%TD*%
%TA.AperFunction,ComponentPad*%
%ADD12C,1.400000*%
%TD*%
%TA.AperFunction,ComponentPad*%
%ADD13O,1.400000X1.400000*%
%TD*%
%TA.AperFunction,ComponentPad*%
%ADD14R,1.600000X1.600000*%
%TD*%
%TA.AperFunction,ComponentPad*%
%ADD15R,1.700000X1.700000*%
%TD*%
%TA.AperFunction,ComponentPad*%
%ADD16O,1.700000X1.700000*%
%TD*%
%TA.AperFunction,ComponentPad*%
%ADD17C,2.000000*%
%TD*%
%TA.AperFunction,ComponentPad*%
%ADD18R,2.000000X1.905000*%
%TD*%
%TA.AperFunction,ComponentPad*%
%ADD19O,2.000000X1.905000*%
%TD*%
%TA.AperFunction,ComponentPad*%
%ADD20R,1.000000X1.000000*%
%TD*%
%TA.AperFunction,ComponentPad*%
%ADD21R,1.500000X1.500000*%
%TD*%
%TA.AperFunction,ComponentPad*%
%ADD22C,1.500000*%
%TD*%
%TA.AperFunction,ComponentPad*%
%ADD23HorizOval,0.800000X0.000000X0.000000X0.000000X0.000000X0*%
%TD*%
%TA.AperFunction,ComponentPad*%
%ADD24HorizOval,0.800000X0.000000X0.000000X0.000000X0.000000X0*%
%TD*%
%TA.AperFunction,ComponentPad*%
%ADD25C,0.800000*%
%TD*%
%TA.AperFunction,ComponentPad*%
%ADD26O,9.000000X6.000000*%
%TD*%
%TA.AperFunction,ComponentPad*%
%ADD27R,3.960000X1.980000*%
%TD*%
%TA.AperFunction,ComponentPad*%
%ADD28O,3.960000X1.980000*%
%TD*%
%TA.AperFunction,ComponentPad*%
%ADD29C,1.440000*%
%TD*%
%TA.AperFunction,ViaPad*%
%ADD30C,0.600000*%
%TD*%
%TA.AperFunction,Conductor*%
%ADD31C,0.200000*%
%TD*%
G04 APERTURE END LIST*
D10*
%TO.P,ADC,1,RED*%
%TO.N,unconnected-(U8-RED-Pad1)*%
X205420000Y-160940000D03*
%TO.P,ADC,2,BLK*%
%TO.N,unconnected-(U8-BLK-Pad2)*%
X207960000Y-160940000D03*
%TO.P,ADC,3,WHT*%
%TO.N,unconnected-(U8-WHT-Pad3)*%
X210500000Y-160940000D03*
%TO.P,ADC,4,GRN*%
%TO.N,unconnected-(U8-GRN-Pad4)*%
X213040000Y-160940000D03*
%TO.P,ADC,5,YLW*%
%TO.N,unconnected-(U8-YLW-Pad5)*%
X215580000Y-160940000D03*
%TO.P,ADC,6,GND*%
%TO.N,GND*%
X215580000Y-133000000D03*
%TO.P,ADC,7,CLK*%
%TO.N,Net-(U4-19_A5_SCL0)*%
X213040000Y-133000000D03*
%TO.P,ADC,8,DAT*%
%TO.N,Net-(U4-18_A4_SDA0)*%
X210500000Y-133000000D03*
%TO.P,ADC,9,VCC*%
%TO.N,+5V*%
X207960000Y-133000000D03*
%TO.P,ADC,10,VDD*%
X205420000Y-133000000D03*
%TD*%
D11*
%TO.P,Teensy 4.0,1,GND*%
%TO.N,unconnected-(U4-GND-Pad1)*%
X258040000Y-136300000D03*
%TO.P,Teensy 4.0,2,0_RX1_CRX2_CS1*%
%TO.N,unconnected-(U4-0_RX1_CRX2_CS1-Pad2)*%
X255500000Y-136300000D03*
%TO.P,Teensy 4.0,3,1_TX1_CTX2_MISO1*%
%TO.N,unconnected-(U4-1_TX1_CTX2_MISO1-Pad3)*%
X252960000Y-136300000D03*
%TO.P,Teensy 4.0,4,2_OUT2*%
%TO.N,Net-(J1-Pin_1)*%
X250420000Y-136300000D03*
%TO.P,Teensy 4.0,5,3_LRCLK2*%
%TO.N,unconnected-(U4-3_LRCLK2-Pad5)*%
X247880000Y-136300000D03*
%TO.P,Teensy 4.0,6,4_BCLK2*%
%TO.N,unconnected-(U4-4_BCLK2-Pad6)*%
X245340000Y-136300000D03*
%TO.P,Teensy 4.0,7,5_IN2*%
%TO.N,Net-(IR_Receiver1-Pin_1)*%
X242800000Y-136300000D03*
%TO.P,Teensy 4.0,8,6_OUT1D*%
%TO.N,unconnected-(U4-6_OUT1D-Pad8)*%
X240260000Y-136300000D03*
%TO.P,Teensy 4.0,9,7_RX2_OUT1A*%
%TO.N,unconnected-(U4-7_RX2_OUT1A-Pad9)*%
X237720000Y-136300000D03*
%TO.P,Teensy 4.0,10,8_TX2_IN1*%
%TO.N,unconnected-(U4-8_TX2_IN1-Pad10)*%
X235180000Y-136300000D03*
%TO.P,Teensy 4.0,11,9_OUT1C*%
%TO.N,unconnected-(U4-9_OUT1C-Pad11)*%
X232640000Y-136300000D03*
%TO.P,Teensy 4.0,12,10_CS_MQSR*%
%TO.N,unconnected-(U4-10_CS_MQSR-Pad12)*%
X230100000Y-136300000D03*
%TO.P,Teensy 4.0,13,11_MOSI_CTX1*%
%TO.N,unconnected-(U4-11_MOSI_CTX1-Pad13)*%
X227560000Y-136300000D03*
%TO.P,Teensy 4.0,14,12_MISO_MQSL*%
%TO.N,unconnected-(U4-12_MISO_MQSL-Pad14)*%
X225020000Y-136300000D03*
%TO.P,Teensy 4.0,20,13_SCK_CRX1_LED*%
%TO.N,unconnected-(U4-13_SCK_CRX1_LED-Pad20)*%
X225020000Y-151540000D03*
%TO.P,Teensy 4.0,21,14_A0_TX3_SPDIF_OUT*%
%TO.N,Net-(U1-VOUT)*%
X227560000Y-151540000D03*
%TO.P,Teensy 4.0,22,15_A1_RX3_SPDIF_IN*%
%TO.N,Net-(U3-VOUT)*%
X230100000Y-151540000D03*
%TO.P,Teensy 4.0,23,16_A2_RX4_SCL1*%
%TO.N,Net-(U4-16_A2_RX4_SCL1)*%
X232640000Y-151540000D03*
%TO.P,Teensy 4.0,24,17_A3_TX4_SDA1*%
%TO.N,Net-(U4-17_A3_TX4_SDA1)*%
X235180000Y-151540000D03*
%TO.P,Teensy 4.0,25,18_A4_SDA0*%
%TO.N,Net-(U4-18_A4_SDA0)*%
X237720000Y-151540000D03*
%TO.P,Teensy 4.0,26,19_A5_SCL0*%
%TO.N,Net-(U4-19_A5_SCL0)*%
X240260000Y-151540000D03*
%TO.P,Teensy 4.0,27,20_A6_TX5_LRCLK1*%
%TO.N,unconnected-(U4-20_A6_TX5_LRCLK1-Pad27)*%
X242800000Y-151540000D03*
%TO.P,Teensy 4.0,28,21_A7_RX5_BCLK1*%
%TO.N,unconnected-(U4-21_A7_RX5_BCLK1-Pad28)*%
X245340000Y-151540000D03*
%TO.P,Teensy 4.0,29,22_A8_CTX1*%
%TO.N,unconnected-(U4-22_A8_CTX1-Pad29)*%
X247880000Y-151540000D03*
%TO.P,Teensy 4.0,30,23_A9_CRX1_MCLK1*%
%TO.N,unconnected-(U4-23_A9_CRX1_MCLK1-Pad30)*%
X250420000Y-151540000D03*
%TO.P,Teensy 4.0,31,3V3*%
%TO.N,unconnected-(U4-3V3-Pad31)*%
X252960000Y-151540000D03*
%TO.P,Teensy 4.0,32,GND*%
%TO.N,GND*%
X255500000Y-151540000D03*
%TO.P,Teensy 4.0,33,VIN*%
%TO.N,+5V*%
X258040000Y-151540000D03*
%TD*%
D12*
%TO.P,500K,1*%
%TO.N,+BATT*%
X218690000Y-98000000D03*
D13*
%TO.P,500K,2*%
%TO.N,Net-(R2-Pad2)*%
X226310000Y-98000000D03*
%TD*%
D14*
%TO.P,C2,1*%
%TO.N,+5V*%
X246140000Y-128920000D03*
D11*
%TO.P,C2,2*%
%TO.N,GND*%
X246140000Y-125120000D03*
%TD*%
D15*
%TO.P,ESC 5V In,1,Pin_1*%
%TO.N,unconnected-(J4-Pin_1-Pad1)*%
X229945000Y-91651700D03*
D16*
%TO.P,ESC 5V In,2,Pin_2*%
%TO.N,Net-(J1-Pin_2)*%
X232485000Y-91651700D03*
%TO.P,ESC 5V In,3,Pin_3*%
%TO.N,GND*%
X235025000Y-91651700D03*
%TD*%
D14*
%TO.P,C1,1*%
%TO.N,+3V3*%
X246140000Y-117722700D03*
D11*
%TO.P,C1,2*%
%TO.N,GND*%
X246140000Y-113922700D03*
%TD*%
D17*
%TO.P,BATT-,1,1*%
%TO.N,-BATT*%
X223500000Y-91500000D03*
%TD*%
D18*
%TO.P,3.3V Regulator,1,GND*%
%TO.N,GND*%
X254825000Y-114380000D03*
D19*
%TO.P,3.3V Regulator,2,VO*%
%TO.N,+3V3*%
X254825000Y-116920000D03*
%TO.P,3.3V Regulator,3,VI*%
%TO.N,+12V*%
X254825000Y-119460000D03*
%TD*%
D20*
%TO.P,TP3,1,1*%
%TO.N,Net-(U4-17_A3_TX4_SDA1)*%
X226833300Y-117333300D03*
%TD*%
D15*
%TO.P,ESC Output,1,Pin_1*%
%TO.N,Net-(J1-Pin_1)*%
X241975000Y-91500000D03*
D16*
%TO.P,ESC Output,2,Pin_2*%
%TO.N,Net-(J1-Pin_2)*%
X244515000Y-91500000D03*
%TO.P,ESC Output,3,Pin_3*%
%TO.N,GND*%
X247055000Y-91500000D03*
%TD*%
D18*
%TO.P,5V Regulator,1,VI*%
%TO.N,+12V*%
X254520000Y-126340000D03*
D19*
%TO.P,5V Regulator,2,GND*%
%TO.N,GND*%
X254520000Y-128880000D03*
%TO.P,5V Regulator,3,VO*%
%TO.N,+5V*%
X254520000Y-131420000D03*
%TD*%
D21*
%TO.P,U5,1,VCC*%
%TO.N,+3V3*%
X206600000Y-109325000D03*
D22*
%TO.P,U5,2,GND*%
%TO.N,GND*%
X208510000Y-109325000D03*
%TO.P,U5,3,VIOUT*%
%TO.N,Net-(U4-16_A2_RX4_SCL1)*%
X210420000Y-109325000D03*
D23*
%TO.P,U5,4,IP+*%
%TO.N,+BATT*%
X209560000Y-87295000D03*
D24*
X209560000Y-88555000D03*
D25*
X210310000Y-86265000D03*
X210310000Y-89585000D03*
X211510000Y-85875000D03*
X211510000Y-89975000D03*
X212840000Y-85875000D03*
X212840000Y-89975000D03*
D26*
X213510000Y-87925000D03*
D25*
X214180000Y-85875000D03*
X214180000Y-89975000D03*
X215510000Y-85875000D03*
X215510000Y-89975000D03*
X216710000Y-86265000D03*
X216710000Y-89585000D03*
X217460000Y-87295000D03*
X217460000Y-88555000D03*
%TO.P,U5,5,IP-*%
%TO.N,unconnected-(U5-IP--Pad5)*%
X199560000Y-87295000D03*
X199560000Y-88555000D03*
X200310000Y-86265000D03*
X200310000Y-89585000D03*
X201510000Y-85875000D03*
X201510000Y-89975000D03*
X202840000Y-85875000D03*
X202840000Y-89975000D03*
D26*
X203510000Y-87925000D03*
D25*
X204180000Y-85875000D03*
X204180000Y-89975000D03*
X205510000Y-85875000D03*
X205510000Y-89975000D03*
X206710000Y-86265000D03*
X206710000Y-89585000D03*
D24*
X207460000Y-87295000D03*
D23*
X207460000Y-88555000D03*
%TD*%
D12*
%TO.P,500K,1*%
%TO.N,Net-(R2-Pad2)*%
X218690000Y-101000000D03*
D13*
%TO.P,500K,2*%
%TO.N,Net-(U4-17_A3_TX4_SDA1)*%
X226310000Y-101000000D03*
%TD*%
D15*
%TO.P,IR_Rx,1,Pin_1*%
%TO.N,Net-(IR_Receiver1-Pin_1)*%
X193000000Y-141960000D03*
D16*
%TO.P,IR_Rx,2,Pin_2*%
%TO.N,+3V3*%
X193000000Y-144500000D03*
%TO.P,IR_Rx,3,Pin_3*%
%TO.N,GND*%
X193000000Y-147040000D03*
%TD*%
D27*
%TO.P,J2,1,Pin_1*%
%TO.N,+12V*%
X251520000Y-107815000D03*
D28*
%TO.P,J2,2,Pin_2*%
%TO.N,GND*%
X251520000Y-102815000D03*
%TD*%
D29*
%TO.P,Potentiometer,1*%
%TO.N,Net-(U4-17_A3_TX4_SDA1)*%
X225040000Y-108500000D03*
%TO.P,Potentiometer,2*%
%TO.N,-BATT*%
X222500000Y-108500000D03*
%TO.P,Potentiometer,3*%
%TO.N,N/C*%
X219960000Y-108500000D03*
%TD*%
D15*
%TO.P,IR_Tx,1,Pin_1*%
%TO.N,+3V3*%
X193000000Y-151725000D03*
D16*
%TO.P,IR_Tx,2,Pin_2*%
%TO.N,GND*%
X193000000Y-154265000D03*
%TD*%
D30*
%TO.N,GND*%
X194186900Y-138845000D03*
%TO.N,Net-(U1-VOUT)*%
X198500000Y-117735500D03*
%TO.N,Net-(U4-18_A4_SDA0)*%
X212000000Y-138000000D03*
%TD*%
D31*
%TO.N,Net-(U1-VOUT)*%
X223251900Y-152687100D02*
X226412900Y-152687100D01*
X198500000Y-127935200D02*
X223251900Y-152687100D01*
X198500000Y-117735500D02*
X198500000Y-127935200D01*
X226412900Y-152687100D02*
X227560000Y-151540000D01*
%TO.N,Net-(U4-19_A5_SCL0)*%
X231511600Y-151320200D02*
X226691400Y-146500000D01*
X223465700Y-146500000D02*
X213040000Y-136074300D01*
X232180900Y-152650700D02*
X231511600Y-151981400D01*
X213040000Y-136074300D02*
X213040000Y-133000000D01*
X239149300Y-152650700D02*
X232180900Y-152650700D01*
X240260000Y-151540000D02*
X239149300Y-152650700D01*
X231511600Y-151981400D02*
X231511600Y-151320200D01*
X226691400Y-146500000D02*
X223465700Y-146500000D01*
%TO.N,Net-(U4-16_A2_RX4_SCL1)*%
X218939800Y-137839800D02*
X232640000Y-151540000D01*
X218939800Y-117844800D02*
X218939800Y-137839800D01*
X210420000Y-109325000D02*
X218939800Y-117844800D01*
X228998300Y-146927600D02*
X228995900Y-146927600D01*
%TO.N,Net-(U4-17_A3_TX4_SDA1)*%
X231370000Y-122671700D02*
X226833300Y-118135000D01*
X231370000Y-146370000D02*
X231370000Y-122671700D01*
X232935000Y-147730000D02*
X232730000Y-147730000D01*
X232730000Y-147730000D02*
X231370000Y-146370000D01*
X226833300Y-118135000D02*
X226833300Y-117333300D01*
X235180000Y-151540000D02*
X235180000Y-149975000D01*
X235180000Y-149975000D02*
X232935000Y-147730000D01*
%TO.N,Net-(U4-18_A4_SDA0)*%
X210500000Y-136500000D02*
X212000000Y-138000000D01*
X210500000Y-133000000D02*
X210500000Y-136500000D01*
%TO.N,Net-(J1-Pin_1)*%
X241975000Y-91500000D02*
X241975000Y-127855000D01*
%TO.N,+12V*%
X254520000Y-125085800D02*
X254825000Y-124780800D01*
X251520000Y-115468000D02*
X254257800Y-118205800D01*
X254520000Y-126340000D02*
X254520000Y-125085800D01*
X254825000Y-124780800D02*
X254825000Y-119460000D01*
X251520000Y-107815000D02*
X251520000Y-115468000D01*
X254257800Y-118205800D02*
X254825000Y-118205800D01*
X254825000Y-119460000D02*
X254825000Y-118205800D01*
%TO.N,+3V3*%
X193000000Y-151725000D02*
X193000000Y-150573300D01*
X193000000Y-150573300D02*
X191837500Y-149410800D01*
X191837500Y-146545700D02*
X192731500Y-145651700D01*
X192731500Y-145651700D02*
X193000000Y-145651700D01*
X191837500Y-149410800D02*
X191837500Y-146545700D01*
X193000000Y-144500000D02*
X193000000Y-145651700D01*
%TO.N,GND*%
X208510000Y-109325000D02*
X215580000Y-116395000D01*
X253952800Y-130134200D02*
X254520000Y-130134200D01*
X254520000Y-128880000D02*
X254520000Y-130134200D01*
X255500000Y-151540000D02*
X251830400Y-147870400D01*
X194186900Y-146428900D02*
X194186900Y-138845000D01*
X251830400Y-147870400D02*
X251830400Y-132256600D01*
X193000000Y-147615800D02*
X193000000Y-148191700D01*
X193000000Y-147615800D02*
X194186900Y-146428900D01*
X254825000Y-107411700D02*
X254825000Y-114380000D01*
X215580000Y-116395000D02*
X215580000Y-133000000D01*
X194164600Y-152740500D02*
X194164600Y-149356300D01*
X251830400Y-132256600D02*
X253952800Y-130134200D01*
X194164600Y-149356300D02*
X193000000Y-148191700D01*
X251520000Y-103460800D02*
X247055000Y-98995800D01*
X193791800Y-153113300D02*
X194164600Y-152740500D01*
X193000000Y-153113300D02*
X193791800Y-153113300D01*
X193000000Y-147040000D02*
X193000000Y-147615800D01*
X251520000Y-104106700D02*
X254825000Y-107411700D01*
X251520000Y-102815000D02*
X251520000Y-103460800D01*
X247241700Y-124018300D02*
X246140000Y-125120000D01*
X247055000Y-98995800D02*
X247055000Y-91500000D01*
X251520000Y-103460800D02*
X251520000Y-104106700D01*
X246140000Y-113922700D02*
X247241700Y-115024400D01*
X247241700Y-115024400D02*
X247241700Y-124018300D01*
X193000000Y-154265000D02*
X193000000Y-153113300D01*
%TO.N,-BATT*%
X222500000Y-92500000D02*
X222500000Y-108500000D01*
X223500000Y-91500000D02*
X222500000Y-92500000D01*
%TO.N,Net-(J1-Pin_1)*%
X250420000Y-136300000D02*
X241975000Y-127855000D01*
%TO.N,+5V*%
X258040000Y-142438800D02*
X254375000Y-138773800D01*
X254520000Y-131420000D02*
X254520000Y-132674200D01*
X254375000Y-132819200D02*
X254520000Y-132674200D01*
X258040000Y-151540000D02*
X258040000Y-142438800D01*
X254375000Y-138773800D02*
X254375000Y-132819200D01*
%TO.N,+BATT*%
X216710000Y-96020000D02*
X218690000Y-98000000D01*
X216710000Y-89585000D02*
X216710000Y-96020000D01*
X210310000Y-89585000D02*
X210011800Y-89286800D01*
X210011800Y-89286800D02*
X209901300Y-89286800D01*
X216710000Y-89305000D02*
X216710000Y-89585000D01*
X217460000Y-88555000D02*
X216710000Y-89305000D01*
X209560000Y-88555000D02*
X209901300Y-89286800D01*
%TO.N,Net-(U4-17_A3_TX4_SDA1)*%
X225040000Y-114738300D02*
X226833300Y-116531600D01*
X225040000Y-108500000D02*
X225040000Y-114738300D01*
X226833300Y-117333300D02*
X226833300Y-116531600D01*
X225040000Y-103271700D02*
X225040000Y-108500000D01*
X226310000Y-101000000D02*
X226310000Y-102001700D01*
X226310000Y-102001700D02*
X225040000Y-103271700D01*
%TO.N,unconnected-(U5-IP--Pad5)*%
X207118700Y-89286800D02*
X207008200Y-89286800D01*
X207460000Y-88555000D02*
X207118700Y-89286800D01*
X207008200Y-89286800D02*
X206710000Y-89585000D01*
X200310000Y-89585000D02*
X199560000Y-88835000D01*
X199560000Y-88835000D02*
X199560000Y-88555000D01*
%TD*%
M02*
