M48
; DRILL file {KiCad 8.0.6} date 2024-10-30T13:43:06-0400
; FORMAT={-:-/ absolute / inch / decimal}
; #@! TF.CreationDate,2024-10-30T13:43:06-04:00
; #@! TF.GenerationSoftware,Kicad,Pcbnew,8.0.6
; #@! TF.FileFunction,Plated,1,2,PTH
FMAT,2
INCH
; #@! TA.AperFunction,Plated,PTH,ViaDrill
T1C0.0118
; #@! TA.AperFunction,Plated,PTH,ComponentDrill
T2C0.0197
; #@! TA.AperFunction,Plated,PTH,ComponentDrill
T3C0.0276
; #@! TA.AperFunction,Plated,PTH,ComponentDrill
T4C0.0315
; #@! TA.AperFunction,Plated,PTH,ComponentDrill
T5C0.0394
; #@! TA.AperFunction,Plated,PTH,ComponentDrill
T6C0.0400
; #@! TA.AperFunction,Plated,PTH,ComponentDrill
T7C0.0433
; #@! TA.AperFunction,Plated,PTH,ComponentDrill
T8C0.0472
; #@! TA.AperFunction,Plated,PTH,ComponentDrill
T9C0.0492
; #@! TA.AperFunction,Plated,PTH,ComponentDrill
T10C0.0520
; #@! TA.AperFunction,Plated,PTH,ComponentDrill
T11C0.0787
%
G90
G05
T1
X7.6452Y-5.4663
X7.815Y-4.6353
X8.3465Y-5.4331
T2
X7.8567Y-3.4368
X7.8567Y-3.4864
X7.8862Y-3.3963
X7.8862Y-3.527
X7.9335Y-3.3809
X7.9335Y-3.5423
X7.9858Y-3.3809
X7.9858Y-3.5423
X8.0386Y-3.3809
X8.0386Y-3.5423
X8.0909Y-3.3809
X8.0909Y-3.5423
X8.1382Y-3.3963
X8.1382Y-3.527
X8.1677Y-3.4368
X8.1677Y-3.4864
X8.2504Y-3.4368
X8.2504Y-3.4864
X8.2799Y-3.3963
X8.2799Y-3.527
X8.3272Y-3.3809
X8.3272Y-3.5423
X8.3795Y-3.3809
X8.3795Y-3.5423
X8.4323Y-3.3809
X8.4323Y-3.5423
X8.4846Y-3.3809
X8.4846Y-3.5423
X8.5319Y-3.3963
X8.5319Y-3.527
X8.5614Y-3.4368
X8.5614Y-3.4864
X8.9304Y-4.6194
T3
X8.6098Y-3.8583
X8.6098Y-3.9764
X8.9098Y-3.8583
X8.9098Y-3.9764
T4
X8.1339Y-4.3041
X8.2091Y-4.3041
X8.2843Y-4.3041
X8.6598Y-4.2717
X8.7598Y-4.2717
X8.8598Y-4.2717
X9.6906Y-4.4851
X9.6906Y-4.6348
X9.6906Y-4.926
X9.6906Y-5.0756
T5
X7.5984Y-5.589
X7.5984Y-5.689
X7.5984Y-5.789
X7.5984Y-5.9734
X7.5984Y-6.0734
X9.053Y-3.6083
X9.153Y-3.6083
X9.253Y-3.6083
X9.5266Y-3.6024
X9.6266Y-3.6024
X9.7266Y-3.6024
T6
X8.0874Y-5.2362
X8.0874Y-6.3362
X8.1874Y-5.2362
X8.1874Y-6.3362
X8.2874Y-5.2362
X8.2874Y-6.3362
X8.3874Y-5.2362
X8.3874Y-6.3362
X8.4874Y-5.2362
X8.4874Y-6.3362
T7
X8.8591Y-5.3661
X8.8591Y-5.9661
X8.9591Y-5.3661
X8.9591Y-5.9661
X9.0591Y-5.3661
X9.0591Y-5.9661
X9.1591Y-5.3661
X9.1591Y-5.9661
X9.2591Y-5.3661
X9.2591Y-5.9661
X9.3591Y-5.3661
X9.3591Y-5.9661
X9.4591Y-5.3661
X9.4591Y-5.9661
X9.5591Y-5.3661
X9.5591Y-5.9661
X9.6591Y-5.3661
X9.6591Y-5.9661
X9.7591Y-5.3661
X9.7591Y-5.9661
X9.8591Y-5.3661
X9.8591Y-5.9661
X9.9591Y-5.3661
X9.9591Y-5.9661
X10.0205Y-4.974
X10.0205Y-5.074
X10.0205Y-5.174
X10.0591Y-5.3661
X10.0591Y-5.9661
X10.1591Y-5.3661
X10.1591Y-5.9661
T8
X10.0325Y-4.5031
X10.0325Y-4.6031
X10.0325Y-4.7031
T9
X8.7992Y-3.6024
T10
X9.9024Y-4.0478
X9.9024Y-4.2447
T11
G00X7.9335Y-3.4616
M15
G01X8.0909Y-3.4616
M16
G05
G00X8.3272Y-3.4616
M15
G01X8.4846Y-3.4616
M16
G05
M30
