%TF.GenerationSoftware,KiCad,Pcbnew,8.0.6*%
%TF.CreationDate,2024-10-30T13:43:03-04:00*%
%TF.ProjectId,Propulsion PCB,50726f70-756c-4736-996f-6e205043422e,3*%
%TF.SameCoordinates,Original*%
%TF.FileFunction,Soldermask,Bot*%
%TF.FilePolarity,Negative*%
%FSLAX46Y46*%
G04 Gerber Fmt 4.6, Leading zero omitted, Abs format (unit mm)*
G04 Created by KiCad (PCBNEW 8.0.6) date 2024-10-30 13:43:03*
%MOMM*%
%LPD*%
G01*
G04 APERTURE LIST*
G04 Aperture macros list*
%AMHorizOval*
0 Thick line with rounded ends*
0 $1 width*
0 $2 $3 position (X,Y) of the first rounded end (center of the circle)*
0 $4 $5 position (X,Y) of the second rounded end (center of the circle)*
0 Add line between two ends*
20,1,$1,$2,$3,$4,$5,0*
0 Add two circle primitives to create the rounded ends*
1,1,$1,$2,$3*
1,1,$1,$4,$5*%
G04 Aperture macros list end*
%ADD10C,2.083600*%
%ADD11C,1.600000*%
%ADD12C,3.000000*%
%ADD13C,1.400000*%
%ADD14O,1.400000X1.400000*%
%ADD15R,1.600000X1.600000*%
%ADD16R,1.700000X1.700000*%
%ADD17O,1.700000X1.700000*%
%ADD18C,2.000000*%
%ADD19R,2.000000X1.905000*%
%ADD20O,2.000000X1.905000*%
%ADD21R,1.000000X1.000000*%
%ADD22R,1.500000X1.500000*%
%ADD23C,1.500000*%
%ADD24HorizOval,0.800000X0.000000X0.000000X0.000000X0.000000X0*%
%ADD25HorizOval,0.800000X0.000000X0.000000X0.000000X0.000000X0*%
%ADD26C,0.800000*%
%ADD27O,9.000000X6.000000*%
%ADD28R,3.960000X1.980000*%
%ADD29O,3.960000X1.980000*%
%ADD30C,1.440000*%
G04 APERTURE END LIST*
D10*
%TO.C,ADC*%
X205420000Y-160940000D03*
X207960000Y-160940000D03*
X210500000Y-160940000D03*
X213040000Y-160940000D03*
X215580000Y-160940000D03*
X215580000Y-133000000D03*
X213040000Y-133000000D03*
X210500000Y-133000000D03*
X207960000Y-133000000D03*
X205420000Y-133000000D03*
%TD*%
D11*
%TO.C,Teensy 4.0*%
X258040000Y-136300000D03*
X255500000Y-136300000D03*
X252960000Y-136300000D03*
X250420000Y-136300000D03*
X247880000Y-136300000D03*
X245340000Y-136300000D03*
X242800000Y-136300000D03*
X240260000Y-136300000D03*
X237720000Y-136300000D03*
X235180000Y-136300000D03*
X232640000Y-136300000D03*
X230100000Y-136300000D03*
X227560000Y-136300000D03*
X225020000Y-136300000D03*
X225020000Y-151540000D03*
X227560000Y-151540000D03*
X230100000Y-151540000D03*
X232640000Y-151540000D03*
X235180000Y-151540000D03*
X237720000Y-151540000D03*
X240260000Y-151540000D03*
X242800000Y-151540000D03*
X245340000Y-151540000D03*
X247880000Y-151540000D03*
X250420000Y-151540000D03*
X252960000Y-151540000D03*
X255500000Y-151540000D03*
X258040000Y-151540000D03*
%TD*%
D12*
%TO.C,H2*%
X256000000Y-91500000D03*
%TD*%
D13*
%TO.C,500K*%
X218690000Y-98000000D03*
D14*
X226310000Y-98000000D03*
%TD*%
D15*
%TO.C,C2*%
X246140000Y-128920000D03*
D11*
X246140000Y-125120000D03*
%TD*%
D16*
%TO.C,ESC 5V In*%
X229945000Y-91651700D03*
D17*
X232485000Y-91651700D03*
X235025000Y-91651700D03*
%TD*%
D15*
%TO.C,C1*%
X246140000Y-117722700D03*
D11*
X246140000Y-113922700D03*
%TD*%
D18*
%TO.C,BATT-*%
X223500000Y-91500000D03*
%TD*%
D19*
%TO.C,3.3V Regulator*%
X254825000Y-114380000D03*
D20*
X254825000Y-116920000D03*
X254825000Y-119460000D03*
%TD*%
D21*
%TO.C,TP3*%
X226833300Y-117333300D03*
%TD*%
D12*
%TO.C,H3*%
X256000000Y-159500000D03*
%TD*%
D16*
%TO.C,ESC Output*%
X241975000Y-91500000D03*
D17*
X244515000Y-91500000D03*
X247055000Y-91500000D03*
%TD*%
D12*
%TO.C,H1*%
X188000000Y-91500000D03*
%TD*%
D19*
%TO.C,5V Regulator*%
X254520000Y-126340000D03*
D20*
X254520000Y-128880000D03*
X254520000Y-131420000D03*
%TD*%
D22*
%TO.C,U5*%
X206600000Y-109325000D03*
D23*
X208510000Y-109325000D03*
X210420000Y-109325000D03*
D24*
X209560000Y-87295000D03*
D25*
X209560000Y-88555000D03*
D26*
X210310000Y-86265000D03*
X210310000Y-89585000D03*
X211510000Y-85875000D03*
X211510000Y-89975000D03*
X212840000Y-85875000D03*
X212840000Y-89975000D03*
D27*
X213510000Y-87925000D03*
D26*
X214180000Y-85875000D03*
X214180000Y-89975000D03*
X215510000Y-85875000D03*
X215510000Y-89975000D03*
X216710000Y-86265000D03*
X216710000Y-89585000D03*
X217460000Y-87295000D03*
X217460000Y-88555000D03*
X199560000Y-87295000D03*
X199560000Y-88555000D03*
X200310000Y-86265000D03*
X200310000Y-89585000D03*
X201510000Y-85875000D03*
X201510000Y-89975000D03*
X202840000Y-85875000D03*
X202840000Y-89975000D03*
D27*
X203510000Y-87925000D03*
D26*
X204180000Y-85875000D03*
X204180000Y-89975000D03*
X205510000Y-85875000D03*
X205510000Y-89975000D03*
X206710000Y-86265000D03*
X206710000Y-89585000D03*
D25*
X207460000Y-87295000D03*
D24*
X207460000Y-88555000D03*
%TD*%
D13*
%TO.C,500K*%
X218690000Y-101000000D03*
D14*
X226310000Y-101000000D03*
%TD*%
D16*
%TO.C,IR_Rx*%
X193000000Y-141960000D03*
D17*
X193000000Y-144500000D03*
X193000000Y-147040000D03*
%TD*%
D28*
%TO.C,J2*%
X251520000Y-107815000D03*
D29*
X251520000Y-102815000D03*
%TD*%
D12*
%TO.C,H4*%
X188000000Y-159000000D03*
%TD*%
D30*
%TO.C,Potentiometer*%
X225040000Y-108500000D03*
X222500000Y-108500000D03*
X219960000Y-108500000D03*
%TD*%
D16*
%TO.C,IR_Tx*%
X193000000Y-151725000D03*
D17*
X193000000Y-154265000D03*
%TD*%
M02*
