%TF.GenerationSoftware,KiCad,Pcbnew,8.0.6*%
%TF.CreationDate,2024-10-30T13:43:03-04:00*%
%TF.ProjectId,Propulsion PCB,50726f70-756c-4736-996f-6e205043422e,3*%
%TF.SameCoordinates,Original*%
%TF.FileFunction,Copper,L1,Top*%
%TF.FilePolarity,Positive*%
%FSLAX46Y46*%
G04 Gerber Fmt 4.6, Leading zero omitted, Abs format (unit mm)*
G04 Created by KiCad (PCBNEW 8.0.6) date 2024-10-30 13:43:03*
%MOMM*%
%LPD*%
G01*
G04 APERTURE LIST*
G04 Aperture macros list*
%AMHorizOval*
0 Thick line with rounded ends*
0 $1 width*
0 $2 $3 position (X,Y) of the first rounded end (center of the circle)*
0 $4 $5 position (X,Y) of the second rounded end (center of the circle)*
0 Add line between two ends*
20,1,$1,$2,$3,$4,$5,0*
0 Add two circle primitives to create the rounded ends*
1,1,$1,$2,$3*
1,1,$1,$4,$5*%
G04 Aperture macros list end*
%TA.AperFunction,ComponentPad*%
%ADD10C,1.879600*%
%TD*%
%TA.AperFunction,ComponentPad*%
%ADD11C,1.600000*%
%TD*%
%TA.AperFunction,ComponentPad*%
%ADD12C,1.400000*%
%TD*%
%TA.AperFunction,ComponentPad*%
%ADD13O,1.400000X1.400000*%
%TD*%
%TA.AperFunction,ComponentPad*%
%ADD14R,1.600000X1.600000*%
%TD*%
%TA.AperFunction,ComponentPad*%
%ADD15R,1.700000X1.700000*%
%TD*%
%TA.AperFunction,ComponentPad*%
%ADD16O,1.700000X1.700000*%
%TD*%
%TA.AperFunction,ComponentPad*%
%ADD17C,2.000000*%
%TD*%
%TA.AperFunction,ComponentPad*%
%ADD18R,2.000000X1.905000*%
%TD*%
%TA.AperFunction,ComponentPad*%
%ADD19O,2.000000X1.905000*%
%TD*%
%TA.AperFunction,ComponentPad*%
%ADD20R,1.000000X1.000000*%
%TD*%
%TA.AperFunction,ComponentPad*%
%ADD21R,1.500000X1.500000*%
%TD*%
%TA.AperFunction,ComponentPad*%
%ADD22C,1.500000*%
%TD*%
%TA.AperFunction,ComponentPad*%
%ADD23HorizOval,0.800000X0.000000X0.000000X0.000000X0.000000X0*%
%TD*%
%TA.AperFunction,ComponentPad*%
%ADD24HorizOval,0.800000X0.000000X0.000000X0.000000X0.000000X0*%
%TD*%
%TA.AperFunction,ComponentPad*%
%ADD25C,0.800000*%
%TD*%
%TA.AperFunction,ComponentPad*%
%ADD26O,9.000000X6.000000*%
%TD*%
%TA.AperFunction,SMDPad,CuDef*%
%ADD27R,1.117600X2.235200*%
%TD*%
%TA.AperFunction,ComponentPad*%
%ADD28R,3.960000X1.980000*%
%TD*%
%TA.AperFunction,ComponentPad*%
%ADD29O,3.960000X1.980000*%
%TD*%
%TA.AperFunction,ComponentPad*%
%ADD30C,1.440000*%
%TD*%
%TA.AperFunction,ViaPad*%
%ADD31C,0.600000*%
%TD*%
%TA.AperFunction,Conductor*%
%ADD32C,0.200000*%
%TD*%
G04 APERTURE END LIST*
D10*
%TO.P,ADC,1,RED*%
%TO.N,unconnected-(U8-RED-Pad1)*%
X205420000Y-160940000D03*
%TO.P,ADC,2,BLK*%
%TO.N,unconnected-(U8-BLK-Pad2)*%
X207960000Y-160940000D03*
%TO.P,ADC,3,WHT*%
%TO.N,unconnected-(U8-WHT-Pad3)*%
X210500000Y-160940000D03*
%TO.P,ADC,4,GRN*%
%TO.N,unconnected-(U8-GRN-Pad4)*%
X213040000Y-160940000D03*
%TO.P,ADC,5,YLW*%
%TO.N,unconnected-(U8-YLW-Pad5)*%
X215580000Y-160940000D03*
%TO.P,ADC,6,GND*%
%TO.N,GND*%
X215580000Y-133000000D03*
%TO.P,ADC,7,CLK*%
%TO.N,Net-(U4-19_A5_SCL0)*%
X213040000Y-133000000D03*
%TO.P,ADC,8,DAT*%
%TO.N,Net-(U4-18_A4_SDA0)*%
X210500000Y-133000000D03*
%TO.P,ADC,9,VCC*%
%TO.N,+5V*%
X207960000Y-133000000D03*
%TO.P,ADC,10,VDD*%
X205420000Y-133000000D03*
%TD*%
D11*
%TO.P,Teensy 4.0,1,GND*%
%TO.N,unconnected-(U4-GND-Pad1)*%
X258040000Y-136300000D03*
%TO.P,Teensy 4.0,2,0_RX1_CRX2_CS1*%
%TO.N,unconnected-(U4-0_RX1_CRX2_CS1-Pad2)*%
X255500000Y-136300000D03*
%TO.P,Teensy 4.0,3,1_TX1_CTX2_MISO1*%
%TO.N,unconnected-(U4-1_TX1_CTX2_MISO1-Pad3)*%
X252960000Y-136300000D03*
%TO.P,Teensy 4.0,4,2_OUT2*%
%TO.N,Net-(J1-Pin_1)*%
X250420000Y-136300000D03*
%TO.P,Teensy 4.0,5,3_LRCLK2*%
%TO.N,unconnected-(U4-3_LRCLK2-Pad5)*%
X247880000Y-136300000D03*
%TO.P,Teensy 4.0,6,4_BCLK2*%
%TO.N,unconnected-(U4-4_BCLK2-Pad6)*%
X245340000Y-136300000D03*
%TO.P,Teensy 4.0,7,5_IN2*%
%TO.N,Net-(IR_Receiver1-Pin_1)*%
X242800000Y-136300000D03*
%TO.P,Teensy 4.0,8,6_OUT1D*%
%TO.N,unconnected-(U4-6_OUT1D-Pad8)*%
X240260000Y-136300000D03*
%TO.P,Teensy 4.0,9,7_RX2_OUT1A*%
%TO.N,unconnected-(U4-7_RX2_OUT1A-Pad9)*%
X237720000Y-136300000D03*
%TO.P,Teensy 4.0,10,8_TX2_IN1*%
%TO.N,unconnected-(U4-8_TX2_IN1-Pad10)*%
X235180000Y-136300000D03*
%TO.P,Teensy 4.0,11,9_OUT1C*%
%TO.N,unconnected-(U4-9_OUT1C-Pad11)*%
X232640000Y-136300000D03*
%TO.P,Teensy 4.0,12,10_CS_MQSR*%
%TO.N,unconnected-(U4-10_CS_MQSR-Pad12)*%
X230100000Y-136300000D03*
%TO.P,Teensy 4.0,13,11_MOSI_CTX1*%
%TO.N,unconnected-(U4-11_MOSI_CTX1-Pad13)*%
X227560000Y-136300000D03*
%TO.P,Teensy 4.0,14,12_MISO_MQSL*%
%TO.N,unconnected-(U4-12_MISO_MQSL-Pad14)*%
X225020000Y-136300000D03*
%TO.P,Teensy 4.0,20,13_SCK_CRX1_LED*%
%TO.N,unconnected-(U4-13_SCK_CRX1_LED-Pad20)*%
X225020000Y-151540000D03*
%TO.P,Teensy 4.0,21,14_A0_TX3_SPDIF_OUT*%
%TO.N,Net-(U1-VOUT)*%
X227560000Y-151540000D03*
%TO.P,Teensy 4.0,22,15_A1_RX3_SPDIF_IN*%
%TO.N,Net-(U3-VOUT)*%
X230100000Y-151540000D03*
%TO.P,Teensy 4.0,23,16_A2_RX4_SCL1*%
%TO.N,Net-(U4-16_A2_RX4_SCL1)*%
X232640000Y-151540000D03*
%TO.P,Teensy 4.0,24,17_A3_TX4_SDA1*%
%TO.N,Net-(U4-17_A3_TX4_SDA1)*%
X235180000Y-151540000D03*
%TO.P,Teensy 4.0,25,18_A4_SDA0*%
%TO.N,Net-(U4-18_A4_SDA0)*%
X237720000Y-151540000D03*
%TO.P,Teensy 4.0,26,19_A5_SCL0*%
%TO.N,Net-(U4-19_A5_SCL0)*%
X240260000Y-151540000D03*
%TO.P,Teensy 4.0,27,20_A6_TX5_LRCLK1*%
%TO.N,unconnected-(U4-20_A6_TX5_LRCLK1-Pad27)*%
X242800000Y-151540000D03*
%TO.P,Teensy 4.0,28,21_A7_RX5_BCLK1*%
%TO.N,unconnected-(U4-21_A7_RX5_BCLK1-Pad28)*%
X245340000Y-151540000D03*
%TO.P,Teensy 4.0,29,22_A8_CTX1*%
%TO.N,unconnected-(U4-22_A8_CTX1-Pad29)*%
X247880000Y-151540000D03*
%TO.P,Teensy 4.0,30,23_A9_CRX1_MCLK1*%
%TO.N,unconnected-(U4-23_A9_CRX1_MCLK1-Pad30)*%
X250420000Y-151540000D03*
%TO.P,Teensy 4.0,31,3V3*%
%TO.N,unconnected-(U4-3V3-Pad31)*%
X252960000Y-151540000D03*
%TO.P,Teensy 4.0,32,GND*%
%TO.N,GND*%
X255500000Y-151540000D03*
%TO.P,Teensy 4.0,33,VIN*%
%TO.N,+5V*%
X258040000Y-151540000D03*
%TD*%
D12*
%TO.P,500K,1*%
%TO.N,+BATT*%
X218690000Y-98000000D03*
D13*
%TO.P,500K,2*%
%TO.N,Net-(R2-Pad2)*%
X226310000Y-98000000D03*
%TD*%
D14*
%TO.P,C2,1*%
%TO.N,+5V*%
X246140000Y-128920000D03*
D11*
%TO.P,C2,2*%
%TO.N,GND*%
X246140000Y-125120000D03*
%TD*%
D15*
%TO.P,ESC 5V In,1,Pin_1*%
%TO.N,unconnected-(J4-Pin_1-Pad1)*%
X229945000Y-91651700D03*
D16*
%TO.P,ESC 5V In,2,Pin_2*%
%TO.N,Net-(J1-Pin_2)*%
X232485000Y-91651700D03*
%TO.P,ESC 5V In,3,Pin_3*%
%TO.N,GND*%
X235025000Y-91651700D03*
%TD*%
D14*
%TO.P,C1,1*%
%TO.N,+3V3*%
X246140000Y-117722700D03*
D11*
%TO.P,C1,2*%
%TO.N,GND*%
X246140000Y-113922700D03*
%TD*%
D17*
%TO.P,BATT-,1,1*%
%TO.N,-BATT*%
X223500000Y-91500000D03*
%TD*%
D18*
%TO.P,3.3V Regulator,1,GND*%
%TO.N,GND*%
X254825000Y-114380000D03*
D19*
%TO.P,3.3V Regulator,2,VO*%
%TO.N,+3V3*%
X254825000Y-116920000D03*
%TO.P,3.3V Regulator,3,VI*%
%TO.N,+12V*%
X254825000Y-119460000D03*
%TD*%
D20*
%TO.P,TP3,1,1*%
%TO.N,Net-(U4-17_A3_TX4_SDA1)*%
X226833300Y-117333300D03*
%TD*%
D15*
%TO.P,ESC Output,1,Pin_1*%
%TO.N,Net-(J1-Pin_1)*%
X241975000Y-91500000D03*
D16*
%TO.P,ESC Output,2,Pin_2*%
%TO.N,Net-(J1-Pin_2)*%
X244515000Y-91500000D03*
%TO.P,ESC Output,3,Pin_3*%
%TO.N,GND*%
X247055000Y-91500000D03*
%TD*%
D18*
%TO.P,5V Regulator,1,VI*%
%TO.N,+12V*%
X254520000Y-126340000D03*
D19*
%TO.P,5V Regulator,2,GND*%
%TO.N,GND*%
X254520000Y-128880000D03*
%TO.P,5V Regulator,3,VO*%
%TO.N,+5V*%
X254520000Y-131420000D03*
%TD*%
D21*
%TO.P,U5,1,VCC*%
%TO.N,+3V3*%
X206600000Y-109325000D03*
D22*
%TO.P,U5,2,GND*%
%TO.N,GND*%
X208510000Y-109325000D03*
%TO.P,U5,3,VIOUT*%
%TO.N,Net-(U4-16_A2_RX4_SCL1)*%
X210420000Y-109325000D03*
D23*
%TO.P,U5,4,IP+*%
%TO.N,+BATT*%
X209560000Y-87295000D03*
D24*
X209560000Y-88555000D03*
D25*
X210310000Y-86265000D03*
X210310000Y-89585000D03*
X211510000Y-85875000D03*
X211510000Y-89975000D03*
X212840000Y-85875000D03*
X212840000Y-89975000D03*
D26*
X213510000Y-87925000D03*
D25*
X214180000Y-85875000D03*
X214180000Y-89975000D03*
X215510000Y-85875000D03*
X215510000Y-89975000D03*
X216710000Y-86265000D03*
X216710000Y-89585000D03*
X217460000Y-87295000D03*
X217460000Y-88555000D03*
%TO.P,U5,5,IP-*%
%TO.N,unconnected-(U5-IP--Pad5)*%
X199560000Y-87295000D03*
X199560000Y-88555000D03*
X200310000Y-86265000D03*
X200310000Y-89585000D03*
X201510000Y-85875000D03*
X201510000Y-89975000D03*
X202840000Y-85875000D03*
X202840000Y-89975000D03*
D26*
X203510000Y-87925000D03*
D25*
X204180000Y-85875000D03*
X204180000Y-89975000D03*
X205510000Y-85875000D03*
X205510000Y-89975000D03*
X206710000Y-86265000D03*
X206710000Y-89585000D03*
D24*
X207460000Y-87295000D03*
D23*
X207460000Y-88555000D03*
%TD*%
D27*
%TO.P,U1,1,NC*%
%TO.N,unconnected-(U1-NC-Pad1)*%
X186992000Y-116128000D03*
%TO.P,U1,2,VS*%
%TO.N,+3V3*%
X189532000Y-116128000D03*
%TO.P,U1,3,GND*%
%TO.N,GND*%
X192072000Y-116128000D03*
%TO.P,U1,4,VOUT*%
%TO.N,Net-(U1-VOUT)*%
X194612000Y-116128000D03*
%TO.P,U1,5,NC*%
%TO.N,unconnected-(U1-NC-Pad5)*%
X194612000Y-99872000D03*
%TO.P,U1,6,NC*%
%TO.N,unconnected-(U1-NC-Pad6)*%
X192072000Y-99872000D03*
%TO.P,U1,7,NC*%
%TO.N,unconnected-(U1-NC-Pad7)*%
X189532000Y-99872000D03*
%TO.P,U1,8,NC*%
%TO.N,unconnected-(U1-NC-Pad8)*%
X186992000Y-99872000D03*
%TD*%
D12*
%TO.P,500K,1*%
%TO.N,Net-(R2-Pad2)*%
X218690000Y-101000000D03*
D13*
%TO.P,500K,2*%
%TO.N,Net-(U4-17_A3_TX4_SDA1)*%
X226310000Y-101000000D03*
%TD*%
D15*
%TO.P,IR_Rx,1,Pin_1*%
%TO.N,Net-(IR_Receiver1-Pin_1)*%
X193000000Y-141960000D03*
D16*
%TO.P,IR_Rx,2,Pin_2*%
%TO.N,+3V3*%
X193000000Y-144500000D03*
%TO.P,IR_Rx,3,Pin_3*%
%TO.N,GND*%
X193000000Y-147040000D03*
%TD*%
D28*
%TO.P,J2,1,Pin_1*%
%TO.N,+12V*%
X251520000Y-107815000D03*
D29*
%TO.P,J2,2,Pin_2*%
%TO.N,GND*%
X251520000Y-102815000D03*
%TD*%
D30*
%TO.P,Potentiometer,1*%
%TO.N,Net-(U4-17_A3_TX4_SDA1)*%
X225040000Y-108500000D03*
%TO.P,Potentiometer,2*%
%TO.N,-BATT*%
X222500000Y-108500000D03*
%TO.P,Potentiometer,3*%
%TO.N,N/C*%
X219960000Y-108500000D03*
%TD*%
D27*
%TO.P,U3,1,NC*%
%TO.N,unconnected-(U3-NC-Pad1)*%
X186992000Y-136128000D03*
%TO.P,U3,2,VS*%
%TO.N,+3V3*%
X189532000Y-136128000D03*
%TO.P,U3,3,GND*%
%TO.N,GND*%
X192072000Y-136128000D03*
%TO.P,U3,4,VOUT*%
%TO.N,Net-(U3-VOUT)*%
X194612000Y-136128000D03*
%TO.P,U3,5,NC*%
%TO.N,unconnected-(U3-NC-Pad5)*%
X194612000Y-119872000D03*
%TO.P,U3,6,NC*%
%TO.N,unconnected-(U3-NC-Pad6)*%
X192072000Y-119872000D03*
%TO.P,U3,7,NC*%
%TO.N,unconnected-(U3-NC-Pad7)*%
X189532000Y-119872000D03*
%TO.P,U3,8,NC*%
%TO.N,unconnected-(U3-NC-Pad8)*%
X186992000Y-119872000D03*
%TD*%
D15*
%TO.P,IR_Tx,1,Pin_1*%
%TO.N,+3V3*%
X193000000Y-151725000D03*
D16*
%TO.P,IR_Tx,2,Pin_2*%
%TO.N,GND*%
X193000000Y-154265000D03*
%TD*%
D31*
%TO.N,GND*%
X194186900Y-138845000D03*
%TO.N,Net-(U1-VOUT)*%
X198500000Y-117735500D03*
%TO.N,Net-(U4-18_A4_SDA0)*%
X212000000Y-138000000D03*
%TD*%
D32*
%TO.N,Net-(U1-VOUT)*%
X194612000Y-117547300D02*
X194612000Y-116128000D01*
X198500000Y-117735500D02*
X198311800Y-117547300D01*
X198311800Y-117547300D02*
X194612000Y-117547300D01*
%TO.N,Net-(U4-18_A4_SDA0)*%
X226734600Y-145190000D02*
X229274600Y-147730000D01*
X233910000Y-147730000D02*
X237720000Y-151540000D01*
X224709400Y-145190000D02*
X226734600Y-145190000D01*
X213070900Y-139070900D02*
X218590300Y-139070900D01*
X218590300Y-139070900D02*
X224709400Y-145190000D01*
X212000000Y-138000000D02*
X213070900Y-139070900D01*
X229274600Y-147730000D02*
X233910000Y-147730000D01*
%TO.N,Net-(J1-Pin_2)*%
X233636700Y-91651700D02*
X232485000Y-91651700D01*
X242655100Y-90000000D02*
X233636700Y-90000000D01*
X243363300Y-90708200D02*
X242655100Y-90000000D01*
X233636700Y-90000000D02*
X233636700Y-91651700D01*
X243363300Y-91500000D02*
X243363300Y-90708200D01*
X244515000Y-91500000D02*
X243363300Y-91500000D01*
%TO.N,Net-(IR_Receiver1-Pin_1)*%
X241208700Y-134708700D02*
X242800000Y-136300000D01*
X193861700Y-134708700D02*
X241208700Y-134708700D01*
X193000000Y-141960000D02*
X193000000Y-140808300D01*
X193751500Y-134818900D02*
X193861700Y-134708700D01*
X194792800Y-139159500D02*
X194792800Y-138599900D01*
X193144000Y-140808300D02*
X194792800Y-139159500D01*
X193000000Y-140808300D02*
X193144000Y-140808300D01*
X193751500Y-137558600D02*
X193751500Y-134818900D01*
X194792800Y-138599900D02*
X193751500Y-137558600D01*
%TO.N,+3V3*%
X189532000Y-116128000D02*
X189532000Y-114708700D01*
X189532000Y-134708700D02*
X188671500Y-133848200D01*
X254825000Y-116920000D02*
X248044400Y-116920000D01*
X246690900Y-117722700D02*
X247241700Y-117722700D01*
X193000000Y-144500000D02*
X193000000Y-143348300D01*
X234787600Y-107472000D02*
X208453000Y-107472000D01*
X189532000Y-116128000D02*
X189532000Y-117547300D01*
X194915700Y-109325000D02*
X189532000Y-114708700D01*
X188671500Y-118407800D02*
X189532000Y-117547300D01*
X192185500Y-143348300D02*
X193000000Y-143348300D01*
X189532000Y-136128000D02*
X189532000Y-134708700D01*
X246140000Y-117722700D02*
X245038300Y-117722700D01*
X189532000Y-136128000D02*
X189532000Y-140694800D01*
X188671500Y-133848200D02*
X188671500Y-118407800D01*
X206600000Y-109325000D02*
X194915700Y-109325000D01*
X189532000Y-140694800D02*
X192185500Y-143348300D01*
X246690900Y-117722700D02*
X246140000Y-117722700D01*
X245038300Y-117722700D02*
X234787600Y-107472000D01*
X208453000Y-107472000D02*
X206600000Y-109325000D01*
X248044400Y-116920000D02*
X247241700Y-117722700D01*
%TO.N,Net-(U3-VOUT)*%
X228830000Y-150270000D02*
X207334700Y-150270000D01*
X230100000Y-151540000D02*
X228830000Y-150270000D01*
X194612000Y-136128000D02*
X194612000Y-137547300D01*
X207334700Y-150270000D02*
X194612000Y-137547300D01*
%TO.N,GND*%
X247055000Y-91500000D02*
X245903300Y-91500000D01*
X222960000Y-125620000D02*
X215580000Y-133000000D01*
X235025000Y-91651700D02*
X236176700Y-91651700D01*
X254520000Y-127625800D02*
X248145800Y-127625800D01*
X192072000Y-137547300D02*
X192889200Y-137547300D01*
X192072000Y-114708700D02*
X203260400Y-114708700D01*
X214316800Y-131736800D02*
X195043900Y-131736800D01*
X248145800Y-127625800D02*
X246140000Y-125620000D01*
X192072000Y-136128000D02*
X192072000Y-134708700D01*
X192889200Y-137547300D02*
X194186900Y-138845000D01*
X246140000Y-125620000D02*
X246140000Y-125120000D01*
X208510000Y-109459100D02*
X208510000Y-109325000D01*
X253066000Y-113922700D02*
X246140000Y-113922700D01*
X246140000Y-125620000D02*
X222960000Y-125620000D01*
X203260400Y-114708700D02*
X208510000Y-109459100D01*
X192072000Y-116128000D02*
X192072000Y-114708700D01*
X253523300Y-114380000D02*
X253066000Y-113922700D01*
X245903300Y-91788000D02*
X245039600Y-92651700D01*
X245039600Y-92651700D02*
X237176700Y-92651700D01*
X195043900Y-131736800D02*
X192072000Y-134708700D01*
X192072000Y-136128000D02*
X192072000Y-137547300D01*
X245903300Y-91500000D02*
X245903300Y-91788000D01*
X254520000Y-128880000D02*
X254520000Y-127625800D01*
X254825000Y-114380000D02*
X253523300Y-114380000D01*
X215580000Y-133000000D02*
X214316800Y-131736800D01*
X237176700Y-92651700D02*
X236176700Y-91651700D01*
%TO.N,Net-(R2-Pad2)*%
X221690000Y-98000000D02*
X226310000Y-98000000D01*
X218690000Y-101000000D02*
X221690000Y-98000000D01*
%TO.N,+5V*%
X249741700Y-131420000D02*
X247241700Y-128920000D01*
X241321300Y-134289600D02*
X209249600Y-134289600D01*
X205420000Y-133000000D02*
X207960000Y-133000000D01*
X246690900Y-128920000D02*
X247241700Y-128920000D01*
X209249600Y-134289600D02*
X207960000Y-133000000D01*
X246690900Y-128920000D02*
X241321300Y-134289600D01*
X254520000Y-131420000D02*
X249741700Y-131420000D01*
X246140000Y-128920000D02*
X246690900Y-128920000D01*
%TO.N,+BATT*%
X210700000Y-89975000D02*
X210310000Y-89585000D01*
X215900000Y-89585000D02*
X215510000Y-89975000D01*
X214180000Y-89975000D02*
X212840000Y-89975000D01*
X212840000Y-89975000D02*
X211510000Y-89975000D01*
X211510000Y-89975000D02*
X210700000Y-89975000D01*
X216710000Y-89585000D02*
X215900000Y-89585000D01*
X215510000Y-89975000D02*
X214180000Y-89975000D01*
%TO.N,unconnected-(U5-IP--Pad5)*%
X202840000Y-89975000D02*
X201510000Y-89975000D01*
X205900000Y-89585000D02*
X205510000Y-89975000D01*
X204180000Y-89975000D02*
X202840000Y-89975000D01*
X206710000Y-89585000D02*
X205900000Y-89585000D01*
X205510000Y-89975000D02*
X204180000Y-89975000D01*
X200700000Y-89975000D02*
X200310000Y-89585000D01*
X201510000Y-89975000D02*
X200700000Y-89975000D01*
%TD*%
M02*
